<?xml version="1.0" encoding="UTF-8"?>
<svg id="a" data-name="Isolation Mode" xmlns="http://www.w3.org/2000/svg" xmlns:xlink="http://www.w3.org/1999/xlink" viewBox="0 0 2102.8 1580.66">
  <defs>
    <style>
      .d { fill: none; }
      .e { fill: url(#c); }
      .f { clip-path: url(#b); }
    </style>
    <clipPath id="b">
      <path class="d" d="M91.4,1447.05h1870.42c15.85-10.84,32.34-21.71,49.58-32.67V143.83c-95.42,20.36-193.05,35-290,51.74h0c-71.29,12.31-143.39,22.58-216.03,30.87-67.34,7.68-135.16,13.67-203.3,17.87-60.89,3.75-122.04,6.1-183.34,6.75-97.99,1.04-199.73.04-296.96-14.85-78.77-12.06-158.13-28.63-235.94-44.25-177.45-35.62-342.23-54.18-494.42-58.36v1313.45Z"/>
    </clipPath>
    <radialGradient id="c" data-name="Naamloos verloop 22" cx="92.62" cy="4864.34" fx="92.62" fy="4864.34" r="1" gradientTransform="translate(205896.34 21454370.81) rotate(-180) scale(2215 4410.38)" gradientUnits="userSpaceOnUse">
      <stop offset="0" stop-color="#6521c8"/>
      <stop offset=".2" stop-color="#6521c8"/>
      <stop offset=".26" stop-color="#5f20be"/>
      <stop offset=".36" stop-color="#501fa4"/>
      <stop offset=".49" stop-color="#381d7a"/>
      <stop offset=".6" stop-color="#1f1b4e"/>
      <stop offset=".98" stop-color="#1f1b4e"/>
      <stop offset="1" stop-color="#1f1b4e"/>
    </radialGradient>
  </defs>
  <g class="f">
    <rect class="e" x="329.31" y="-213.14" width="1444.18" height="2006.94" transform="translate(189.65 1784.04) rotate(-86)"/>
  </g>
</svg>
