<?xml version="1.0" encoding="UTF-8"?>
<svg id="Layer_1" xmlns="http://www.w3.org/2000/svg" version="1.1" viewBox="0 0 1059.07 1895.22">
  <!-- Generator: Adobe Illustrator 30.6.0, SVG Export Plug-In . SVG Version: 2.1.4 Build 109)  -->
  <defs>
    <style>
      .st0 {
        fill: #803e6c;
      }

      .st1 {
        fill: #52583a;
      }

      .st2 {
        fill: #571c4d;
      }

      .st3 {
        fill: #7a7b59;
      }

      .st4 {
        fill: #8b4a78;
      }

      .st5 {
        fill: #e07e22;
      }

      .st6 {
        fill: #f9ac52;
      }

      .st7 {
        fill: #978b7b;
      }

      .st8 {
        fill: #ba5012;
      }

      .st9 {
        fill: #9b6f89;
      }

      .st10 {
        fill: #dbd0bd;
      }

      .st11 {
        fill: #f2f3ed;
      }

      .st12 {
        fill: #ba79a5;
      }

      .st13 {
        fill: #c7b7a1;
      }

      .st14 {
        fill: #eae6d3;
      }

      .st15 {
        fill: #3a280e;
      }
    </style>
  </defs>
  <g id="Generative_Object">
    <g>
      <g>
        <g>
          <path class="st13" d="M697.9,1863.35c2.44.25,2.88,1.28,3.58,3.06,1.58,4.03,1.31,25.46-4.64,26.58-26.96.22-53.77.97-80.43,2.23l-63.34-.23-10-3.05c-5.15-3.66-5.92-7.13-5.14-13.2.57-4.45,2.97-13.03,8.24-11.79l3.39-1.92c9.53,2.74,19.33,5.34,29.35,4.25l61.71-11.3c18.04-2.19,36.04-1.48,54.01,2.14l3.28,3.23Z"/>
          <path class="st13" d="M293.66,1867.24c3.27-1.98,7.23,7.75,7.36,10.07.69,11.81-6.69,15.1-16.87,16.11-4.26-.01-7.05.59-8.35,1.8l-45.43-.22c-1.69,0-3.92-2.09-6.93-1.41-5.72,1.28-11.2-.44-16.69-.77l-24.67-1.49c-12.17-.73-23.6-.25-35.56-3.28-1.77-8.95-2.33-18.32.87-26.05l1.68-2.92c15.58-2.32,31.22-2.58,46.91-.76,29.87,7.04,60.58,11.89,91.3,7.16l6.38,1.75Z"/>
          <path class="st7" d="M284.08,1895.22h-8.27c-.18-.48-.24-1.6.09-2,.43-.51,1.49-.65,2.58-.79l14.6-1.95c2.95-4.11,6.93-9.61,4.75-14.27l-4.16-8.98c-3.51-3.41-.07-6.15,3.6-8.03,3.06-1.57,6.35-2.92,9.59-4.17,16.09-6.25,32.37-10.18,49.07-13.48,3.98-2.5,7.58-3.49,10.8-2.99,2.66,5.98,1.43,12.5,1.96,19.43.57,7.41-2.1,13.54-10.1,15.47-20.02,4.82-39.78,9.94-59.12,17.69l-15.38,4.06Z"/>
          <path class="st7" d="M417.93,1431.75c4.06-.7,2.65,16.7,2.14,17.68s-1.74,1.41-2.82,1.77l2.7,1.35c-2.53,16.15-1.3,31.33,3.69,45.52,22.27-9.32,34.2,13.91,41.54,31.84,9.64,28.83,18.4,57.65,26.26,86.46l5.62,8.74c26.28,13.34,52.58,26.68,78.91,40.04,2.06,1.76,3.84,5.72,2.3,7.99-3.12,4.58-21.32,1.04-26.49-.83l-58.31-18.55c13.13,16.37,20.56,25.74,4.94,44.21-.65,3.1,1.49,6.07,4.61,6.86,34.13,8.66,65.1,1.53,97.84-8.21l4.26,1.24c14.56-2.65,29.28-2.01,44.16,1.94l1.96,2.64,1.38,2.82c-6.66,7.4-10.83,15.64-12.51,24.7l-2.86,2.18-1.61,2.7c-11.48-1.11-22.49,2.29-33.04,10.21-7.18,2.57-19.18,4.81-26.77,4.16-5.6-.48-14.45-1.66-15.8-7.58-3.05.94-6.63.82-10.73-.37-6.74,1.75-12.64,2.82-19.77,2.87-1.6.01-16.05-1.16-16.89-1.47s-.87-2.11-.83-3.33l-4.85-3.63c-19.93-8.65-41.86-29.93-28.81-47.7,6.36-8.65,7.58-18.83,3.02-28.64l-12.57-27.01c-3.78-11.89.04-24.18-.88-36.38-1.01-13.43-5.73-25.67-10.47-38.17l-17.86-47.07c-5.38-2.73-15.18,2-17.19,8.09l-16.78,50.87-15.63,56.88c-2.25,8.18.42,17.4-4.49,25.2-1.49,2.36-3.23,7.62-2.98,10.45l3.53,39.9c1.46,16.51-7.76,30.68-24.21,34.92-3.01.78-6.82,2.47-8.99,3.66-3.58,2.45-12.51,4.48-17.59,4.99-15.24,1.54-30.34,2.9-45.63.28,1.54,5.89,5.15,11.39,10.82,16.48l-.92,3.18c4.2,2.8,3.51,7.82-1.48,9.82-12.59-2.42-25.35-3.95-38.29-4.58-22.25-3.21-28.96-12.96-37.14-32.38-.96-2.28-1.94-8.54-1.29-10.57-5-5.26-8.35-13.66-10.36-21.47-1.71-6.64-9.03-10.37-12.9-15.07,1.24-1.82,2.73-2.92,4.6-1.82l17.16,9.58c40.35,19.03,79.95,23.22,122.51,25.18,4.32-1.73,7.88-1.84,10.68-.31l2.91.26c.76,7.82,11.23,1.24,8.58-5.27-16.9-22.78-11.93-45.65-4.09-71.91-.03-50.19,21.55-97.36,49.68-137.87.3-3.09,1.26-5.44,2.87-7.04l-3.57-3.37c-2-15.72-2.77-31.41-2.3-47.06l2.75-1.88c-2.8-.89-3.76-3.8-2.87-8.74-1.02-4.87-.14-8.01,2.63-9.41.07-4.15,7.81-3.92,8.53.01Z"/>
          <path class="st13" d="M647.84,1420.57c1.11.05,2.79.17,3.03.96,4.53,15.23,7.17,33.25,7.76,49.19,1.71,13.46,4.78,26.62,9.19,39.5.78,9.64-4.34,18.73-13.07,22.94,3.86,7.46,5.64,15.28,5.34,23.46-3.59,14.52-2.61,27.81,2.91,41.65.69,10.54-.99,21.11-5.04,31.69-.66,10.2.47,20.26,3.37,30.2,10.84,8.1,11.76,19.31,4.26,30.29-2.75,4.03-9.82,12.59-14.36,11.98-5.16.55-9.76-.95-14.89-2.23-13.2-3.31-23.82.7-31.22-2.34.9-3.36,3.8-5.95,8.69-7.78,6.51-3.55,6.79-5.78,3.52-12.03-10.54-20.2-16.77-26.62-38.97-31.81-8.84-4.89-7.87-13.16,2.91-24.81,4.4-10.06,6.02-21.15,4.84-33.28l2.91-6.09c-2.71-2.02-2.41-2.42.92-2.61l.58-3.01c14.46-12.66,34.51-34.83,25.04-55.1-6.81,3.63-13.83,6.78-21.08,9.46l-3.89-1.77-2.67.59c-5.74-5.44-10.48-12.26-14.22-20.46l1.43-3.02,1.67-2.65c9.08,4.86,33.13-9.52,33.63-16.5.1-1.4-13.08-21.95-14.67-23.94-25.09-31.4-44.43-15.95-50.1,18.53l-2.64,1.65c-1.71,2.01-4.06,1.49-7.06-1.57-36.64-14.16-74.83-23.19-114.58-27.1l-4.14-3.35.68-19.46,1.38-2.69c49.62,3.31,103.26,4.15,155.02.19l6.29,1.19.93-2.87c21.49-1.5,42.75-4.59,63.79-9.27l2.52,2.26Z"/>
          <path class="st3" d="M637.24,1732.16c.34-3.43,4.21-3.21,6.86-2.03,11.32,5.01,7.76,24.44.22,31.64.64,17.91,10.5,37.48,24.23,50.67,4.11,4.49,4.68,7.86,1.69,10.13-3.32,1.06-7.22.38-11.7-2.02l-10.29-2.02-1.84-3-1.32-1.48c2.08-4.7-1.06-9-9.41-12.91l-.18-3.62.56-2.21c-3.66,1.17-7.58.84-11.74-.98-10.75-1.91-21.62-3.06-32.59-3.43-3.21-1.43-2.14-3.34-.44-6.12,1.15-1.88,14.13-2,17.02-1.88-9.75-1.58-19.79-1.5-30.14.24-7.13-4.97.74-7.39,6.51-9.11l14.26-3.65c-18.68-3.38-37.99.43-53.78,10.43l-2.98-1.55c-2,1.44-2.68,1.29-3.88-.52-3.08-4.65,3.85-14.32,9.59-14.73l.35-1.85c7.13-3.58,9.6-10.72,9.29-18.29l2.51-2.24c14.56,7.35,23.8,5.52,41.6.85l17.1-9c5.55-2.92,13.03-1.45,18.51-1.34Z"/>
          <path class="st3" d="M636.05,1795.31c1.59.91,1.2,1.72-.56,2.21-2.76,6.71-8.65-4.31.56-2.21Z"/>
          <path class="st10" d="M646.41,1815.52c7.51.82,17.28,2.7,23.83,7.04,7.28-1.9,14.26,10.69,17.48,16.86,3.73,5.09,4.76,9.55,3.09,13.4l-4.72,1.07c-14.82-5.5-30.88-5.92-46.37-3.34-24.82,8.48-50.01,11.32-75.56,8.52l-3.15-3.2-2.7-1.46c-2-21.09,6.71-28.56,26.39-32.15.82-4.92,11.57-8.59,16.62-10.06,12.07-3.53,30.98-2.26,43.48.37l1.61,2.95Z"/>
          <path class="st11" d="M525.47,1841.83c3.93-2.07,8.2-1.93,12.81.42,6.45,4.82,13.38,8.33,20.77,10.52l1.95,3.12c14.51,1.95,30.23,3.83,45.22.12l32.98-8.15c17.97-2.95,35.39-2.04,51.61,4.97,4.35-3.98,11.31,6.73,7.09,10.52l-18.06-2.48c-13.83-2.24-27.05-2.34-41.12.24l-59.48,10.9c-11.86,1.31-22.49-2.16-33.07-5.07-4.32-.1-8.71-1.96-13.16-5.56-9.28-4.05-18.9-7.18-28.86-9.38-4.04-1.18-5.87-3.36-5.48-6.53l5.87-11.28c2.49-2.43,6.33-1.74,11.51,2.06,5.44.65,8.58,2.51,9.43,5.58Z"/>
          <path class="st11" d="M271.35,1439.06c.77,2.5,1.15,3.75,1.15,3.75,10.99,15.43,19.98,32.01,26.97,49.73,5.37,8.44,25.27,13.3,23.43.02-3.17-22.9-29.19-40.76-48.73-49.53l-.54-3.3c.14-1.07.51-2.68,1.27-2.74,8.09-.64,20.4-.08,28.7.36,33.66,1.79,71,5.67,104.61,9.65l1.41,2.9.1,13.75c.09,13.31-.01,26.29,3.03,38.55l-.74,2.81-51.19,3.36c10.46,3.79,21.28,6.49,32.45,8.11,6.16,4.21,4.62,5.65-1.89,10.06-13.5,11.59-33.68,21.86-49.71,29.85-2.4,1.2-5.65,2.37-8.15,1.26-1.52,4.05-13.75-1.8-12.93-5.99l-1.76-2.42c3.18-4.56,5.68-9.23,7.52-14.03-6.02-5.49-12.64-9.25-19.86-11.29-4.07,1.93-8.5,1.41-13.27-1.55-21.99,2.43-45.76,2.08-60.27-17.33-6.51-3.21-16.56,1.34-17.13,9.59-.47,6.74,2.74,37.95,4.56,44.58,3.12,11.39,14.81,27.66,24.87,34.03l1.25,3.11c5.26,1.22,5.93,10.02,6.31,15.11.58,7.83.71,20.86-9.08,21.08-13.38-1.32-26.74-2.96-40.08-4.91l-2.69-2.49c-8.62-13.34-6.98-26.53.23-41.67,8.29-17.42-4.37-23.34-4.32-41.24.12-36.91,14.63-57.68,13.99-68.83-.51-9.07.09-16.96,1.09-25.13l2.41-2.62c11.59-1.73,23.25-4.08,35-7.05,8.22-2.33,15.55-2.17,21.97.48Z"/>
          <path class="st10" d="M333.53,1557.64c.92-.84,2.38-1.25,3.57-.83,1.58.56,25.93,18.18,27.12,19.54,8.99,10.26-10.12,23.14-17.81,28.04-11.88,7.56-24.98,13.08-38.02,18.25l41.29-7.22c5.83,2.46,4.03,5.17-.07,8.99-8.29,7.22-17.4,13.28-27.33,18.19,11.81-.4,22.97-2.18,34.17-6.09,3.68.91,5.38,2.65,2.13,5.22-19.55,41.23-92.76,72.89-134.3,51.29-6.81-3.54-14.48-9.62-9.89-17.78,10.55-8.21,19.06-17.73,25.53-28.55-13.25,3.87-31.8-3.11-37.15-15.94-.13-1.65-.94-4.28-1.8-5.62,17.65-2.39,30.61,8.26,47.05,3.77,3.84-11.14,2.25-22.16-1.52-32.56.71-2.21,2.86-3.13,6.43-2.75,16.21-7.63,32.21-15.93,48-24.92,6.63-3.95,11.8-9.83,15.95-16.26l3.72-.75,12.93,5.99Z"/>
          <path class="st11" d="M358.58,1641.72c1.2.79,2.2,1.9,1.97,3.21-4.7,27.17-26.54,45.19-49.18,58.75,13.66,3.01,27.47,5.42,41.43,7.21,7.54,2.09,7.59,15.86.01,13.13-5.54,2.67-12.33,3.9-19.13,3.16l-54.82-5.95c-26.78-4.3-51.53-13.3-74.5-27.54-2.23-1.38-4.16-2.33-6.5-2.3-4.06-4.93-5.82-12.39-4.7-19.39l6.57-11.3c3.67-9.71,3.79-20.27,3.04-29.97,12.91,10.96,24.96,18.97,41.51,11.39-4.91,21.22-28.89,31.25-28.72,37.27.54,18.74,73.24,33.2,125.39-18.21,11.53-11.37,13.22-20.72,17.63-19.47Z"/>
          <path class="st11" d="M359.98,1831.36c1.84-.44,5.88.06,6.09,1.83l.64,5.38c-4.35,4.1-10.03,6.05-16.45,7.17-17.74,3.12-34.22,7.92-50.6,15.36-3.1,1.41-5.43,3.09-6,6.13-28.88,5.22-58.65,2.97-87.82-4.1-13.28-3.21-25.49-4.38-39.15-2.91l-19.31,1.77,1.32-7.49c.34-1.92,3.88-2.26,5.99-3.07,15.88-6.12,32.84-7.48,50-2.21,24.9,7.64,50.47,8.96,75.54,4.61,3.07-3.34,7.42-5.41,13.05-6.19,21.07-7.97,42.46-14.14,64.16-18.53l2.53,2.23Z"/>
          <path class="st13" d="M232.81,1427.66l1.8-2.58c29.71,2.36,59.54,2.96,89.51,1.82l83.7,2.05,1.58,2.8.24,18.15-106.15-9.79-29.85-.37c-1.14,2.33-2.26,1.94-2.29-.67-15.2,1.02-30.31,2.87-45.42,7.76-4.7,1.52-9.28,1.81-13.95,1.43l1.83-15.42c1.05-1.97,3.2-3.09,6.47-3.38,2.78-2.45,5.22-3.14,7.32-2.05l5.21.27Z"/>
          <path class="st13" d="M352.64,1740.71c5.13,15.92-2.06,27.15,2.42,39.59-1.67,7.84-7.06,16.06-15.91,16.93-10.17,1-17.13-7.94-16.94-17.68.07-3.37-.8-8.01-3.78-9.5-5.35-2.69-11.1-4.09-16.36-4.3l-2.75-.11-9.57-11.25c-3.09-3.63-4.62-8.37-2.58-11.45,17.63,2.27,35.07,2.83,52.04-.86,4.99-1.09,9-2.95,13.42-1.37Z"/>
          <path class="st7" d="M546.17,1866.94c-6.12,7.67-7.53,16.42-3.1,24.99-24.17-13.15-43.3-10.91-45.89-19.25-1.49-4.78-.71-22.96,1.5-27.21,6.25,4.84,13.71,7.2,21.91,7.56,9.44,3.48,18.55,7.64,25.58,13.91Z"/>
          <path class="st13" d="M560.02,1741.64c1.51,8.72-2.83,22.12-12.15,22.37-4.39,2.58-9.23,4.38-14.55,5.4-3.83,2.69-7.39,3.73-10.68,3.1-3.53,2.53-8.65-2.26-10.7-5.29-5.57-8.26-4.38-19.02-.14-27.88,2.41,1.81,7.33.27,10.86,1.07,7.55,1.72,14.81,1.23,22-1.01,6.69-2.08,10.31-.31,15.36,2.24Z"/>
          <path class="st13" d="M533.73,1804.94c2.58-2.73,9.35,6.41,10.06,8.43,3.61,10.25-7.88,27.27-18.32,28.45-4.81-1.54-9.86-2.05-14.79-5.17-1.88-1.19-4-1.87-6.14-2.47,3.2-6.15,1.66-14.41,1.86-21.28l1.4-3.36c7.67-2.73,15.4-5.14,23.18-7.24l2.74,2.63Z"/>
          <path class="st4" d="M522.64,1772.5l2.65,1.7c-1.55,7.09-1.09,13.34,1.4,18.76,7.57,3.94,9.92,7.94,7.05,11.98-2.2-.09-4.14.33-6.37,1.08l-20.96,6.89.32-10.91,5.21-34.79c4.3-.92,6.99,3.21,10.7,5.29Z"/>
          <path class="st11" d="M543.03,1483.23l3.67.27c4.95,8.35,11.45,14.44,19.5,18.29,4.32.33,7.3,1.79,8.94,4.36l10.74,18.35c1.2,1.97,3.22,3.26,4.73,4.54,1.34,3.75-1.18,5.01-3.91,2.2l-.6,3.13s-14.24,5.34-42.71,16.03l-8.25-.9c-13.11-4.66-25.61-10.76-37.51-18.3-6.14,2.26-5.34,4.2,2.41,5.81,16.94,6.56,16.03,23.6,13.89,38.86,9.37,9.19,19.6,17.36,30.7,24.53,12.06.61,27.94,2.16,36.38,11.22.22-.47.53-.87.83-1.21-9.78-1.98-8.42-12.82-4.04-19.82,2.33-3.73,6.79-10.71,11.24-8.5l-.64,26.2c-.77,17.4-18.31,26.48-12.82,32.56,6.59,7.3,25.12,6.05,31.23,15.6l12.52,19.57c1.95,3.05,4.46,9.58,1.32,12.37-4.58,4.07-10.45,7.25-15.51,9.5-11.34,5.02-24.22,6.42-36.99,9.79-21.88,5.77-44.07,5.27-65.9-.18-3.93-.98-6.3-4.41-6.7-7.7-1.02-8.44,17.22-15.36,5.4-31.11-4.58-6.11-9.62-11.75-13.08-19.58l63.41,20.19c8.27,2.63,16.58,4.26,25.26,2.65-.68-4.81-4.65-6.54-8.43-8.38l-66.67-32.37c-6.31-3.07-10.68-7.39-12.61-13.94l-8.79-29.77c-5.2-17.62-8.36-35.08-15.5-52.07-5.26-12.52-11.38-25.62-21.73-34.62-5.32-4.62-14.37-.52-21.12.51-2.62-6.92-5.94-14.8-5.62-22.32l1.19-27.74c36.22,4.91,88.31,12.76,120.05,28.04l5.72,3.98Z"/>
          <path class="st4" d="M575.14,1506.14c-16.95-.82-22.07-9.83-32.11-22.91-1.43-12.34,9.93-34.49,20.77-38.99,6.58-2.74,16.89-.14,21.63,4.6l12.53,12.55,15.87,25.83c-5.14,8.41-12.86,14.15-21.79,18.14-5.63,2.52-11.61,1.03-16.89.78Z"/>
          <path class="st4" d="M589.95,1579.47l-2.89-1.24c-1.37-14.94-2.37-29.9-3.02-44.88l2.64-2.12,3.91-2.2c7.76-1.92,14.74-5.64,22.46-9.7,10.23-5.4,10.43,22.09.53,35.07l-9.01,11.81c-4.09,5.37-8.32,11.06-14.63,13.26Z"/>
          <path class="st7" d="M636.05,1795.31l-2.34.66c-.91.09-.82,1.19-.12,1.41l1.9.14c3.74,3.3,12.14,6.65,13.58,12.51.49,1.98-2.16,4.03-2.66,5.49l-25.82-2.81c-15.19-1.65-24.58,5-35.89,9.55-6.93,2.58-10.86,4.02-17.25-1.1l-22.66-32.89c-5.04-4.14-5.91-7.14-2.63-9.01l14.34-7.56c17.18-6.27,36.34-7.34,54.08-1.06-12.88,3.56-23.98,4.29-34.44,9.85,14.87-.61,34.42-5.38,38.88,5.12-8.56.79-16.44-1.54-24.54,2.55,16.4,1.16,31.58.95,45.56,7.16Z"/>
          <path class="st7" d="M635.49,1797.52l.56-2.21c.51.39.84.2,1.74.57.68.28.97,1.29,0,1.39l-2.3.25Z"/>
          <path class="st12" d="M547.87,1764.01c-5.71,6.42-10.03,12.1-5.71,15.25-.28,3.29,3.11,4.82,4.85,7.38l20.63,30.4c6.12,9.03,12.58,2.34,17.07,5.22-3.69,5.42-13.84,5.75-18.88,10.01-5.53,5.27-4.42,16.53-4.81,23.6-8.13-1.09-14.12-4.53-21.17-9.66-3.97-2.89-10.14-3.04-14.35-4.39,7.99-7.85,16.57-13.61,16.52-26.38l-8.26-10.5c-1.67-2.12-1.02-5.36-4.86-7.1-4.46-2.01-7.54-6.32-7.18-11.5l.95-13.84c7.52-6.16,15.96-8.24,25.23-8.49Z"/>
          <path class="st12" d="M320.6,1551.65c-4.74,7.91-11.17,15.6-19.44,20.04l-43.02,23.12c-3.7,1.99-8.16,1.81-11.65,1.52-10.86-.9-28.69-31.22-29.44-39.28l-3.99-42.36c-.32-3.43,1.95-7.06,3.31-9.05.48-.71,12.9-5.25,14.47-4.93,1.35.28,3.42,1.5,4.7,3.09,14.95,18.56,34.68,17.72,56.93,15.81,3.13-.27,6.46,2.47,9.1,3.34,5.28-3.13,8.99-2.08,13.21.97,5.22,3.77,11.14,5.85,15.47,11.59l-9.67,16.13Z"/>
          <path class="st10" d="M273.64,1439.72l15.83,7.47,21.6,17.21c7.57,8.14,15.15,20.52,14.8,32.22-.65,7.36-14.08,8.15-18.87,5.26-4.74-2.86-8.49-4.67-10.6-9.3l-13.37-29.36-13.9-20.49c1.15-1.37,1.97-2.56,2.23-3.67.72-.05,1.61.34,2.29.67Z"/>
          <g>
            <path class="st10" d="M261.8,1825.23c10.41-2.8,17.59,1.82,21.22,12.03,1.17,3.28,1.4,15.72-2.78,16.59-.78.84-1.6,1.64-2.52,2.28-9.82,6.81-49.58,1.52-62.53-1.22-18.66-6.17-37.42-8.95-56.19-2.08l-4.3-1.37c1.56-8.4,4.09-17.58,10.71-23.89,4.1-3.91,8.69-7.23,10.02-13.37l24.68-27.75,14.88-22.32,2.09-2.33c17.03,5.47,34.28,10.07,51.76,13.81,5.78,1.8,24.28,8.57,22.41,16.67-1.88,8.14-20.68,22.47-28.42,26.89-21.42-10.13-48.8-17.94-71.51-7.43,23.01-7.45,50.45-4.29,70.16,10.17l.32,3.33Z"/>
            <path class="st12" d="M299.32,1765.64c.58-3.64,1.84-3.43,2.75.11,5.38,1.31,5.99,4.76,5.81,9.79-.71,19.41-25.81,38.88-40.15,49.35l-5.93.35-18.68-10.4c-12.39-4.19-25.9-4.49-38.96-3.75l-20.89,5.71c8.02-17.47,42.66-13.43,62.98-7.93l16.14,7.85c9.84-6.64,19.34-14.72,26.44-24.78-4.37-8.58-12.99-11.99-21.53-13.86l-27.08-5.95-9.42-4.15-15.81-3.86-5.08-6.06c1.16-10.58,4.52-25.42,11.22-30.13,1.03,1.08,3.25,3.28,3.16,4.9-.37,6.52,4.76,10.38,6.39,15.16,3.11,9.15,7.36,13.8,16.41,16.44,5.25,1.53,10.02,3.68,16.37,4.17l24.21,1.84,10.64,2.67c1.45-2.42,1.17-5.15,1.03-7.47Z"/>
            <polygon class="st12" points="180.19 1817.28 181.12 1817.28 182.02 1817.31 181.12 1817.33 180.19 1817.33 179.29 1817.31 180.19 1817.28"/>
          </g>
          <g>
            <path class="st4" d="M355.06,1780.3c2.3,6.39,4.62,13.3,4.73,21.15l.19,29.91-28.23,6.77c-10.16,2.44-19.99,4.84-29.53,9.01-7.43,3.25-14.63,5.43-21.97,6.7.91-14.78,1.87-22.77-10.08-26.21l-8.36-2.41c7.58-4.12,13.93-9.84,20.81-15.61,13.45-11.26,29.33-32.02,19.46-43.87,5.06-5.3,19.91.54,22.1,7.79-1.63,21.96,20.08,30.34,27.85,7.6l3.04-.84Z"/>
            <path class="st13" d="M346.01,1814.08c-.37,8.1-5.83,17.81-13.93,19.89-11.9,3.05-22.58-5.68-27.81-15.25-3.11-5.7-3.33-9.6.35-14.04,3.64-4.4,8.14-4.12,13.9-1.78l27.49,11.18Z"/>
          </g>
          <path class="st12" d="M586.69,1531.23l1.92,34.4,1.34,13.83c.07.74-.35,2.11-.92,2.61-3.95,3.41-8.15,7.73-10.52,12.98-2.62,5.8-1,11.79,3.32,15.34l.97.8c1.15,1.29-.61,2.07-1.18.89l-.62-.48c-11.85-4.39-23.86-8.67-37.22-8.67-11.75-8.07-23.35-15.44-32.29-26.07-.13-8.86,2.17-17.73-.67-25.88-3.01-8.62-12.76-12.79-21.59-14.23.5-3.73,6.32-9.83,9.73-7.95l23.83,13.17c6.42,3.55,14.13,5.8,21.75,5.66l10.13-5.21,32.02-11.21Z"/>
          <g>
            <path class="st13" d="M412.76,1502.19c.82,3.32,1.46,6.09-1.53,9.97-12.45,16.15-20.65,33.7-29.19,52.27-9.49,20.65-16.81,41.43-17.72,64.62-.56,14.35-3.02,27.79-6.82,41.48-8.31,29.98,9.74,42.6,10.44,51.02.37,4.47-6.78,9.09-10.63,9.54-2.67-.65-3.99-4.94-4.49-7.06,2.12-1.02,3.5-5.13,2.77-7.08-3.38-8.97-30.22-2.72-50.43-12.46,13.14-8.8,26.27-15.96,36.16-27.68,8.87-10.52,16.31-22.03,17.27-35.08.06-.86-.9-1.98-1.49-2.34-2.1-1.3-7.39,3.71-20.63,4.81l-26.45,2.19c14.03-9.26,30.78-14.53,41.75-28.52l-77.13,13.48c24.22-7.57,72.58-23.76,87.58-44.15,1.59-2.16,2.67-6.97.24-8.72l-28.93-20.82c1.73-2.79,4.9-2.76,7.53-4,19.24-9.05,36.56-20.29,54.74-33.76-16.22-3.96-31.62-4.51-45.06-13.64l62.01-4.06Z"/>
            <rect class="st10" x="351.85" y="1616.87" width=".98" height=".98" transform="translate(-1040.4441 722.8499) rotate(-44.9999)"/>
          </g>
        </g>
        <g>
          <path class="st0" d="M754.56,961.21l3.36-1.95c9.12,3.68,17.79,8.27,26.02,13.76l1.07,3.7c2.96,2.39,2.01,6.37-1.73,7.07l-4.73,1.72c-26.32-5.92-53.83,1.92-72.83,20.49,7.02-1.95,13.76-2.54,20.25-1.77.29,5.61-1.93,11.13-6.66,16.55,0,0-1.64,4.91-4.93,14.72.41,5.4-.49,9.81-2.68,13.22,5.04,2.22,2.25,9.02,0,12.87l-8.07,4.17c-16.89,10.98-41.56,9.78-54.2-7.38-4.41-5.99-8.11-10.35-13.71-15.58-25.83-24.11-32.21-59.98-37.74-95.02l21.2-17.84c4.09-3.44,8.4-6.23,14.02-7.91,2.27,2.81,2.34,6.21,1.25,9.18l-8.6,23.4c17.57-7.41,34.03-11.59,52.7-10,18.17,1.55,35.43,5.34,52.57,11.28l23.47,5.32Z"/>
          <path class="st2" d="M656.05,1351.28c2.27,1.81,3.39,4.83,3.37,9.04,3.97,11.02,6.41,22.45,8.48,33.99,2.22,12.41,1.79,19.92-9.96,25.71-2.82,1.39-8.37,3.79-10.08.54l-22.35,5.02-44.88,4.87c-1.68-1.86-3.31-3.8-4.87-5.82-6.33-5.97-29.33-22.32-37.1-26.54-8.8-4.77-16.71-7.82-26.97-7.71-69.97-1.46-140.35-4.31-211.15-8.55-20.62.31-40.97,1.55-61.03,3.71l-3.78,40.76-2.9,1.36c.06,4.07-4.47,3.62-5.21-.27-2.75-.52-3.41-3.44-1.98-8.76-3.28-11.48-8.5-22.12-15.65-31.91,1.38-7.68.68-15.38-2.09-23.08l2.74-2.42c1.23-3.49,2.45-3.22,3.02.42,2.84-1.52,6.31-1.37,10.42.45,113.58,6.6,233.44,9.96,352.2,5.67,26.76-.97,50.01-7.51,74.5-17.47l5.3.99Z"/>
          <path class="st4" d="M673.03,1335.53c3.74,5.41-9.17,14.73-13.99,16.92l-3-1.16c-22.45,8.2-44.88,17.37-70.14,18.74-82.6,4.47-163.88,3.28-246.52.06l-103.54-4.04c-8.02-.31-15.67-1.2-22.22-4.4-1.88-2.45-1.96-6.01-.26-10.66-.69-4.11-.1-7.21,1.77-9.32l1.61-2.71,23.54.66,144.58,14.12,7.26-.92c-9.07-1.68-12.01-4.34-8.8-7.98l55.25,2.57,103.49-1.04c28.66-1.91,54.69-13.14,81.81-21.22,15.45-4.6,31.65-.37,46.27,4.41l2.88,5.98Z"/>
          <path class="st0" d="M750.2,1234.88c1.62-4.96-18.2-29.25-27.87-36.89-1.09-2.46.51-4.57,4.77-6.33l21.74-19.69c4.42-6.62,9.63-11.65,15.63-15.08l16.19,14.18c8.68,7.6,14.41,18.38,25.36,24.12-10.59-17.32-23.47-31.94-37.72-43.97l-.45-3.03c5.31-4.84,4.42-13.01,2.79-19.43-14.62-31.21,9.37-42.56,35.65-51.36,26.28-12.87,41.88-37.81,20.3-62.67l.45-3.38c-2.99-3-2.07-4.13,1.96-3.17l4.36-.19c18.1,14.14,27.71,38.12,24.66,60.92-3.45,25.71-14.28,49.51-25.78,72.51-6.32,19.64-12.61,39.14-23.57,56.88-1.18,5.33-3.19,10.57-6.46,14.97-5.73,7.72-33.06,22.85-42.74,24.46-3.07.51-9.2.99-9.27-2.88Z"/>
          <path class="st4" d="M682.31,879.36c16.05,10.61,1.71,28.76-11.08,35.18-3.65,1.83-10.46,5.15-12.18.35-5.09-1.6-3.02-10.29-.07-13.86l12.85-6.68c5.61-2.92,5.77-11.46,7.83-16.78,1.02-2.79,3.3-.6,2.65,1.79Z"/>
          <path class="st4" d="M828.99,1008.2c-.95,1.04-1.38,1.9-1.96,3.17l-4.88-.57c-11.55-8.55-23.77-16.07-36.66-22.55l-2.23-4.46c.09-2.44.69-4.66,1.73-7.07.6-.89,1.73-2.11,2.31-1.77,14.39,8.51,29.82,19.63,42.6,30.16l-.92,3.08Z"/>
          <path class="st2" d="M234.34,1066.38c1.08.11,2.71.45,2.77,1.19,1.2,17.22,1.19,47.34-1.84,63.1l-3.39,4.64c-.96,1.98-2.58,4.34-4.76,2.38l-2.22,4.52c-8.77,6.07-16.43,12.94-23,20.63.51,10.93-.61,21.15-3.8,31.65l-.88,23.41c1.83-1.6,4-2.37,6.53-2.3,2.19-2.54,4.4-4.04,6.65-4.49,3.02,10.24,4.52,15.36,4.52,15.36,2.9,2.32,4.05,4.7,3.44,7.14,3.3,1.77,3.3,4.04-.44,5.17-7.29,17.99-11.47,36.56-12.54,55.71l-2.4,3.64c-2.21,1.77-5.22.4-9.02-4.11-2.93.07-5.25-.55-6.96-1.85-3.55,1.76-4.49,1.17-2.98-2.61-1.24.35-2.78.35-3.34-.7-5.54-16.96-11.85-21.26-29.8-16.28-25.39,7.05-44.37,22.59-55.92,46.07,0,0-1.03-.32-3.08-.97-.31-.52-1.27-1.5-1.96-1.61-10.12-6.66-9.37-20.98-.68-28.59,24.09-21.11,59.24-39.32,91.23-33.96,2.74-10.48,1.93-19.49-2.44-27.05-11.11-1.99-22.69-1.87-34.75.37l-3.97-2.42-3.09,3.08c-28.83,3.29-60.78,13.25-75.71,40.18l-3.97,1.83-1.38-8.24c-.12-2.2.42-3.57,1.61-4.13,10.41-27.96,42.44-40.58,70.49-43.08l3.54,2.73c14.76-3.29,30.55-3.7,47.36-1.22-3.83-13.36-4.22-27.24-1.17-41.64-1.43-10.38-10.11-16.1-18.54-21.03-12.04-4.89-22.68-11.54-31.9-19.95-2.54-.25-5.41-1.26-8.59-3.02-14.7,3.01-27.21-1.43-39.22-10.22-4.29-3.14-15.52-11.88-10.97-16.59,2.57-2.39,6.34-3.14,11.3-2.23,22.83-2.03,53.42-3.57,58.94,24.5,8.79,4.67,19.02,6.89,30.68,6.66,11.5,2.92,22.88,4.84,34.14,5.76l1.26-1.4c5.45-42.63,12.79-84.82,22.04-126.55l3.13-1.34c-.85-7.01.64-24.52,4.39-30.28.52-.8,2.31-.41,3.53-.07.78,1.59,1.5,3.2,2.03,4.87s1.03,3.28,1.07,4.91c.55,20.76.81,43.42-1.8,63.97-.41,3.24-.86,6.61-1.75,9.74-.47,1.66-1.36,3.21-2.36,4.72Z"/>
          <path class="st10" d="M216.49,933.8c4.06.75,2.66,4.08.74,7.04-7.03,5.3-13.52,11.17-19.49,17.61-32.38,36.16-64.24,72.5-95.58,109.04-13.07,10.39-26.43,20.33-40.08,29.83-4.27,7.81-7.34,16.46-9.19,25.95l-3.19,1.08,1.8,4.02c-1.8,9.57-2.59,19.24-2.36,29.01l-2.82,3.44,2.76,4.44c1.82,18.17,4.6,36.25,8.34,54.24.98,8.3,3.08,28.35.76,35.25-.29.86-.83,1.64-1.44,2.39.1,1.45-.43,2.92-1.61,4.13l-14.86-63.84c-5.85-25.14-1.92-51.37,1.57-76.72,1.92-13.93,9.61-24.97,19.86-33.93,14.24-12.44,26.99-24.95,39.43-39.14l35.47-40.46c16.95-19.33,33.27-38.08,49.13-58.28l6.15-6.27,10.2-6.25c5.08-3.11,9.61-2.48,14.39-2.57Z"/>
          <path class="st0" d="M184,1289.55c-1.14,2.01-2.7,3.59-4.73,4.68-22.12,11.82-38.83,20.87-57.67,38.09-7.79,7.12-8.4,16.77-8.33,26.66l-1.54,1.61c-1.81.05-6.44-.28-7.24-2.82l-12.64-40.1c2.9-2.21,4.3-5.29,5.88-8.65,7.23-15.29,20.18-25.18,35.57-32.28,11.42-5.27,25.11-11.69,37.64-7.35,7.44,3.18,10.18,14.22,13.05,20.16Z"/>
          <path class="st12" d="M139.29,1224.42c3.58.59,6.34,3.1,8.28,7.53,11.24,1.09,7.58,6.18-.79,8.95-15.14,9.89-30.61,19.31-46.4,28.27-12.76,8.06-24.11,20.8-24.06,36.66l-2.64,2.62c-15.48-11.6-14.81-24.77-17.17-38.94,13.83-30.28,50.72-42.23,82.78-45.08Z"/>
          <path class="st4" d="M89.9,1316.06c-6.23-.98-11.47-4.07-16.22-7.62-1.52-18.3,11.4-33.53,27.5-43l33.84-19.91c6.47-3.81,11.02-9.05,18.64-10.06l-8.51-1.04c-1.44-3.85-3.68-6.66-5.86-10.01l21.43-1.91c6.18-.55,18.1-2.26,21.62,4.83,4.61,9.29.54,21.42.64,31.11-7.52-3.1-13.2-4.48-20.52-3.23-26.15,4.45-51.43,15.78-70.67,33.61-6.08,5.63-8.64,13.38-4.74,20.18,1.45,2.53,2.82,4.57,2.84,7.06Z"/>
          <g>
            <path class="st6" d="M202.96,1298.12c3.83,1.31,6.78,11.38,5.31,14.98,2.85,2.87,4.39,6.96,4.62,12.29l3.78,12.25-1.52,4.02c2.27,6.48.69,13.71-1.51,19.98l-3.02-.42c-.97.73-2.54,1.63-3.13,1.06-14.99-18.62-42.87-42.54-19.49,4.75,8.7,11.83,18.18,22.96,28.44,33.39,10.61,11.21,11.08,36.8-9.82,27.5l-20.13-22.27-3.72-1.45c-2.19-4.8-5.18-8.68-8.95-11.63l-24.07,13.88c-7.97,2.97-16.48-.2-23.29-4.5-1.47-1.99-4.46-3.25-5.8-6.93-3.1-8.52-7.52-18.2-6.79-26.99-2.08-10.41.41-18.2,5.8-26.98,10.29-16.74,45.88-39.97,64.55-49.47,1.01-.51,1.9-.32,2.76.58,2.23-1.46,6.67-2.16,9.11.06l6.87,5.91Z"/>
            <path class="st8" d="M210.61,1361.22c-.71,6.23,5.5,13.17,1.87,24.94,7.16,9.87,13.24,20.22,15.86,32.2l-.74,9.03c-3.5,3.81-8.5,6.59-13.79,5.43-2.86-.63-5.36-2.88-7.2-4.91,5.95,1.38,14.56-.71,14.51-8.49-.04-7.03-4.02-14.39-8.61-19.35l-14.63-15.81c-10.6-11.46-19.34-24.68-21.56-40.52-.32-2.31.41-5.29,1.66-6.21,9.2-6.74,30.36,23.38,32.63,23.69Z"/>
            <path class="st8" d="M186.98,1292.16l-27.36,18c-23.85,15.69-43.31,28.13-45.76,57.86l-2.12-7.44c-2.83-12.47.06-23.37,9.82-32.03,18.69-16.58,39.33-30.06,62.44-39.01l2.98,2.61Z"/>
            <path class="st8" d="M186.48,1405.65c-19.49,8.48-48.97,11.27-60.03-3.7,7.22.56,14.85,4.64,22.19,1.99l26.27-15.19c5.15,5.39,9.07,11.03,11.57,16.9Z"/>
          </g>
          <path class="st2" d="M301.58,852.69c.39,1.91,1.73,2.73,3.59,3.72l25.12,13.42c3.25,4.26-6.75,16.64-11.7,12.93-4.02,1.33-8.6-2.08-12.5-3.81l-66.71-29.71c-9.68-4.31-19.18-7.44-27.47-13.18l1-2.86c14.73-1.67,29.41-2.7,44.04-3.08,14.33,8.34,29.08,16.99,44.62,22.57Z"/>
          <path class="st12" d="M380.58,1044.58c3.49,2.82-.42,7.28-4.02,4.63-1.67,2.76-3.17,2.86-5.19.42-1.88-15.72-6.63-29.68-14.24-41.87l-3.5,1.41c-20.88-9.68-24.21,12.52-26.47,27.78l-10.1,107.91,1.25,3.77c3.23,1.94,4.91,4.22,5.02,6.83,6.41,1.84,13.34-1.03,16.66-6.71,2.88-17.6,5.24-35.27,7.08-53.01.6-2.93,2.13-3.47,4.63-1.73.54-.35,1.1-.64,1.68-.74.96-.17,10.6,14.47,11.07,15.51l-.85,3.19c8.4,3.34,15.89.65,22.46-8.09,2.61-.55,4.05.45,4.46,3.04-1.07,9.19-1.11,18.22-.12,27.09,3.68.05,3.66,1.3.28,2.68.03,2.15.13,4.16.31,6.04,19.22,24.91,51.1,22.46,79.91,18.09l4.63,2.13c.57-4.04,8.99-5.02,12.85-5.21,12.64-.64,15.77,6.47,19.57,17.33-1.88,7.31-4.57,14.38-8.08,21.2,2.73,3.42,6.91,4.81,12.56,4.18,16.5-2.55,24.75-3.82,24.75-3.82,2.65,9.71,5.53,19.41,8.62,29.1l-2.41,2.23c8.6,20.46,10.05,55.4-5.47,73.35-19.19,22.19-59.71,26.32-87.25,21.27-22.25-7.23-45.14-12.41-68.67-15.54-13.13.52-26.04,3.24-38.72,8.18-33.2,7.67-70.56,6.45-100.73-10.28l-2.1-4.57,4.73-9.34,35.23-59.85,23.38-46.01c.54-1.06-4.38-2.92-4.84-1.92l-11.02,23.61-42.26,72.04-9.31,18.44c-2.65,3.4-4.94,2.12-3.42-1.9-2.59-2.97-2.69-6.85-.3-11.64,8.48-17.3,18.13-33.91,28.93-49.81.57-1.02,8.08-16.21,7.61-15.48-14.73,22.78-28.99,46.78-39.86,71.65l-3.29.62c-1.22,3.44-6.45.73-8.11-1.39-7.96-10.15-5.73-39.08-.05-50.6.15-1.63-.26-3.66.44-5.17l-1.69-2.93,11.78-25.67,3.32-.63,29.52-73.63,9.42-34.94c9.59-44.06,16.46-87.67,21.95-132.5l1.11-19.48c1.03-1.6,2.49-1.41,4.39.55,14.67,15.06,31.07,28.13,49.18,39.22,6.14,5.07,22.77,21.01,27.29,27.22,6.4,8.78,9.66,23.54,5.96,33.76Z"/>
          <path class="st4" d="M396.99,974.19c1.09,1.07,2.52,1.46,4.31,1.2,1.29.27,3.04-.36,4.23-.42.49,2.33,2.36,2.29,4.18,2.69,15.47,3.36,29.74.44,45.56.65,18.05.24,37.78,4.45,53.33,14.11,13.69,8.51,18.96,27.07,17.67,41.85l-2.15,27.05-2.03,2.3c-7.79.79-13.32,5.94-16.59,15.44-3.95,3.19-7.17.37-9.67-8.43-7.91-13.97-11.2-7.78-14.6,4.77l-2.45,42.39-2.85,1.84-5.1.9-2.09-2.9c4.62-14.31,5.22-53.12-17.27-50.81-20.75,2.13-26.19,42.07-21.75,58.52,4.92,18.23,20.12,23.79,32.26,8.21l3.13.28c3.37,1.04,4.41,3.55,6.44,5.98l4.49,2.24c1.53.76.68,4.8-.64,6.63-4.55,6.31.7,8.71.17,14.29-16.97,2.42-34.04,4.79-51.58,2.15-14.32-2.15-27.91-9.52-32.95-22.37-.18-2.64.87-2.75,2.09-.35,1.02-.45,2.2-.67,3.12,0,23.05,16.9,24.06-15.21,22.63-31.75,2.25-29.35,6.07-58.37,11.46-87.07-4.33-16.86-16.61-16.59-27.48-4.64l-18.85,25.66h-3.4c-2.19-10.92-.1-20.52-8.1-32.05l-17.85-17.83c-14.23-17.23-31.07-19.53-52.74-42.56l-8.14-8.33c.05-.95.13-3.62,1.15-3.83l22.55,10.37c18.52,8.52,36.88,14.53,56.8,19.03,7.89,1.78,14.78,6.21,22.74,4.79Z"/>
          <path class="st12" d="M783.27,983.79c14.86,8.68,31.01,16.01,43.77,27.57,6.11,5.54,11.25,13.87,12.06,22.43,1.51,15.97-6.36,30.07-19.18,39.05-10.96,7.68-23.49,11.41-35.4,16.64-13.95,6.13-18.9,19.39-13.15,33.02,4.57,10.82,4.97,23.94-3.09,28.73l-28.96-20.1-27.15-12.79c-5.72-2.7-9.42-6.22-10.27-11.48-2.26-13.98,13.21-17.33,21.82-29.56-4.51-1.81-8.67-1.99-11.68-5.28,3.54-6.24,9.81-9.28,16.38-10.88,18.48-4.51,36.91-5.71,55.87-7.59,13.36-1.33,26.06-2.85,37.85-8.99-14.15,2.03-27.07,2.09-40.58-3.44,6.16-11.58,21.04-15.39,19.55-20.78-1.63-5.88-23.43,4.38-36.02,16.83-4.64,4.59-9.44,8.66-15.91,9.2l1.16-10.03c2.69-.96,11.39-33.7,9.68-33.3-.63.15-3.88,1.52-4.22,1.74-5.1,3.38-10.12,9.15-14.17,13.88-6.38,7.44-11.75,15.58-16.76,23.96-2.76,3.76-9.2,10.71-13.18,6.11-1.51-9.42.11-19.44,4.79-28.52,2.47-4.8,6.56-8.97,8.07-14.74l-27.24,4.83c12.61-14.95,29.49-23.34,47.17-28.18,13.49-2.02,26.33-1.56,38.79,1.68Z"/>
          <path class="st4" d="M600.34,1314.84c-14.82.77-59,21.33-106.56,26.31-21.76,2.28-42.49.33-64.15-1.04l-119.3-7.56c-13.23-.84-25.14-3.26-37.2-8.3-12.45-5.2-24.93-8.47-38.96-9.53.94-5.92,4.1-10.02,6.31-14.38,14.52,9.59,30.39,13.69,47.76,15.57,23.12,2.51,45.14.51,67.06-7.23,17.79-6.28,35.63-5.39,53.76-.41l42.18,11.58c23.19,4.15,46.11,1.98,67.29-7.7,35.48-16.21,29.18-51.7,24.88-84.21,2.17-.31,2.65,1.2,3.42,3.25,4.17,11.07,10.3,20.33,16.94,29.95l30.95,44.86c2.07,2.99,5.48,4.87,5.61,8.82Z"/>
          <path class="st0" d="M635.78,1236.36c-3.91,2.66-6.85-.81-8.81-10.41l-3.12-10.99c-6-39.23-13.51-78.51-22.55-117.83-12.35-35.77-25.88-70.69-40.57-104.79l-8.72-30.79,2.11-2.67c4.42-4.69,5.77-8.82,12.99-6.92,6.53,1.73,12.89,19.46,14.85,30.33,1.51,8.42,5.74,15.22,8.6,23.1l12.49,34.47c9.37,20.25,16.81,40.36,24.06,61.45,3.58,10.43,8.08,19.98,6.84,31.31l-4.82,44.19c-1,9.17-3.4,18.5-1.24,27.33l7.9,32.19Z"/>
          <path class="st12" d="M554.11,958.88l9.21,32.55,26.8,65.5c11.77,28.76,19.84,57.55,24.8,88.24l9.37,57.96c1.73,10.69,4.4,20.53,8.41,30.45.73,1.81,1.33,2.73,3.08,2.77l2.9,5.41c2.78,5.19-9.1,10.29-10.48,4.3l-9.2-18.25c-7.21-19.6-10.66-39.72-13.88-60.52l-7.97-51.35c-6.41-23.81-15.66-45.66-25.56-68.11l-11.85-26.87-19.79-43.03c-3.29-7.16-.86-16.56,2.58-23.78,1.72-3.62,6.77-5.58,9.28-2.46,1.49,1.85,1.79,5.31,2.32,7.18Z"/>
          <path class="st12" d="M764.46,1156.9c-10.01,14.13-21.69,26.6-35.76,37.02l-6.37,4.08-10.2-8.06c-14.11-11.15-25.61-25.11-29.35-43.89-2.04-10.28,7.83-23.08,17.58-25.58,21.05,6.3,39.54,17.13,57.05,29.58l7.05,6.85Z"/>
          <path class="st12" d="M224.55,1317.57l5.87,2.64c17.99,1.88,33.36,8.98,50.43,14.19,22.45,6.84,45.73,6.9,69.03,8.35l33.45,2.09c-.45,4.74,9.23,3.25,16.46,8.81-8.19,3.73-16.16,3.03-24.95,2.15l-134.71-13.43-24.99-.7c-3.29-9.37-6.5-18.54-6.88-28.56,2.34-3.92,15.85-.01,16.29,4.47Z"/>
          <path class="st13" d="M406.89,914.88c3.33,1.3,5.88,4.16,10.49,4.51,2.46.19,4.91,1.62,6.72,2.56-.7,7.38.11,15.06-3.6,21.82-4.68,2.59-9.62,5.61-15.15,5.42-4.59-6.19-9.54-11.78-14.89-17.09-8.29-8.22-17.9-15.43-28.22-21.24l-2.04-3.03c14.27-18.63,33.97-5.84,46.7,7.04Z"/>
          <path class="st4" d="M217.9,1238.78l-1.57,16.56c-.99,10.46-1.38,20.98,2.63,30.71,1.24,3,5.19,3.44,7.1,4.73,2.9-3.53,7.16.79,6.91,4.65.78.53,1.61,1.67,3.42,1.9-2.37,4.7-1.91,12.14-7.32,16.17-1.28.95-5.35.76-4.52,4.08l-16.29-4.47c-3.35-4.08-4.62-9.75-5.31-14.98-1.58-12,.66-24.41,4.8-36.35l7.11-20.5c.61-1.75,1.71-2.54,3.04-2.49Z"/>
          <g>
            <path class="st2" d="M639.76,853.62c2.06,2.63,2.82,6.25,2.27,10.87.64,3.53,9.74,28.85,11.08,29.71.41.26.93.37,1.48.42-.83-6.43,2.83-17.35,9.85-16.45,3.62-3.52,11.99-7.13,15.23-2.45,2.48-.07,2.53,1.17-.02,1.86,3.79,6.67-1.11,14.33-6.39,19.12-2.11,1.92-12.26,7.42-14.29,4.33-1.43,5.31-5.67,8.93-12.72,10.89l-1.17,2.98c35.62,8.01,72.86,20.35,104.59,40.05,1.04.65,1.87,1.66,2.7,2.72s1.53,2.3,2.18,3.54l-2.11,2.35-22.13-5.03c-33.3-11.32-68.79-17.43-101.58-2.17-3.09.68-4.31-1.02-5.1-3.83l8.46-23.11c.37-.94.36-3.96-.29-4.03-3.11-.37-26.92,19.41-30.57,23.22-3.41,3.55,12.24,55.87,16.59,64.82,6.77,13.89,15.82,24.14,26.83,34.61,15.27,25.62,40.71,27.79,64.18,11.91l2.82,1.65c1.25-4.24,4.13-7.98,8.63-11.22,10.56-14.26,21.01-28.43,31.35-42.49,3.94-3.62,6.07-5.25,7.87.56.63,2.04-6.86,25.33-9.19,27.91,2.57.04,3.25,2.11,2.06,6.21,6.15-2.96,11.85-7.26,17.1-12.9,6.11-4.46,28.4-20.4,34.05-10.38,1.57,2.79-1.3,6.69-3.72,8.4-1.86,1.12-14.75,10.95-14.13,12.06,1.7,3.01,27.82,4.09,32.74,2.54,3.91.34,6.12,1.23,3.83,4.49-3.27,4.64-21.03,7.47-27.29,8.37-19.26,1.91-38.53,3.83-57.71,6.9-7.76,1.24-16.32,3.11-21.46,9.31,10.63,2.85,12.54,7.1,5.74,12.75l-11.53,9.88c-7.74,7.73-8.09,15.08,1.81,21.11,19.8,8.85,39.45,18.95,56.37,32.74l.08,3.41c1.14.05,2.27.16,3.35.45,6.92,1.86,23.15,22.38,28.25,29.41,8.4,9.76,9.22,14.83,2.48,15.2,0,0-12.76-12.02-38.28-36.06l.38-3.33-2.96.97c-16.59-15.28-39.52-27.96-61.32-34.74-4.01-1.25-14.8,13.19-14.84,18.68-.16,21.4,21.17,41.2,37.25,52.88l-.26,3.31c1.86-.9,2.37-.87,4.01-.21,4.27,1.7,25.35,28.44,26.15,33.59.31,1.96-.05,2.57-2.3,3.51,5.09,6.63-9.17,12.67-15.26,13.04-6.56,7.54-12.29,15.54-17.21,24.02-.84,14.24-10.03,24.34-21.68,31.58,6.1,14.24,2.23,31.54-16.3,24.05-.85,5.04-3.09,7.69-6.71,7.95-2.97,1.15-4.31-1.26-4.51-3.95-14.71-5.47-29.33-6.73-43.88-3.79-22.69,8.15-45.78,14.76-69.28,19.82-38.67,2.2-78.18,3.12-116.82,2.54-13.5-.2-30.51-.48-43.76-2.07-3-.36-7.01-1.07-9.89-1.88-.75-.21-1.28-.59-1.56-1.37-.35,1.06-.94,2.67-1.75,2.65-32.67-.56-69.11-3.37-101.52-10.45-16.37-6.38-33.14-11.1-50.3-14.17-3.83-.81-5.57-2.57-5.21-5.29-3.96-1.65-2.51-4.22,4.36-7.71,1.95-3.47,3.29-7.22,4.01-11.25l3.48-1.28-1.46-1.19c15.18-30.94,32.04-61.13,50.6-90.58l10.75-22.93c3.91-3.54,8.37-2.86,9.99,2.25,1.85,5.84-52.14,96.7-58.66,107.48-1.51,5.14-3.89,7.81-7.14,8l1.65,2.77-4.43,8.79,19.39,3.92c17.38,7.41,35.19,12.07,53.43,13.97l148.37,9.33c48.66,1.01,88.71-10.93,133.8-25.8,3.94-1.66,6.49-1.16,7.65,1.5l2.18-2.93c14.49-1.27,18.88-5.08,13.17-11.43-16.93-23.93-33.25-48.48-48.95-73.65-3.35-4.95-16.8-29.3-12.12-32.75.69-.51,1.86-.36,3.18-.02,13.65,7.95,25.91,17.82,36.79,29.6-10.2-65.2-24.11-133.17-38.51-199.45-.65-2.98.71-4.32,3.65-3.25,1.04-.33,2.69-.65,3.02,0,14.41,29.36,27.18,62.45,37.08,94.36,4.42,32.36,10.18,64.91,17.27,97.65,3.02,10.65,7.26,20.7,12.72,30.16l-1.61,2.93c1.04.85,2,2.32,1.32,3.26-4.3,3.46-7,7.48-8.12,12.08l3.73,23.54c10.64,4.34,20.64,9.97,29.99,16.87,17.98,14.92,36.41-7.32,46.96-21.25,3.96-5.22,6.95-10.74,4.49-17.31-22.77-23.79-46.52-47.13-71.15-68.79.13,10.64,3.83,20.78,11.1,30.43,3.99,6.32-.44,21.79-7.83,16.88-3.68,1.74-5.82-2.83-2.9-5.41-6.04-13.91-11.29-32.4-11.01-47.85,3.15-21.4,5.25-42.84,6.32-64.33l-1.74-7.93c-15.5-42.35-31.46-84.16-47.86-125.43-1.97-14.44-7.05-26.53-15.24-36.25-3.48-.9-6.3.54-8.46,4.33l-3.67-.02h-1.9c-6.02-16-10.76,4.8-11.03,12.68,1,2.83.58,4.96-1.24,6.38,1.16,2.98,1.37,3.86-1.96,3.89-8.95-4.97-18.28-8.02-27.98-9.13l-84.48,3.94c-6.98.58-13.64.02-19.98-1.67.26,4.04-3.11,4.33-4.23.42-1.62.48-3.58.44-4.31-1.2l-1.61,2.98c-33.65-5.89-68.44-17.94-98.89-33.77l-2.73.44c2.54,5.83,3.09,12.42,1.63,19.75-3.18,27.25-7.45,54.34-11.95,81.4-9.74,58.62-24.61,106.27-48.51,158.88l-3.18.51c-3.29,1.75-4.01.49-3.98-3.01,22.92-76.68,34.38-115.02,34.38-115.02,11.87-47.95,18.47-96.05,19.81-144.29-.21-6.97-4.06-12.48-11.54-16.52-.11,4.2-10,2.34-9.99-1.77-2.72-3-.48-4.99,6.7-5.98l4.22-2.73c14.5,3.56,28,10.02,40.48,19.38,2.21,2.66,47.93,19.66,47.68,17.14-.58-5.75-78.79-40.9-89.51-44.86-22.76-8.4-45.69-14.36-70.02-15.69-3.89-1.03-3.52-2.68-1.9-5.77,1.26-2.39,32.71.52,36.18,1.27,44.33,9.58,84.78,29.39,123.36,52.78,8.82,4.82,17.83,9.15,27.05,13,13.3,5.02,14.66-.75,4.08-17.29l1.71-2.89c7.43,1.27,14.63,9.55,14.89,17.09,2.86,2.34,1.89,4.3-.47,6.66-3.22.73-10.61,11.26-4.22,10.31,20.69-3.09,38.81-6.77,59.03-12.34.48-.13-8.39,2.95-7.69-2.65.47-3.78,6.22-6.48,8.62-2.81,3.16-3.22,7.38-5.41,12.65-6.55,13.07-3.39,25.91-6.88,38.52-10.47l4.55-3.46c32.98-5.64,70.11-12.42,98.84-30.42-47.79,9.33-95.82,18.69-144.09,28.1-15.18,3.99-29.65,10.8-43.81,17.71l-6.78.49-1.66-2.88c1.74-5.54,2.53-11.28,2.36-17.2l2.9-1.75,1.38-3.86c10.57-3.61,21.28-6.95,32.12-10.03,20.36-8.99,40.69-17.36,60.99-25.12l8.34-1.17,52.08-7.01c22.19-2.99,41.84-10.74,60.74-21.16Z"/>
            <g>
              <path class="st0" d="M659.05,914.88c-1.14,4.8-10.16,1.5-13.96.01-.42-.81-1.92-1.61-2.11-2.5-.78-3.75,8.91-4.36,15.99-11.37l.07,13.86Z"/>
              <path class="st4" d="M511.79,931.36c-9.64,3.51-19.88,5.89-30.71,7.14-7.63,2.36-14.45,5.65-20.46,9.88-2.41.7-5.4,1.42-7.33,3.85l55.8-9.7-35.9,9.75c-23.55,8.02-46.98,13.8-71.8,16.6-3.43.39-6.12-2.69-6.18-5.11-.17-5.87,9.32-8.09,10.13-14.57.82-2.3,2.98-3.65,6.47-4.06,3.61-2.62,6.5-3.07,8.68-1.36,11.89-6.56,24.13-11.79,37.09-16.87,14.85-5.82,28.86-6.7,44.4-9.84l94.67-19.13c9.63-1.95,18.13-4.4,28.65-3.76-31.58,22.34-76.68,31.91-113.53,37.17Z"/>
              <path class="st4" d="M695.27,1226.19l-38.45-24.92c-4.49-2.91-6.32-8.34-4.9-13.45,3.14-11.33,11.65-19.13,22.3-23.64,14.13,6.02,24.12,16.32,31.56,29.38,2.4,4.21,5.6,7.97,4.42,13.37-2.95,7.36-7.21,13.36-14.94,19.25Z"/>
              <path class="st4" d="M750.34,1036.34l6.86-30.08c-3.06,1.07-5.36,4.36-7.4,7.43l-13.2,19.83c-7.21,10.83-14.67,20.91-24.92,28.07-2.55-2.21.93-7.05,0-12.87,4.42-.81,9.09-4.48,11.8-9.04,8.98-15.08,19.2-29.24,34.39-38.59,10.58-6.52,2.83,16.61-4.3,32.89-.72,1.64-1.89,2.32-3.23,2.35Z"/>
              <path class="st11" d="M685.73,1102.32c3.51,1.91-2.16,10.09-16.66,10.91l-.78-20.4,17.43,9.49Z"/>
              <path class="st0" d="M511.79,931.36c.08.57-.02,1.46-.36,1.85-.5.58-1.31.74-2.41,1.06l-48.39,14.11c-.14-3.44,1.96-4.98,5.25-6.38l14.52-6.16,31.4-4.49Z"/>
              <path class="st0" d="M401.3,975.38c-.53.54-1.36,1.38-2.15,1.5-1.68.26-2.5-1.08-2.16-2.69,1.37-.24,3.53-.21,4.31,1.2Z"/>
            </g>
          </g>
          <path class="st0" d="M580.62,1430.45c-40.75,4.42-81.95,5.63-123.5,3.4l-39.19-2.1h-8.53s-85.3-2.1-85.3-2.1l-70.19.31-21.1-2.31,4.25-45.87c5.43.53,10.1.79,15.2.1,26.26-3.55,51.71-3.3,78.2-1.82l117.66,6.54,62.11.97c11.37.18,22.09,2.55,31.18,9.07l36.06,25.84c2.88,2.06,4.02,4.88,3.15,7.97Z"/>
          <path class="st4" d="M229.23,1008.53l-9.64,42.95-12.06,83.01c-.7,4.83-4.31,7.53-8.91,6.55l-20.59-4.35c-9.09-1.92-16.85-3.34-26.62-3.59-4.97-.13-14.99-2.57-16.63-7.96-2.43-7.99-3.97-13.55-12.27-17.49-20.13-9.54-35.62-1.98-54.78-4.52-.33-.87-1.94-1.48-1.39-2.81,1.64-3.99,8.77-4.56,16.48-4.11,32.48,1.9,64.41-4.92,92.23-21.38,11.25-6.66,20.1-14.91,26.13-26.49,13.92-26.74,22.3-58.64,7.85-86.74,7.08.07,9.61,4.7,11.15,10.25,3.14,11.32,7.03,21.96,7.39,33.99.05,1.58.46,2.55,1.66,2.68Z"/>
          <path class="st4" d="M130.77,1216.79c-.77-4.01,7.08-2.31,14.24-8.08,1.71-1.38,2.03-4.12,1.16-6.07-1.97-4.41-22-11.34-23.91-27.54-1.24-10.57,16.58-16.45,17.39-23.92.75-6.84-9.1-10.17-13.14-18.23,18.77,13.13,50.77,19.24,53.19,40.89l-2.36,24.36c-.65,6.67,4.77,12.73,3.29,20.51-11.98-1.75-23.77-1.36-35.8-1.63l-14.06-.32Z"/>
          <path class="st12" d="M227.11,1137.69c.62,4.13-.58,8.6-2.58,12.69-11.91,24.35-6.98,42.24-20.79,65.22-2.04,3.39-5.15,6.03-9.52,8.39l1.15-29.9c1.99-9.13,5.01-17.34,3.48-27.1-.63-3.99,1.23-8.14,4.19-10.57l14.45-11.84c3.04-2.49,6.84-5.76,9.62-6.89Z"/>
          <path class="st10" d="M406.89,914.88c-13.15-5.13-24.15-21.35-41.09-9.37-1.89,1.34-3.33,2.75-3.56,5.36l-41.38-23.3c-1.09-.61-2.93-1.35-3.2-2.35-.16-.6.44-1.61.92-2.46,5.07-1.68,8.34-8.1,11.7-12.93,2.07,1.33,6.27,1.51,9.46,3.06l47.35,22.94c8.55,4.14,14.81,11.71,19.79,19.06Z"/>
          <g>
            <path class="st4" d="M190.94,833.1c3.18-3.46,7.59,2.47,7.29,6.06,1.72.03,2.87-.94,3.45-2.91l1.99.06c-.02-4.1,7.14-4.21,8.25-.25l8.43,1.81c32.12,14.3,64.17,28.46,96.14,42.45l2.1,2.44c14.28,8.48,28.81,16.78,43.59,24.91l.07,3.2c6.71-1.54,26.32,13.12,27.8,18.27.27.95.37,1.95.42,2.97l7.98,17.4c.93,1.88.51,5.52-1.76,6.06-6.93,1.64-13.98-.47-20.18-3.62l-20.23-10.25c-40.25-24.32-90.14-49.1-136.96-54.79l-22.27,1.16c20.02,1.17,39.23,4.49,58.87,10.74,16.47,5.24,31.46,12.1,47.34,18.73,11.27,4.71,21.53,10.1,32.02,16.29,11.68,6.9,23.83,12.27,33.65,22.25-12.7-.98-23.14-5.46-34.38-8.97-11.18-3.49-21.33-7.95-31-14.68-9.81-6.22-20.34-12.29-31.62-14.91-5.12,5.84-11.39,2.39-11.49,6.25-.13.65-.32,1.27-.67,1.75-1.26,1.72-38.35,11.25-40.93,10.92l-2.33-2.65-2.7,2.76c-6.83.13-13.14,2.63-18.93,7.48l-2.96-1.42c-2.64-15.25-7.39-26.48-2.18-44.54-12.74-9.47-22.36-21.37-27.82-35.99-5.5-14.7,12.06-26.55,29.06-28.99Z"/>
            <path class="st12" d="M383.39,952.36l-30.73-17.93-58.87-36.25c-20.95-12.9-43.5-21.66-66.78-29.63-11.75-4.03-23.27-5.88-35.5-7.17-9.69-1.03-18.64-6.12-17.41-10.51.41-1.45,2.33-2.77,4.32-3.2,23.82-5.14,63.29,8.23,88.23,18.12,33.57,13.3,96.48,48.37,115.85,75.97,2.04,2.91,3.43,6.48.89,10.6Z"/>
            <path class="st2" d="M257.04,911.77c-21.01-1.72-36.04,6.5-52.74,6.86-1.56-2.02,1.37-5.71,3.91-6.82,17.6-7.66,31.7-8.69,48.83-.05Z"/>
          </g>
          <path class="st10" d="M232.97,1295.42l-6.91-4.65,9.71-21.91,31.42-52.36,16.81-32.86c.72-1.4,1.64-2.14,2.43-2.49s1.78.02,1.93.55.66,2.81.3,3.54l-24.66,50.1-21.71,34.76c-4.99,7.98-8.42,16.39-9.31,25.32Z"/>
          <g>
            <path class="st11" d="M357.14,1007.77c7.43,11.4,11.86,24.4,13.29,39.02,1.26,4.66,2.21,5.56,2.84,2.7l3.29-.27c2.31-1.27,2.76-2.91,4.02-4.63l17.56-24.11c4.32-5.94,10.39-12.49,18.47-12.85,10.73-.47,18.46,11.15,16.18,21.62-7.04,32.45-11.79,70.25-11.83,103.38,0,6.04-2.86,13.12-8.06,15.72-7.13,3.57-17.17.19-19.79-5.96-2.04-.3-3.45-4-2.41-5.69l-.28-2.68c-1.21-17.06-.19-34.26,3.06-51.61l-15.56,24.63c-3.97,4.95-7.92,9.48-14.31,4.94-3.02-3.39-6.1-6.56-8.72-11.69l-3.19-6.26c-2.52.61-3.96-1.01-4.35-4.85l-5.85,48.46c-2.19,10.5-4.51,21.32-18.17,17.84-4.76-2.52-9.61-5.15-8.96-11.91l2.43-25.07,7.39-79.56c1.51-16.25,4.37-31.7,18.43-34.83,6.23-1.39,9.74,1.64,14.49,3.66Z"/>
            <path class="st4" d="M351.71,1094.02c-.91.38-1.82,1.09-1.96,2.35l-3.61,30.7-2.67,19.51c-.66,4.82-4.11,8.21-7.47,9.7-5.12,2.27-8.94,1.15-12.65-.82,10.48.48,14.26-8.16,15.7-20.22l7.14-59.52,5.53,18.29Z"/>
            <path class="st4" d="M390.43,1134.01c-.64.14-1.49-.4-1.52-1.41l-.73-27.16c-5.25,4.89-8.68,9.46-14.26,10.77-5.72,1.34-7.8-1.43-10.29-4.23,5.21.36,9.33-2.22,12-6.46l22.38-35.44-7.58,54.38v9.55Z"/>
            <path class="st4" d="M376.57,1049.21l-5.03,9.19c-5.88-16.06-6.07-33.74-14.4-50.64,9.3,3.96,12.89,23.44,15.24,37.59.45,2.7,2.09,4,4.18,3.85Z"/>
            <path class="st9" d="M393.11,1142.39l-2.09.35-1.65-3.19c-.58-1.12.15-2.37,1.34-2.84l2.41,5.69Z"/>
          </g>
          <g>
            <path class="st12" d="M260.42,923.77l9.99,1.77c3.1,1.47,7.57,5.97,8.04,9.41,1.93,14.05.72,28.36-1.38,42.31-9.14,66.62-26.09,132.47-43.74,200.37-1.18,4.56-7.84,28.53-12.3,29.43-4.37.88-6.31.58-5.49-4.45l14.01-64.05,2.32-3.25c1.59-11.65,2.78-23.16,2.69-35.83l-.22-33.1c9.97-28.79,10.52-61.61,7.54-92.21-.29-25.53-1.07-18.65-2.05.38l-2.67,3.63c-1.13.92-1.85,2.61-2.28,4.6l-5.64,25.75c-1.58,2.32-2.2,2.13-3.75.15-1.93-14.3-4.41-29.47-10.94-42.28,9.77,26.88,3.19,57.05-10.08,81.62-23.46,43.43-84.99,53.37-130.06,51.05-2.95.3-5.62,1.05-6.66,4.07,4.86,12.93,30.96,27.99,43.6,24.7,6.23-1.62,12.24-.74,15.18,5.13l4.22,3.99c10.71,5.5,13.84,12.04,9.39,19.62-6.82,5.01-11.88,10.78-15.17,17.32,3.13,10.86,10.73,19.59,22.8,26.2,5.71,10.3-5.87,15.13-14.57,15.44l-2.41,1.26c-15.46-.35-31.7,5.47-46.21,12.85-11.11,5.65-18.62,15.72-25.24,25.68-.84,1.27-1.7,1.63-2.58,1.81-1.12-16.9-.54-34.22-4.28-51.46-3.34-15.39-6.46-29.79-6.14-44.87l3.55-3.6c26.75-4.72,40.12-7.08,40.12-7.08-12.86-4.5-29.81-10.69-39.29-21l-1-4.78,6.52-22.43c3.95-13.59,30.56-20.59,45.69-38.27l21.04-24.58,10.13-12.05,48.09-53.68c10.5-11.72,19.09-23.82,32.35-32.66,2.25-1.5,3.12-4.41,2.97-6.88,15.33-.27,35.47-11.53,43.94-10.03Z"/>
            <path class="st10" d="M234.34,1066.38c3.35-29.39,4.05-58.61,2.81-88.2-.55-13.18,1.4-27.06,7.64-40.49-1.11,16.92-.74,32.71.83,49.72,2.26,24.49-.66,49.07-6.3,72.73-.77,3.22-2.61,5.75-4.98,6.24Z"/>
            <path class="st4" d="M46.32,1160.81c.25-12.18-.06-24.65,3.37-36.47,10.26,10.37,22.99,17.17,37.42,21.89,3.32,1.08,7.01,1.64,7.96,6.66-17.52.27-32.8,4.49-48.76,7.92Z"/>
            <path class="st10" d="M224.9,969.16c-4.01-5.61-2.9-11.85-1.01-17.89,1.59,6.44,2.38,11.28,1.01,17.89Z"/>
          </g>
          <g>
            <path class="st10" d="M470.82,1120.52c-1.24,4.46-3.43,9.45-5.72,13.28-1.89,3.16-5.36,6.31-8.57,8.66-7.14,5.21-18.33,2.91-23.62-4.05-17.81-23.42-2.74-79.24,23.51-74.12,19.13,3.73,20.54,34.12,14.41,56.23Z"/>
            <path class="st4" d="M451.79,1084.36c6.32-2.31,4.66,35.54-3.12,36.95-7.35,1.33-3.9-34.39,3.12-36.95Z"/>
          </g>
          <g>
            <path class="st0" d="M539.94,977.94c.97-.43,2.51-.91,2.9-.31,5.1,8.08,15.56,31.4,18.72,40.7l-1.83,2.63c-.64,0-1.34,1.19-.94,2.78,12.89,50.97,21.9,101.77,30.73,153.65l9.16,53.84c-14.3-12.84-25.99-26.48-43.12-35.83,3.73,14.45,10.74,25.86,18.43,37.67l36.38,55.87c4.15,6.37,10.09,10.93,11.77,19.2-6.58,4.45-14.49,6.32-21.78,6.7l-2.88-.81c-17.4-23.37-33.8-47.62-49.19-72.74-1.05-5-2.66-9.44-4.85-13.34-1.02-7.7-6.88-16.58-7.42-29.73-17.01,6.91-38.83,7.08-38.77-2.26l8.12-19.6c-.05-5.06-6.22-13.38-10-16.12-7.07-.52-13.84,1.86-19.79,2.71-7.1-4.27-4.61-12.28-1.46-18.81-4.29-1.77-8.7-5.7-9-10.34-2.45-3.51,1.52-12.58,5.72-13.28,1.77-3.43,2.94-4.83,5.1-.9l2.64,1.81c-4.18,14.26,3.77,28.47,15.19,11.93,3.36-11.91,7.54-23.54,12.52-34.88,2.4-5.53,4.38-9.86,9.06-4.47l-2.21,31.95c-3.09,16.35,12.56,32.41,18.2,9.76-1.72-17.9-2.14-35.91-1.27-54.03-.43-8.2-.68-10.98-5.56-17.2-.74-.95-.81-2.04-.39-3.18l-2.63-1.77c6.7-46.49-.04-70.52-52.81-77.56-17.49-.55-34.98-.71-52.48-.48-9.31-.31-12.86-2.49-10.68-6.54l101.82-4.99c10.96-.54,19.68,3.7,29.09,8.33l2.06,1.02c.36.18,1.08-.45,1.44-1.39Z"/>
            <path class="st10" d="M554.99,1142.21c-3.25,2.69-7.61,2.25-11.13.57-10.61-5.07-7.62-30.43-5.45-47.2.7-5.41-.03-11.16,3.21-15.52,2.81-3.77,7.53-5.89,11.68-4.74,3.49.96,7.21,5.82,6.64,10.52-1.86,15.35-2.73,29.89-1.79,45.51.22,3.65.12,8.16-3.15,10.87Z"/>
            <path class="st10" d="M556.57,1065.27c-3.67,3.16-9.19.41-11.61-2.32-2.47-2.78-5.01-6.65-3.75-11.08,1.05-3.69,4.62-5.58,7.16-6.12,4.1-.87,8.08-.05,10.4,4.01,2.35,4.1,2.11,11.79-2.2,15.51Z"/>
          </g>
          <g>
            <path class="st4" d="M231.75,1204.38l-13.41,29.23c-6.75-4.67-10.67-12.13-8.57-21.04-2.43,1.73-3.59,2.8-6.03,3.03-.83-3.86.18-7.98,3.03-12.36l2.6-7.87c3.06-20.43,8.97-39.65,17.74-57.68,1.3-.53,2.18-3.14,4.76-2.38-3.22,23.53-8.98,46.27-14.44,71.46,6.28-5.82,8.74-13.96,11.11-22.35,12.09-42.76,23.24-84.94,32.36-128.56l13.04-76.62c2.47-14.52,3.53-28.99,1.88-43.59l-5.41-10.12c4.01.71,9.93,2.6,12.22,7.15,6.41,12.78-1.63,63.96-5.07,87.1-4.48,30.16-9.63,58.79-18.45,88.04l-27.4,90.82c-.67,2.23-2.75,4.35.04,5.73Z"/>
            <rect class="st12" x="216.71" y="1207.31" width=".98" height=".98" transform="translate(-790.42 507.33) rotate(-45)"/>
          </g>
          <g>
            <path class="st8" d="M628.2,1246.07c4.47.47,7.93-1.26,10.48-4.3,6.71-2.69,8.31-10.51,5.01-16.34l-7-12.37c-3.96-7.01-5.45-14.64-3.81-22.4,6.5,1.41,9.49,6.12,13.54,9.9l27.11,25.26,33.7,33.86c7.33,7.36.5,19.03-5.65,25.8-8.88,9.76-17.78,21.71-31.73,24.69-15.24-.71-29.68-18.94-47.94-23.23,1.15-15.46-9.58-26.11,2.5-36.07,1.65-1.36,3-3.05,3.79-4.8Z"/>
            <path class="st5" d="M651.68,1291.01c-14.32-7.38-27.86-18.76-18.98-27.73l9.54-9.63c11.4-11.52,5.28-23.1,9.17-37.65l25.02,24.94c5.74,5.72,11.26,12.75,11.51,21.36.28,9.84-5.96,18.02-12.4,24.5-6.52,6.56-14.93,8.81-23.86,4.21Z"/>
          </g>
          <path class="st10" d="M524.12,1061.32c15.49,5.17,4.84,46.7,9.69,71.31,1.14,5.79-1.23,11.61-5.7,15.09-2.89,2.24-7.29,2.22-10.41.55-7.31-3.91-7.86-16.87-7.04-28.01l2.06-27.98c-7.53,12.81-11.49,26.52-15.87,40.69-1.39,4.48-4.6,8.12-8.06,9.48s-9.88.93-12-2.83c-3.22-5.7-1.16-13.43-.85-19.98l1.75-36.62c.37-7.84,1.61-15.71,6.89-21.41,5.9-6.36,13.77,4.39,17.67,17.96,5.04-11.2,11.92-21.57,21.88-18.24Z"/>
        </g>
      </g>
      <g>
        <path class="st13" d="M877.19,768.78c.17-.86-.42-1.88-.94-1.87-5.31.04-24.08,12.06-54.89,3.57-13.63-3.76-27.26-8.5-36.72-20.41,19.43,5.12,36.35,7.88,54.73,5.56,11.24-2.2,20.31-8.6,27.93-15.93-.27-3.53,8.56-5.11,11.49-4.83,15.81,1.46,15.06,11.86,9.23,23.29-1.93,3.78-6.53,12.66-10.84,10.63Z"/>
        <path class="st7" d="M857.04,787.02c4.92-2.96,7.66-2.42,8.22,1.62l-.31,3.44c-11.83,10.51-28.06,23.58-44.27,24.26-.37,8.74,21.28,3.25,24.97.62l2.77,2.48.04,3.59c-6.21,7.05-27.94,18.95-36.75,13.42-1.14-.71-1.68-2.02-2.1-3.23,1.79-10.33.57-20.92-3.51-31.61l14.4,3.4c11.38-1.02,22.3-6.65,30.5-14.01l6.03-3.99Z"/>
        <path class="st13" d="M865.26,788.63c1.66-2.53,3.23-2.19,5,.09,6.68,8.59-12.7,26.3-18.79,31.72l-3.05-1c-6.32-.13-13.21,6.79-23.65,4.04-4.43-1.17-7.33-6.23-8.34-10.84,20.49,4.18,33.05-14.61,48.84-24.01Z"/>
        <g>
          <path class="st7" d="M807.67,844.46c2.58-1.62,5.21-.77,7.91,2.55,1.15-5.04,12.5-10.15,15.5-5.42,3.66,5.77-7.91,19.72-13.49,22.47-1.78,8.86-3.14,10.89-11.8,14.97-15.2,7.18-35.76,4.93-51.91,2.52-.05,1.23-2.79,2.59-3.9,2.81-6.19,1.26-18.99,2.3-20.69-4.88l-1.53,1.68c2.3-.04,4,1.55,5.11,4.79,7.02,6.3,11.64,13.08.88,18.74-15.18,7.97-46.87-12.04-50.4-27.75l-2-.09c-1.18-5.69-3.24-10.55-6.18-14.61-.91-3.62-.77-7.04.42-10.26-14.72,9.16-19.59,26.19-21.01,42.63-.23.87-.04.75-.47,1.05-1.25.86-2.19.29-2.68-.72l-8-16.89c-3.84-8.09-5.52-15.78-3.69-24.44,26.63-14.68,52.08-30.35,77.01-50.43l1.4,19.26c.54,7.48-1.94,14.01-5.46,20.96,13.02,16.21,30.8,27.94,51.62,32.17,16.14,3.28,31.76-2.21,46.73-9.79-24.35-8.75-40.59-21.82-47.7-48.35-3.5-13.99-10.67-25.64-21.38-35.27-.99-.89.58-2.97,1.33-3.3,1.01-.44,3.19-1.01,4.77.13l21.62,15.61c18.61,13.44,28.62,34.3,33.07,56.64,3.71-2.29,4.58-4.84,4.92-6.77Z"/>
          <path class="st13" d="M683.35,876.94c1.11,2.43.77,3.23-1.04,2.42-.59-.89-1.67-1.43-2.65-1.79.17-.43.03-1.42.02-1.86-2.53-.97-4.22-3.49-5.05-7.56-2.51,4.7-5.9,8.04-10.18,10.02-3.52,5.35-9.38,8.96-9.85,16.45-3.96-18.46,5.91-36.92,22.38-47.26,3.86,2.75.27,6.19.36,8.6.27,7.3,2.26,15.35,6.02,20.99Z"/>
        </g>
        <path class="st3" d="M113.54,472.04l1.21,3.9c-1.08,4.01-9.41,27.51-11.01,29.18-.88.92-2.39,1-3.71,1.06l-9.92,28.06c2.13,11.42,3.22,50.14-10.23,54.35-3.04.95-4.66-.76-5.41-3.66.04-16.82,3.77-33.34,7.28-50.39,1.87-9.1,2.79-18.57,6.02-27.12,2.81-7.43-.14-10.97-4.92-15.92-3.23-6.39,1.3-14.73,6.36-8.57,1.1-1.59,2.91-2.61,5.44-3.05,2.65-7.17,12.95-13.8,18.89-7.83Z"/>
        <path class="st13" d="M61.06,723.13c-16.3-5.92-28.3-23.19-23.66-39.19,12.11,7.55,25.14,7.74,40.95,5.54-7.41,9.15-13.08,16.2-14.84,26.83l-2.44,6.82Z"/>
        <path class="st11" d="M198.24,839.16l-7.29-6.06c-4.4-3.66-5.49-12.14-11.85-13.77-.03-4.64-1.53-9.13-3.52-14.01-5.31-13.01-8.24-26.22-7.62-39.66.98.04,1.95.14,2.87.41,11.85,3.47,29.47,53.48,30.59,67.5.25,3.09.4,7.22-3.18,5.59Z"/>
        <path class="st7" d="M143.83,784.61c6.08-3.27,9.46,9.08,9.53,14.36,1.9,3.42,2.69,7.38-1.38,10.03l-6.94,4.53c-8.45,5.51-16.54-14.69-30.4-6.9l5.12-13.73,24.07-8.29Z"/>
        <path class="st10" d="M96.71,590.58c-6.1.81-6.24,10.87-13.84,12.56-3.89-5.68-8.41-11.27-8.39-18.21,1.8.73,4.08,1.45,5.5.85,1.78-.75,14.24-23.09,8.92-39.86-1.53-4.82-2.52-9.75-.86-14.75,3.03-9.13,7.46-17.23,12-24.98l1.69,5.23c-5.47,24.22-8.78,49.29-3.39,73.85l-1.63,5.33Z"/>
        <path class="st13" d="M711.48,297.13c-.65,1.24-1.6,3.94-3.72,4.38l-33.44,6.88c-2.57.53-5.19-1.17-7.05-2.28,1.16-1.31,2.7-1.88,4.95-3.03,19.82-10.07,29.36-22.43,32.19-44.81.8-6.32.02-12.53,2.89-17.74,8.77,14.86,7.61,38.65,4.18,56.6Z"/>
        <path class="st3" d="M518.38,485.7c.53,2.18-.06,4.77-1.77,7.78l-7.8,47.79c-2.47,18.94-8.69,36.09-18.67,51.45l-3.63-.12c-5.31-7.13-7.26-15.78-5.04-25.07,2.26-9.44,4.26-18.86,8.21-27.76l14.01-31.56c-1.57-2.59-1.99-6.03-1.27-10.31-1.23-2.65-2.04-5.26-2.42-7.84-17.99-7.53-45.01-15.18-64.57-12.93-7.08.81-12.08,2.56-15.9,9.14l2.44,6.04c1.19,25.95,1.76,51.81,1.7,77.59-3.66,9.3-10.84,16.34-21.54,21.13l-3.02-1.16c-3.86-.62-5.76-4.02-5.7-10.2,3.89-41.92-.24-83.88-17.16-122.73l1.66-1.32c1.95-4.98,12.07-3,16.42-1.39,4.75,1.75,9.33,5.32,12.45,9.3,35.99-2.43,74.07,4.36,108.65,16.92,2.87,1.04,4.64,2.23,2.94,5.27Z"/>
        <path class="st3" d="M748.75,496.86c-12.45-2.34-35.96-26.09-88.15-31.88-43.54-4.83-76.44,5.41-108.54,35.1-10.78,9.97-18.86,21.83-26.19,34.54-17.09,29.64-20.05,63.96-14.38,97.28,3.56,20.98,10,39.14,23.49,55.51,5.21,6.33,7.99,13.97,8.12,22.1-18.42-16.42-33.5-35.53-42.23-59.8-5.54-15.4-9.61-30.66-8.36-46.6l-.68-3.95c10.77-24.06,19.74-49.17,26.9-75.33,5.77-16.29,17.02-35.93,32.87-43.14,1.89-2.48,5-4.28,9.34-5.4,15.05-10.26,31.14-17.37,48.29-21.35l3.36,2.42c.05-1.09.28-2.73,1.03-2.84,47.63-7.37,100.79,7.02,136.51,40.34l-1.38,3.01Z"/>
        <path class="st3" d="M518.6,882.96c.06.81-.38,2.11-1.63,2.65l-42.35,18.41c-11.52,5.01-22.37,9.63-34.73,12.17-5.82,1.2-11.15,3.09-15.79,5.77-.63.97-1.58,1.98-2.59,1.75-4.98-1.09-14.72-3.35-14.63-8.83-6.07-5.47-12.37-10.63-18.9-15.46l-49.84-24.24c-5.2-.55-7.82-2.33-7.87-5.36-.62.89-1.68,2.15-2.38,1.86-3.63-1.54-27.71-14.39-27.97-15.98-.19-1.11.79-2.17,1.64-3.01,50.51,18.14,103.11,29.02,157.42,31.41l59.6-1.14Z"/>
        <path class="st7" d="M500.01,490.04c6.58,2.66,6.11,12.7,3.69,18.16-2.71-.26-3.57-2.05-5.07-3.85-9.24-11.12-35.81-14.55-53.21-15.5-7.69-.42-13.89,3.52-16.73,10.87-2.8,7.23-2.9,15.44-2.19,23.4l3.31,37.23c2.18,24.54-12.01,36.05-34.71,41.16l4.02-11.63c9.78-7.85,21.62-9.8,22.35-24.29,1.22-24.43-3.91-50.4-1.93-79.31,1.73-4.19,4.98-6.31,9.08-7.81,17.39-6.35,54.67,4.45,71.39,11.6Z"/>
        <path class="st1" d="M551.59,480.68c.2,2.17-1.73,2.89-3.54,4.42-13.65,11.58-22.95,26.47-28.02,43.7-4.69,15.94-9.85,30.94-15.41,46.57-3.52,9.92-6.29,19.57-12.12,27.74-5.38-.8-3.9-7.7-6-10.52,11.68-11.7,17.93-40.95,20.97-59.88l6.29-39.09c.54-3.37,2.14-6.27,4.6-7.91,9.68-5.7,20.04-8.39,31.08-8.05l2.14,3.03Z"/>
        <path class="st3" d="M256.96,830.12c-2.3,3.09-5.62,2.47-8.73,2.74l-36.31,3.19-8.25.25-2.23-4.33c1.6-12.38,2.86-24.9,1.27-37.35l2.1-4.4c16.66,14.2,33.16,28.84,52.15,39.9Z"/>
        <path class="st10" d="M204.81,790.22c2.83,15.52.81,30.79-1.14,46.08l-1.42,3.2c-.69,1.56-2.57.85-4.01-.34,1.1.21,1.58-.41,1.35-1.37l-4.2-17.71c-4.85-20.47-13.3-39.42-27.43-54.41l-.59-12.23,6.59,5.34,26.51,25.84,4.36,5.6Z"/>
        <g>
          <path class="st13" d="M811.89,699.81c-1.11.09-2.78.19-3.12-.57-3.77-8.27-8.11-21.46-10.94-30.29l.29-2.95c-4.21-.98.05-13.77,4.3-13.44l3.59.33c2.54,1.63,14.51,13.18,17,15.98,5.01,5.62,10.94,23.24,4.98,28.93-3.09,2.94-12.65,5.15-16.09,2.02Z"/>
          <path class="st13" d="M503.7,508.2l1.88,2.56-15.45,35.33c-5.59,12.71-7.4,25.14-5.42,37.28,2.28,3.44,2.88,6.51,1.81,9.23l3.2.23,2.8,10.29,2.56,3.89c.73,36.16,18.14,70.81,44.52,95.51l3.52,7,5.75,1.36c62.71,54.65,166.1,62.78,221.55-5.1l3.33.56,3.11-.4c8.94,8.42,25.86,7.02,37.06,4.23-2.82-2.96-6.39-7.82-2.01-10.36l4.32.94c8.56,10.43,17.91,20.56,29.88,27.07l1.78,3.97c3.21-2.7,10.08,1.6,8.77,5.72.36,9.63-14.8,6.06-20.97,2.66-11.18-.82-22.49-1.17-33.93-1.03-10.37-1.72-20.23-5.51-29.58-11.37-.77.12-5.82,13.71-5.63,14.46,3.65,15.08,26.33,26.22,40.06,29.88,20.95,5.57,44.75,6.36,65.05-2.13l2.37.93,1.54,2.89c-5.03,6.95-11.2,11.37-18.52,13.24l.4,3.04c-13.84,10.54-28.83,21.37-46.97,15.82,1.34,5.68,4.53,19.37,2.35,24.37-.61,1.4-1.88,2.29-3.2,2.96,4.26.18,2.19,11.22-1.95,11.24,5.14,4.68-3.94,12.04-7.86,5.82-4.18-21.3-13.14-36.62-28.83-51.23-1.73-1.61-27.52-19.71-25.6-17.49,12.68,14.69,19.49,25.85,24.02,45.15,7.93,19.08,23,28.96,41.52,36.58,2.14,1.58,1.82,2.8.39,4.71-7.18,9.56-37.91,11.92-49.48,9.55-20.44-4.19-39.72-16.5-51.55-33.72,5.35-11.63,6-22.04,4.16-34.49-22.23,16.79-45.67,31.45-70.32,43.97l-4.37.32-3.27,4.89c-34.58,17.63-77.82,23.45-115.8,26.94l-2.08-2.49c-2.42,1.71-5.44,2.69-9.05,2.93-61.01,2.65-129.7-1.8-189.08-24.13-6.52-2.45-13.05-5.29-18.89-9.07-1.03.37-2.06.68-3.12.81-5.7.67-31.98-13.97-38.34-18.35l-3.16-5.03c-1.19.11-2.38.17-3.54.03-7.97-.93-38.14-26.68-45.81-34.01l-2.8-5.92c-2.04,1.65-4.18.39-6.42-3.77l-27.8-26.84c.58,3.28-.3,5.3-2.64,6.05l2.52,5.95c2.23,15.46,5.98,30.56,11.25,45.31l-2.63,2.4c-9.03,10.97-21.54,25.74-34.65,25.57-6.81-5.2-8.91-14.88-8.63-22.83,7.26-2.82,12.28-7,9.22-8.54-.71-2.75,1.46-5.32,6.5-7.71.22-2.65.83-4.93,1.83-6.85l-1.98-8.7-1.11-46.66c-7.41,10.8-7.23,25.17-4.48,37.62l-1.96,3.4c.22,1.05.45,2.64-.25,3-1.77.91-19.96,7.36-21.07,7.26s-2-1.08-2.74-1.97c-17.1,2.69-34.97-1.22-50.78-7.75l3.69-2.15c13.04,1.92,26.5-.18,38.29-6.09,21.3-10.68,29.43-28.94,35.67-49.94l-.11-.56c-1.7-.92-.03-3.33,1.4-1.54.06.11.33.35.58.55.8-.72,2.04-1.71,2.72-1.3,2.81,1.72,20.89,17.89,21.18,20,.07.53-.06,1.1-.24,1.66l7.61,2.43c69.94,57.62,156.17,78.98,245.49,78.38,61.34-.41,124.74-12.81,170.95-55.52,5.02-1.98,5.5-2.46,1.46-1.45-52.82-22.23-84.3-69.18-104.92-120.59-16.16-41.36-59.34-52.66-91.56-23.34-29.21,42.7-64.07,80.85-119.22,92.62-41.81,8.92-80.19-.36-115.23-24.07-3.29-2.22-19.32-13.57-17.01-17.57.39-.67.93-1.25,1.52-1.8,2.66-1.79,6.19-.74,10.57,3.13,3,1.4,3.42,1.82,3.41,5.26l3.11-.07c82.11,41.61,183.83,6.59,221.81-77.74l4.95-3.97,3.42-3.69c19.43-5.48,28.02-14.06,28.72-34.37l-3.61-41.45c.03-32.14,6.81-39.15,38.5-34.35,14.22,2.15,36.24,5.71,41.56,20.57Z"/>
          <path class="st7" d="M798.39,864.44c-10.61,9.77-43.56,2.3-53.09-8.37-14.11-15.8-20.21-37.22-19.55-58.25.1-3.07,3.87-5.53,6.39-6.06l6.43,32.44c3.93,19.86,17.42,35.01,37.89,36.57l21.92,3.67Z"/>
          <path class="st11" d="M153.36,798.97l-5.55-9.96c-1.15-2.07-2.72-3.3-3.98-4.39-9.02-32.03,8.91-53.6,9.18-42.01l1.24,52.27c.04,1.74-.13,3.33-.89,4.1Z"/>
          <path class="st7" d="M782.54,782.56c-8.85-3.67-17.55-9.26-28.16-8.92-2.61.09-4.71-.61-4.46-2.99.83-8.08,22.31,1.11,33.17,10.28.39.53.73.9,1.1,1.09,1.33.4.84,2-.48,1.67l-1.16-1.14Z"/>
        </g>
        <path class="st4" d="M679.68,875.71l-15.23,2.45,10.41-15.85c2.11,4.43,4.65,8.74,4.82,13.4Z"/>
        <path class="st13" d="M615.23,321.99c.1,1.2-.56,2.48-2.28,3.26-16.76,7.59-26.9,28.78-31.22,48.23,9.47-9.18,16.72-17.65,28.78-21.82,1.88-.65,5.76-1.75,7.03,1.09,1.4,3.14,2.09,10.8-.28,13.94-6.15,8.14-24.27,12.08-26.1,22.02l25.56-11.78c3.04-1.4,7.26.28,10.6-.23,17.59-2.67,34.65-3.04,51.32,2.06.65,5.25-10.1,5.69-14.31,5.62-2.08,2.94-6.19,1.21-5.83,1.2,2.39-.09,3.48,0,2.13,2.38-3.87,2.58-10.31,3.31-12.83,8.65-3.19,6.76,26.39,9.35,45.71-9.44l5.97,6.97c8.29,2.6,13.89-3.5,20.24-8.09l-11.56,17.76c24.25-8.16,42.97-23.59,56.87-43.68,1.72-2.49,3.47-4.78,6.09-5.28l-3.18,13.5c-3.87,10.14-1.64,20.56-4.55,30.64l-8.52,29.53c-4.09,14.19-16.58,20.11-12.15,26.57,2.7-3.27,3.74-5.25,5.89-6.58,4.98,7.66,14.85,8.78,22.37,2.96,9.81-7.6,16.61-17.35,22.72-28.28,1.43-2.56,2.55-5.33,5.25-6.22l-6.88,23.95c-4.85,16.9-17.13,28.49-35.63,29.59,19.93,24.99,34.57,51.8,42.93,81.91.8,2.9.42,6.08-.8,7.98l-11.44-19.22c-8.99-15.12-19.83-28.29-32.49-40.41-1.96-1.88-3.62-3.49-5.89-3.92-2.58-4.77-7.45-7.62-12.42-11.03-28.19-19.33-60.41-31.58-95.02-31.63l-28.73,2.15-2.92-2.02c-24.51-45.58-85.37-28.88-122.78-10.07-.9.34-2.26-1.31-3.13-2.38.43-6.36,8.64-17.35,13.84-21.01,3.03-2.13,4.35-2.35,6.54.46-.8,4.69.12,7.04,2.76,7.06.24-.64,1.49-1.4,2.17-1.7,12.71-5.54,27.67-28.74,68.88-23.6,25.48,3.18,49.5,9.38,74.01,16.86,14.62,4.46,37.21-2.41,60.87,8.79-.13-4.72-1.95-7.44-4.37-10.65-11.78.81-20.79-5.47-27.41-15.51-22.62,18.5-37.35,3.25-57.25-1.19l-41.84-9.34c-4.73-1.06-9.47-2.04-13.58-5.4,2.69-7.23,5.4-13.41,6.83-20.67,3.15-16,10.78-30.84,24.76-39.95,4.48-2.92,10.63-3.6,15.28-4.05Z"/>
        <g>
          <path class="st7" d="M811.89,699.81c.91,2.58.47,5.35,3.58,7.88,7.15,5.82-9.96,8.88-28.61,6.27-5.61-.79-10.46-3.42-13.13-7.62,1.76-6.85,5.21-13.4,10.34-19.63l9.16-16.89,4.88-3.82c1.15.59,2.28,1.19,2.67,2.28l11.11,31.53Z"/>
          <path class="st7" d="M850.78,473.78c-4.8,5.84-5.73,8.43-2.79,7.77l15.28.23c4.39.02,8.37,3.51,9.57,7.1-3.33,2.17-7.28,3.69-11.83,4.56-7.48,4.62-13.07,11.42-16.78,20.39-1.25,10.67-4.06,20.57-9.91,31.92,7.03.19,10.06,2.55,14.19,5.94,3.1,3.73.44,5.49-7.99,5.27-21.13,9.53-12.59,26.25,5.28,33.7l1.05,3.22c6.49,1.75,14.71,2.33,21.85.39l24.95-6.78.95,2.87c-12.44,11.87-25.46,22.98-39.38,33.09,2.89,4.32,5.36,8.83,7.56,13.56,4.37,9.4,12.02,26.02,11.45,35.84-3.49,12.41-6.94,24.76-10.37,37.02,1.26,6.66,1.68,10.28-3.18,15.6-2.58,2.83-9.13,7.55-12.79,6.3-14.62-6.76-25.84-19.42-35.98-31.97,4.71-2.24,13.86-.51,16-6.63,2.73-7.8-3.07-19.28-9.05-24.62-6.25-5.59-12.2-9.44-16.43-16l-1.52-4.43c2.59-10.35,4.62-20.76,6.12-31.2l13.67-1.68c4.12,5.7,6.61,12.33,7.48,19.89l7.2,59.82c7.88,8.8,10.92.73,11.35-7.52l-23.61-85.06c-.07-5.27-.2-10.48-.38-15.65-4.03-.92-8.32-1.24-12.87-.97-3.03-8.07-7.18-15.48-12.43-22.25l1.16-3.1c-7.06-31.2-22.76-60.45-42.36-85.88-2.61-4.64.4-7.41,9.04-8.31,17.72-6.48,22.66-18.44,27.07-35.65,1.73-4.8,3.95-9.34,6.65-13.61-3.77-3.09,1.95-12.2,6.34-9.74,16.39,2.5,3.17,11.9,2.56,35.8-.12,4.67-2.76,8.75-1.63,14.64,10.43-13.66,24.35-21.63,40.69-26.82,7.01-2.23,15.58-5.95,22.93-3.99,6.98,8.88-12,41.22-19.06,46.92Z"/>
          <path class="st10" d="M850.78,473.78l-2.79,7.77-10.87,18.18-18.34,38.21c-2.49,5.18-5.82,9.79-10.97,13.01,5.53-17.83,13.52-33.45,20.91-49.78,5.24-11.58,12.79-19.91,22.06-27.39Z"/>
          <path class="st13" d="M872.84,488.89c1.39,4.17-19.86,13.82-28.62,24.95,1.77-15.09,13.28-26.42,28.62-24.95Z"/>
          <path class="st10" d="M825.23,484.31c-5.98,15.21-11.68,29.91-25.2,41.78-3.47-26.83,5.23-55.41,23.78-75.29,8.29-8.88,21.24-12.26,32.96-14.84-14.27,14.45-25.31,28.95-31.54,48.35Z"/>
        </g>
        <g>
          <path class="st7" d="M856.64,737.5c-2.12-2.74,4.24-4.62,6.29-4.51,6.1.33,10.84,3.26,4.38,6.71.29,3.76-2.01,6.9-6.9,9.41-19.29,11.44-41.29,13.65-66.01,6.66,24.04,16.05,53.87,19.16,80.52,8.55,3.84.48,4.47.86,2.27,4.46,2.33,3.53-.24,5.11-3.17,2.11-12.12,5.57-24.81,8.83-38.89,8.09-28.51-1.51-60.39-9.28-71.22-36.56l5.89-17.44c5.4-.51,8.95,2.72,13.22,5.31,20.44,12.39,44.23,2.1,56.36,8.39,5.82,3.02,13.36,3.41,17.26-1.17Z"/>
          <rect class="st13" x="783.47" y="749.48" width=".98" height=".98" transform="translate(-300.69 774) rotate(-45)"/>
        </g>
        <g>
          <path class="st11" d="M96.71,590.58l4.03,4.48c5.27,17.2,12.97,34.13,21.68,49.55,3.57.85,6.57,3.48,8.99,7.89,4.66,3.6,7.12,7.47,7.37,11.62.04,3.55.66,6.61,1.97,10.07,8.83,23.35,21.9,45.9,34.95,67.16,1.08,3.26-.12,4.94-3.53,4.42l-23.66-20.37-1.87,1.55c1.83,3.16,1.44,6.47-.22,10.18l-8.57,19.11c-14.71,23.28-42.64,34.17-68.86,28.9-6.63-1.33-10.59-4.83-8.95-8.29.53-1.12,2.01-2.15,4.24-2.67,6.08-7.12,12.22-15.13,17.93-23.06,6.15-12.02,12.71-23.85,19.68-35.47-12.96,8.91-26.66,16.38-41.12,22.41l-3.05-.71c-7.22-2.87.04-5,3.35-14.23-3.28-1.57.09-10.78,1.43-13.96,2.41-5.72,5.23-11.1,9.28-15.87-8.1.66-16.08.08-23.92-1.75-6.14-.94-9.63-3.47-10.45-7.6-2.86-1.78-6.71-3.75-9.49-6.7-8.15-8.66-13.54-19.28-17.29-29.81,3.64-.65,3.62-2.68-.07-6.1l-4.33-9.34c-.19-1.53-1.64-3.83.07-5.52,1.43-1.41,4.14-1.04,6.32-.22,9.55,3.47,18.27,7.7,27.75,9.8,4,1.29,3.98.33-.08-2.91,2.6-4.77,7.69-8.86,13.67-10.55,11.89-3.37,21.97-9.84,28.91-19.45.69-2.61,9.06-14.48,10.74-14.39,1.32.07,2.32.81,3.1,1.83Z"/>
          <path class="st13" d="M64.27,774.19c-6.56-8.6-11.89-19.51-13.61-30.8,5.88,1.66,10.84,4.11,15.17-1.17-3.04-1.7-6.39-3.25-8.12-4.85,10.8-4.44,20.74-10.35,30.85-16.68,6.25-3.91,11.46-8.49,20.06-10.15-7.57,11.31-13.74,21.44-19.13,33.17-5.08,11.04-12.96,19.55-20.96,29.23,19.06-2.46,34.41-13.77,44.76-28.98l23.09-33.94c3.55,2.74,6.99,7.55,7.34,11.77-4.86,14.62-10.58,28.65-20.2,40.76-11.54,14.53-42.91,17.59-59.25,11.65Z"/>
          <path class="st13" d="M10.62,647.43c-1.85-5.18-3.71-9.85-4.4-15.44,17.4,27.66,55.84,38.96,87.08,27.16,7.3-2.76,14.55-4.52,21.53-9.77,6.61,11.45-13.34,19.59-29.18,22.76-26.75,5.35-53.05-2.53-71.48-22.62-1.02-1.12-2.25-1.8-3.55-2.1Z"/>
          <path class="st10" d="M40.37,636.05l-.08-2.91c3.45-.48,6.24,1.75,9.77,2.87,16.59,5.24,34.33,6.85,51.62,4.11l11.83-4.34c1.06,3.39,1.64,7.02,1.6,10.7-24.35,7.78-55.03,4.79-74.74-10.43Z"/>
          <path class="st10" d="M82.54,715.92c-5.62,3.83-10.89,7.23-17.86,8.66l10.27-12.14c12.89-15.25,26.74-29.48,47.8-32.09,2.23,2.21,4.58,7.05,3.41,10.21-15.06,7.92-29.67,15.86-43.61,25.36Z"/>
        </g>
        <path class="st14" d="M377.59,381.89c10,2.9,20.25,5.85,30.1,10.83,20.83,10.52,48.65,33.88,51.92,33.71.45-.02.83-.74,1.11-1.08l4.58-2.95,6,24.36,5.02-.23c-.26-3.67,4.09-6.46,7.43-4.65,3.03.08,5.56-1.47,8.45-2.9,38.21-18.94,92.85-28.46,117.65,9.36,1.56,2.39,2.82,4.8,2.74,8.01-27.77,2.08-49.78,25.94-61,24.32-21.36-3.07-26.81,10.04-33.22,5.02-1.02-.8-2.01-2.01-3.94-2.7-26.9-9.57-54.29-15.39-82.88-17.22l-25.86.1c-9.42-9.54-14.15-11.27-27.78-10.28l-5.04-3.13c-3.19-8.27-11.76-17.17-20.04-21.17-.63-1.76-1.36-3.47-2.61-4.33,1.12-.13,2.15-.68,2.46-1.48,1.12-2.93-3.18-10.83-11.28-13.15-4.96-1.42-7.33-4.14-10.14-8.22l-8.96-5.94c-3.79-5.03-2.43-11.17-2.51-16.63,14.18-1.29,26.86-8.66,34.02-6.58l23.78,6.91Z"/>
        <path class="st10" d="M475.61,444.56c.01.6.38,1.29.71,1.97l-1.32,2.22c-.36.6-1.67.77-2.42.6-1.21-.27-1.09-1.84-1.28-2.59,1.52-.89,2.82-1.71,4.31-2.2Z"/>
        <g>
          <path class="st10" d="M700.43,229.26l-.75,24.42c-6.37,32.19-39.64,49.33-72.58,51.73l14.26-15.19c22.85-24.34,27.13-65.51,13.08-94.83-.99-2.06-1.24-4.11-.67-6.13,1.56-.16,3.18-.08,4.54.78,10.91,6.85,18.62,37.99,17.06,50.87-2.26,15.9-.74,14.77,4.57-3.4,2.66-18.6,2.24-37.41-1.26-56.43-.22-13.28-.31-31.1,8.13-41.48,1.32-1.03,1.34-3.58,4.77-3.91-9.09,29.82,9.66,66.34,8.83,93.59Z"/>
          <path class="st11" d="M686.83,139.58c-3.81,16.35-7.02,27.41-4.94,46.26l3.29,29.79c.04,17.47-4.19,36.53-16.45,49.62,7.92-28.57,4.44-56.76-14.94-76-.56-.56-2.01-1.22-2.88-1.39.06-.3.16-.86.13-1.2,9.21-13.86,17.14-28.68,28.35-41.73,2.26-2.63,4.17-5.19,7.44-5.34Z"/>
          <rect class="st11" x="667.64" y="266.84" width=".98" height=".98" transform="translate(6.66 550.73) rotate(-45)"/>
        </g>
        <g>
          <path class="st11" d="M457.72,422.55c-8.38-3.02-16-14.78-17.8-23.54-5.41-2.81-7.42-6.04-6.03-9.7l-4.14-1.74-30.73-54.89c-9.71-28.79-14.73-71.42-9.85-101.57,2.65-16.35,8.1-30.63,21.06-41.64,15.85-12.29,31.07-25.27,45.66-38.95,1.5-3.66,3.58-5.71,6.23-6.17,2.22-.65,3.9-1.96,5.48-4.56,7.44-12.2,11.02-26.26,8.27-39.97,6.68.28,10.61,9.7,13.03,15.58,6.04,14.69,5.59,31.16,2.36,46.44-8.26,25.73-14.78,51.84-19.12,78.54l-4.26,8.29c-21.88,17.03-27.49,40.64-27.21,67.34-2.58,4.41-3.69,5.46-6.46,1.1-6.48-20.51-11.05-41.41-13.72-62.7-2.98,12.81-3.31,26.2.19,38.93,15.31,41.45,28.9,83.68,40.76,126.68.57,3.08-1.59,5.12-3.71,2.51Z"/>
          <path class="st11" d="M341.56,211.65c2.89,21.43,5.6,44.06,16.34,64.04,15.2,28.29,35.79,58.48,43.77,90.99-8.09-1.7-15.23-5.44-20.68-10.81l-27.76-27.37c-14.14-13.94-40.63-21.8-53.7-41.58-.28,24.29,17.37,45.41,19.67,69.95-7.06,3.65-15.63,4.29-23.53,2.86-19.7-3.59-24.18-24.96-20.26-45.18l6.01-30.98-2.09-2.99c6.53-21.45,10.52-43.38,11.97-65.81,3.04-2.66,5.88-1.97,8.53,2.06,2.34,4.97,4.94,10.22,8.66,15.18l21.36-61.9c5.14,14.42,9.85,27.77,11.7,41.55Z"/>
          <path class="st13" d="M606.18,170.1c.87,1.99,1.58,4.11,1.38,6.31-.94,10.43-5.9,26.69-9.1,37.16-6.48,21.14-15.35,41.21-27.57,59.72-30.11,41.52-52.19,88.38-60.43,139.27l-3.91,7.34c-.31.61-.66,1.17-1.14,1.56-4.08,3.34-6.5-13.69-5.81-16.89-2.86,3.17-5.38,6.77-7.57,10.8l-3.38.6-2.31-2.19c8.16-30.22,12.28-61.04,14.65-92.76l3.43-3.66c-1.66-6.76-.57-13.87,3.26-21.33,7.71-18.46,15.82-36.48,24.34-54.06,2.29-11.9,5.65-23.36,10.07-34.37l4.05-4.76-1.9-2.5c8.94-16.79,14.28-32.81,3.26-50.28-2.8-5.96-2.41-9.81,1.18-11.55.74-4.01,5.04-3.74,5.9.17,27.86,27.67,27.33,49.15,12.86,83.55-13.16,24.15-25.8,48.67-37.9,73.55l-2.19,1.08c.71.57,1.23,1.08,1.13,1.39-2.01,6.1-5.74,13.64-8.72,18.92.52.78,1.13.74,1.81,0,.39-5.34,4.12-13.52,6.97-19.04.39-.75,1.35-.99,2.22-1.07l.03-4.19c13.83-28.17,29.02-55.47,45.56-81.9,13.96-24.3,23.96-51.3,22.2-79.71.67-2.36,1.86-2.41,4.04-1.09,3.37,12.84,6.67,26.82,3.62,39.91Z"/>
          <path class="st11" d="M549.48,77.69l1.17,1.89c-1.08,16.64-.58,33.37,1.51,50.2.65,4.32-.51,7.24-3.48,8.75-.94,6.2,1.58,11.59,4.59,17.54,4.98,9.83,4.12,21.87-.37,31.8l-6.77,14.99c-12.52,14.3-24.51,29.07-35.97,44.33-2.28,2.43-4.15,3.1-6-.04-1.29-5.91.49-12.09,5.35-18.55-28.13,34.97-33.02,80.55-30.37,124.06,2.72,29.6,3.4,60.33-3.6,88.95,3.88-.23,3.64,1.9.07,2.97-.44,2.44-2.49,4.36-4.31,2.2-.72.09-1.4.1-1.94-.17-1.7-.85-5.85-18.81-6.2-21.69l2.13-2.51c-4.19.09-6.06-11.32-6.52-15.43-7.22-64.64-10.22-117.9,23.36-175.69,13.27-19.98,25.25-40.64,35.92-61.98.66-4.05-.35-8.28-3.04-12.69-.86-4.91-1.4-9.85-1.6-14.81l2.44-1.94c4.77-.62,9.71-10.13,17.05-17.39,3.24-3.21,6.41-4.85,6.17-10.35-.48-11.12,3.34-31.65,10.4-34.43Z"/>
          <path class="st10" d="M515.86,139.86c1.23,5.36.19,13.15,2.63,18.19,2.87,5.92,4.51,9.03.44,15.49-8.88,14.11-14.75,30.34-24.53,44.12-10.68,15.04-19.07,29.7-24.79,47.25-7.13,21.87-12.77,43.12-13.1,66.59-.36,25.37.9,50,4.98,74.95l3.81,15.94c.47,4.01-1.29,5.67-4.58,2.95-1.66.99-4.02-.86-3-2.8.58.34,1.43-.27,1.45-.79.01-.46-.86-1.46-1.11-2.31l-25.07-85.07-14.95-40.22c-5.05-18.2-2.53-37.35,4.45-55.62,1.9,27.85,6.11,54.73,15.33,80.73.71-26.15,2.21-49.7,22.45-66.77,6.46-4.89,9.53-11.43,10.9-19.6,2.96-17.62,5.25-34.87,11.52-51.74,10.55-28.36,13.35-59.09-6.81-81.33-1.15-5.73,31.97,5.14,39.99,40.04Z"/>
          <path class="st7" d="M653.79,189.24c21.21,36.63,12.4,83.94-18.86,111.86,37.69-3.31,67.64-30.07,62.69-69.99l2.82-1.86c3.36,3.11,5.9,6.96,6.86,11.27,3.29,26.09-8.06,55.41-34.44,65.32-1.78.67-3.75.71-5.59.26-12.46,4.98-25.55,8.27-39,12.3-4.72,1.41-8.59,3.16-13.05,3.58-16.72,6.31-27.42,15.17-34.08,32.88-1.4,3.73-9.23,29.39-9.13,31,.04.56,6.03,2.53,7.26,2.74,23.4,4.22,46.27,10.27,68.61,18.15,14.15,3.94,20.82,1.11,33.42-6.35,5.6,6.86,12.17,11.66,19.71,14.38,7.5.43,11.77,1.24,13.92,9.44.95,3.64-.04,6.7-4.27,6.42-17.63-5.31-36.06-7.67-55.28-7.08-24.29-7.42-48.85-13.19-74-17.26-27.74-4.48-46.61,3.84-67.25,20.75-1.73,1.06-3.45.99-5.07-.38,3.19-7.03,6.12-14.57,11-20.63,2.31-5.39,5.42-10.37,9.34-14.94,7.56-3.53,13.99-8.46,19.28-14.78,22.32-30.06,46.13-58.89,71.43-86.5,24.47-27.09,34.08-60.9,28.61-96.93l2.18-5.06c2.12-3.27,3.66-2.43,2.88,1.39Z"/>
          <path class="st7" d="M756.19,276.9l2.55,24.3c9.79-8.4,20.34-14.47,33.32-19.68-5.32,17.7-9.84,34.33-11.71,53.53,9.29-4.89,17.19-9.99,27.35-8.76-14.12,25.78-21.47,54.88-18.51,84.64.7,1.14,1,2.37.79,3.69-.65,4.16-31.43,30.2-36.58,34.07l-4.8-.17c.41,11.43-14.35,11.42-7.48-2.27,10.45-12.68,17.32-34.01,20.16-50.17-.22-15.45,3.07-29.19,9.84-41.22l.78-4.94c-1.62-1.2-1.6-3.05.03-5.55-6.02-.02-11.3,3.32-15.52,7.38-8,9.58-17.09,17.61-27.25,24.08-1.32,1.37-2.57,4.05-5.88,3.56l24.24-34.08c4.31-6.05,9.07-11.8,10.26-19.52-9.64,1.75-15.72,7.01-25.04,10.54,3.29-16.23,8.05-29.88,8.07-44.85l15.36-14.58Z"/>
          <path class="st13" d="M651.04,186.65c1.24.33,1.15.74-.13,1.2,6,47.59-2.34,73.59-33.2,109.09l-48,55.22c-9.8,11.27-15.63,25.12-27.64,34.66-4.22,3.36-10.34,4.72-14.03,9.32l-7.97,9.91c-.63-2.78.77-4.93,2.17-7.44l17.83-31.88c15.94-28.52,36.15-53.18,55.72-79.23,7.54-10.03,13.53-19.94,22.08-29.11,5.86-6.28,9.75-13.91,12.23-22.31,8.23-27.85,9.44-56.66,4.29-85.25-.3-1.68.47-2.73,1.48-2.75,5.36,10.69,9.81,21.76,12.6,34.04.45,1.99,1.42,3.54,2.58,4.51Z"/>
          <path class="st11" d="M602.56,130.19c-.77.02-1.56,1.09-1.46,2.68,2.49,39.37-17.23,71.67-37.25,104.72-12.02,19.85-23.65,38.79-33.11,59.49-1.85,3.07-2.98,3-3.4-.2,2.93-7.29,5.36-14.29,9.27-21.73l25.25-47.98c15.19-28.87,20.09-53.66-2.53-78.77-2.4-2.66-6.63-6.22-4.75-9.71l-1.35-3.46,4.26-10.77c.7-5.03,2.38-8.64,5.04-10.84,3.12-1.06,2.61-4.86,3.43-7.47,3.95-12.52,3.69-23.53,2.38-38.07,13.92,13.01,22.96,28.83,29.91,45.67l4.31,16.44Z"/>
          <path class="st11" d="M426.04,90.05c11.61,38.54-.97,71.8-25.8,103.96-2.63-5.8-.44-9.55-1.12-14.36-6.67,12.52-12.83,26.35-13.56,40.72l-12.32-35.08c1.64-.78,1.9-1.99,2.26-3.74,3.66-17.67,6.44-35.06,12.98-51.98,1.08-2.81,7.97-.85,9.3.66,1.93-6.03,1.08-11.57,5.36-10.74,2.46.47,6.35,9.06,8.18,4.09l11.12-30.25c.74-2,1.88-3.04,3.59-3.27Z"/>
          <path class="st10" d="M562.52,113.62c.93,3.34-4.4,18.5-7.95,25.07l-5.9-.17c3.34-22.04-6.22-39.85.8-60.84,1.21-1.5.69-4.93,4.54-5.81-1.1,6.06-3.64,12.05-.93,18.09,3.61,8.03,7.22,15.68,9.43,23.64Z"/>
          <g>
            <path class="st13" d="M1059.06,146.63v9.75s-18,15.14-18,15.14c-26.9,23.23-53.15,45.71-82.1,66.68-27.68,20.05-53.69,40.25-78.47,63.36-27.3,29.7-50.6,60.73-69.5,96.08-1.46,2.72-2.68,4.82-4.74,6.28-1.1,1.65-2.98,2.82-5.64,3.49-4.45,3.75-8.25,4.93-11.41,3.54-.77-.75-1.5-1.54-2.06-2.42-8-12.46,7.62-65.64,15.76-79.02.45-.73,1.18-1.29,1.99-1.83.86-.57,1.83-.99,2.83-1.37-.15-1.18-.25-2.35-.15-3.5,1.17-14.58,37.45-49.05,50.61-58.44,30.77-20.13,63.22-37.53,97.33-52.2,32.27-16.51,63.78-35.85,88.16-63.03l5.88-2.64,9.53.14Z"/>
            <path class="st11" d="M1049.53,146.49c-29.2,35.46-75.01,60.37-117.35,80.05-53.4,24.82-95.39,46.68-124.47,99.77l-3.18,2.57c-7.4.75-14.36,3.27-20.9,7.57-5.87.68-7.28-4.37-4.23-15.16,2.17-11.74,4.87-23.35,8.11-34.83-9.27,4.09-17.95,9.37-25.79,15.79-6.72,3.56-8.18-15.58-7.76-20.15l2.23-5.19c13.84-15.22,30.06-27.98,48.92-38.17,31.52-17.03,62.87-31.91,96.7-43.96l96.49-34.37,43.42-17.32c3.51-1.4,6.65.26,7.81,3.39Z"/>
            <g>
              <path class="st8" d="M1059.07,175.62c-.54,5.1-.98,10.16-1.33,15.16,2.47,63.55-2.86,133.11-12.85,199.11-7.93,52.37-37.78,127.83-80.04,161.28-8.23,6.51-61.83,40.4-68.53,38.42-1.14-.34-2-1.11-2.68-2.09-8.23,5.27-19.42,9.38-29.23,10.42-5.25.56-16.14,1.63-17.57-4.03l-.88-3.16c6.96-5.38,12.44-11.65,16.44-18.81-2.97-6.89-7.8-12.6-14.48-17.13l.58-3.09c-5.53-.39-10.86-2.19-15.98-5.4,0,0,2.85-9.89,8.56-29.68l3.15-2.77c3.62-9.8,14.91-16.98,23.61-22.49,1.55-.98,3.28-1.84,5.01-2.47-6.81-4.15-14.48-5.66-23-4.54l-1.84-2.79c-2.08-1.05-1.15-3.64,2.79-7.77l-.53-3.28c5.86-4.62,22.55-36.55,18.04-41.58-3.2-3.57-50.01,14.65-52.71,22.46-5.3,7.4-9.4,9.06-12.32,4.98.92-8.19,1.93-16.39,3.04-24.61,2.46-7.11,3.67-13.85,3.61-20.23-3.02-.6-4.56-2.03-4.62-4.28-3.1-1.92-2.71-3.13.95-3.32-.66-.97-1.08-2.18-.48-3.23,28.81-50.78,63.12-98.72,111.15-134.12,47.57-35.08,95.52-73.16,138.89-111.06l3.26.86v19.24Z"/>
              <path class="st13" d="M1059.07,190.79c-.39,1.2-.83,1.18-1.33-.01l-.11-12.52c-.01-1.47.49-2.47,1.44-2.64v15.17Z"/>
              <path class="st5" d="M899.97,512.35c2.91-13.15,11.07-22.79,21.84-29.99,2.91-1.94,6.05-4.17,7.77-7.97-6.91-3.43-14.44-2.97-22.19-3.16l-22.86-.56c5.04-18.12,10.23-30.29,3.11-49.53l33.02-11.52c66.57-27.2,98.95-79.56,118.48-146.05,1.47,8.54.78,15.93-.27,24.22-5.29,41.84-12.52,82.55-22.45,123.56-5.2,21.48-11.73,41.17-20.19,61.28-18.67,44.36-48.49,78.73-97.03,87.86l-21.39.6c2.28-7.18,13.58-9.96,16.02-21.05l6.12-27.69Z"/>
              <path class="st6" d="M888.57,373.14c-.45-.46-.85-.94-1.07-1.5-.56-1.44,8.76-8.35,10.89-9.91,20.6-13.37,39.97-28.37,59.21-43.63,19.32-15.33,42.07-52.78,55.06-74.51,8.47-14.16,14.83-28.59,20.5-43.74l10.14-17.77c1.17-.02,3.31.64,3.25,1.68-1.18,19.62-5.41,37.71-11.51,55.89l-11.84,35.3c-13.33,33.4-31.18,64.95-57.79,89.64-29.01,26.92-87.49,42.82-129.46,51.64l52.62-43.09Z"/>
              <path class="st5" d="M888.57,373.14l-45.47,22.27c-2.58,1.31-3.88,4.86-7.96,4.79l7.9-18.6c5.53-16.44,15.41-29.33,28.11-40.95,14.16-12.97,29.14-24.03,45.34-34.57,50.54-32.86,91.99-76.68,126.83-124l-16.23,40.23c-10.65,24.05-47.67,80.87-67.69,97.89-18.61,15.82-38.35,29.43-58.64,43.18l-12.17,9.76Z"/>
            </g>
          </g>
          <path class="st13" d="M846.83,593.89c-7.32-1.98-14.05-7.45-18.6-13.41-5.59-7.33-3.19-14.91,2.82-20.66,11.92-11.39,17.49-1.83,17.44-8.12,5.78,4.74,15.35,12.08,16.59,20.36-2.41,9.36-12.66,15.17-18.26,21.82Z"/>
          <path class="st14" d="M806.25,403.92c-.55.7-.86,2.34-.95,3.32-3,2.71-4.78,6.03-6.34,9.74-6.54,14.5-23.34,45.7-42.75,40.36-3.86-1.06-10.81-4.6-7.6-8.82,8.8-5.41,16.31-12.47,24.09-20.14,5.73-5.65,12.53-11.26,16.49-17.44l7.97-4.75c3.17-1.89,6.04-3.39,9.08-2.27Z"/>
          <path class="st11" d="M262.55,282.29c7,16.11,5.4,33.03-.22,49.42-3.53,10.3-5.93,20.83-3.11,31.69,7.15-2.21,13.09-5.89,20.09-5.84,7.72,16.77,23.22,25.57,40.46,24,2.62,1.19,3.53,4.39,2.72,9.58.97,4.73,4.52,8.41,10.66,11.04,3.68,4.98,8.86,8.59,15.55,10.83,6.15,3.52,10.95,18.03,1.52,13.98l-2.73.05c-49.83-34.4-110.17-36.03-162.78-9.19l-2.84-1.8c-2.13,1.51-3.46,1.43-3.64-.93-.25-3.46,8.31-10.64,11.82-11.12-1.74-2.06-2.1-3.7-2.59-6.4-1.44-7.93-3.43-22.39,3.24-27.24,2.58-12.27,8.11-20.33,9.74-30.36,5.24-7.44,5.31-16.24,4.91-25.18,1.31-.3,2.86-.32,3.39.68,3.94,7.51,7.86,15.19,7.57,23.87-.56,5.75-.78,38.83,6.62,39.43,1.4.11,7.74-4.76,9.25-6.12-2.57-6.23-7.1-18.29-.18-21.93,2.86-12.74,8.25-24.73,13.13-37.42l5.78-15c2.54-6.6,6.07-11.84,11.62-16.03Z"/>
          <path class="st11" d="M172.83,420.52l-1.7,4.5c-18.93,12.16-34.74,27.88-48.84,45.25-3.72,3.99-6.64,4.58-8.74,1.77-6.65.53-12.82.68-15.93,8.19-1.4,3.38-5.61,3.61-8.4,2.69l5.99-13.19c.76-1.64,3.31-3.32,2.66-5.92l1.64-1c.05-4.29,2.74-8,8.09-11.13,12.98-8.07,19.46-12.1,19.46-12.1-1.47-11.56-2.68-23.08-3.62-34.58-6.23-8.87-10.84-18.13-13.82-27.77l.48-2.42c9.1-2.26,18.57-3.42,28.4-3.5,0,0-1.35-8.43-4.04-25.3-.95-5.64.25-9.7,3.62-12.19l1.39-8.33c.7-.56,1.34-.96,1.76-.8,9.87,3.69,27.2,30.38,28.36,41.5,1,14.83,1.83,29.64,2.49,44.43,2.01,3.96,2.26,7.26.74,9.91Z"/>
          <path class="st10" d="M210.48,313.33c1.18,8.21,8.54,15.23,11.96,22.65l4.97,10.78c1.05,2.27,2.15,3.93,4.62,3.97-1.72,7.67-.35,15.75,3.9,23.04-4.79,3.12-8.51,6.48-13.79,8.27-18.09-16.99.79-45.84-16.76-67.25-.07-1.55,3.63-2.05,5.11-1.47Z"/>
          <path class="st13" d="M439.92,399.01c.87.28,2.62,1.09,3.17,2.29,3.8,8.32,9.2,14.69,14.62,21.24.87,1.05,1.44,2.35,3,2.8,1.61,3.73-.54,4.17-3.99,2.94-18.29-13.86-37.64-26.06-58.03-36.6l-17.88-5.99-3.23-3.81c-.13-1.94-.12-3.54.15-5.04,11.27,3.18,22.61,6.63,33.62,12.15,9.41,4.72,18.8,8.46,28.57,10.02Z"/>
          <g>
            <path class="st10" d="M462.13,144.35c-2.23,8.16-9.95,14.36-16.87,20.02l-31.86,26.04c-13.61,11.13-20.36,26.83-21.84,44.55-2.06,24.69.15,79.03,10.4,97.34l31.94,57c-2.33,3.46-6.6,3.81-12.83,1.05l-25.2-11.6c-17.27-4.2-33.67-10.57-49.21-19.09-2.65,13.66-28.31,14.19-39.97,13.66-.11,0,1.45.44,2.13.58,13.63,2.78,29.83-3.87,41.37-10.71,8.12,3.83,16.4,7.16,24.86,9.99l2.69,3.66c3.51,1.47,3.47,3.91-.15,5.04l-1.95,2.31-24.58-6.83c-9.46,2.04-18.96,4.26-28.49,6.64l-2.79-2.45c-2.42,4.85-10.39,2.74-15.11,1.48-11.88-3.16-21.6-11.59-26.94-22.61-6.54,2.04-13.11,3.63-19.68,4.77-3.06-5.86-3.79-12.39-2.2-19.6,5.91-16.19,8.58-32.43,8-48.71-1.99-5.41-2.42-10.28-1.3-14.6-1.38-10.14,19.59-8.06,18.87,1.27l2.41,2.08c-7.54,31.9-18.68,82.31,33.22,70.15-5.37-17.52-11.4-34.99-18.09-52.38-1.92-6.78-4.89-22.04,4.58-15.58,14.01,13.37,29.8,25.02,47.37,34.94l34.83,33.64c12.75,10.17,15.02,7.19,6.82-8.94-10.99-24.19-23.35-47.68-37.1-70.49-7.81-16.97-16.13-42.08-16.08-60.8l2.17-4.53,2.04-.22c2.93-3.25,6.32-2.09,10.17,3.48,5.78,8.67,10.62,17.9,14.53,27.7-1.46-5.16-2.39-10.42-2.8-15.78,2.39-17.82,1.59-35.26-2.41-52.31l1.38-4.77c3.59,4.53,6.8,9.91,8.78,15.54l3.01.25,8.01,22.81,4.86-14.14c2.86-9.95,12.63-24.76,12.55-7.11,20.21-25.76,31.87-59.46,22.92-91.94l1.44-5.11c-.1-.46-.74-1.72.87-2.91,11.58,18.07,18.97,38.48,17.65,61.52,6.96,0,8.7-8.19,13.79-7.52,1.4.18,2.94,1.36,3.77,3.2Z"/>
            <path class="st11" d="M364.47,169.74c5.47,15.96,6.04,32.69,4.01,49.93-1.34,11.42,2.33,21.89,5.93,32.35,2.21,6.41,6.04,11.89,5.5,19.59-11.36-15.17-24.34-61.49-36.31-60.19,8.59-14.02,17.34-29.98,14.57-46.61,4.05.53,4.85,3.09,6.3,4.92Z"/>
            <path class="st7" d="M433.89,389.31c1.7,3.03,5.99,5.32,6.03,9.7l-4.22,2.01c-18.85-7.03-37.64-14.3-56.36-21.81l-1.6-2.37c-9.37-2.65-18.33-5.88-27.48-11.33-3.9,4.77-8.8,5.18-13.94,7.28-13.74,5.62-31.08,7.73-42.53-4.09,15.74,3.19,28.46,2.8,42.24-1.92,2.77-.95,5.92-1.72,6.89-3.68,1.34-2.71.99-4.88,1.25-9.05,12.59,9.26,26.57,14.95,42.06,18.76,23.08,5.67,31.9,17.83,47.68,16.48Z"/>
            <path class="st7" d="M284.16,359.85c.75,1.1,1.84,0,.74-.74l1.85,1.85c-.75-1.1-1.84,0-.74.74l-1.85-1.85Z"/>
          </g>
          <path class="st10" d="M504.16,247.14l1.64,3.84c-7.74,19.74-9.67,39.46-2.32,59.75-.22,3.38.09,5.59.92,6.64-2.39,12.16-1.91,24.63-3.88,37.6l-4.72,31.04-7.16,29.97c.85.71,2.12,1.77,1.86,2.55-1.3,3.87-9.8,22.31-11.97,24.16-.65.55-2.04-.31-2.99-1.1-1.27-1.26-1.25-2.92-1-5.22,2.11-19.5,5.17-38.36,3.57-58.07-4.3-53.11-5.78-104.28,26.92-148.46,4.49-5.65,8.1-11.43,15.49-14.43-6.64,10.8-12.71,20.54-16.38,31.73Z"/>
          <path class="st14" d="M546.13,202.85c-5.66,12.52-7.67,26.24-11.53,40.04l-14.88,31.89c-6.61,14.16-12.41,27.87-15.31,42.58-.33.31-1.17.33-1.56.07-.5-.34-.65-1.53-.92-2.41-9.83-31.19-6.45-41.37,2.24-67.88,2.63.07,4.39-1.95,5.75-4.23,3.32-5.57,7.41-9.9,11.4-14.77,7.52-9.16,16.21-20.78,24.81-25.29Z"/>
          <path class="st7" d="M506.54,419.9c-.39,2.85-3.71,6.51.35,8.48.65,1.07-1.53,3.17-1.96,2.44l-3.54-10.04c-6.44,6.85-12.16,13.85-17.65,21.09-1.59,2.1-5.36,3.59-7.43,4.65-2.66.98-3.08-.26-.71-1.97l-.07-2.97c1.2-.43,1.9-1.37,2.62-2.92l10.48-22.69c3.57-7.73,10.35-13.88,12.83-22.87l1.74,22.53c-.06,2.23,1.34,3.78,3.33,4.27Z"/>
          <path class="st14" d="M530.74,297.07l-9.18,20.1c-.83,1.96-1.23,2.06-1.81,0,1.32-5.7,5.3-14.61,7.59-20.31l3.4.2Z"/>
          <path class="st10" d="M521.56,317.17c-.6,1.32-1,4.94-2.33,4.2-2.35-1.31.28-3.19.52-4.2h1.81Z"/>
          <g>
            <path class="st10" d="M635.86,148.1c8.36,41.01,6.93,91.81-24.85,122.95l-52.89,71.86c-13.05,21.41-25.74,42.47-38.07,63.15.84,7.11-5.9,15.47-11,20.63,1.26,2.69.33,3.19-2.17,1.7-3.61.65-5.3-9.09-.35-8.48,7.04-50.81,26.88-97.94,56.6-140.1,10.61-15.05,19.03-30.46,25.87-47.3,8.32-20.5,12.28-41.51,17.16-62.4,2.36,1.54,2.48,3.72,4.93,6.48,3.97-7.08,7.85-13.95,7.82-21.79l-.08-30.7c0-.3-.3-.64-.55-.7-1.3-1.04.35-2.41,1.18-1.1l.52.84c5.13,8.41,11.45,16.15,15.87,24.96Z"/>
            <path class="st11" d="M564.99,290.48c10.2-17.97,22.81-32.62,35.55-47.98,18.89-22.76,17.98-34.35,24.89-59.4l6.4-23.21c3.64,24.4,1.61,48.7-8.89,70.66-6.81,14.25-18.67,24.21-30.15,34.46-10.26,7.83-17.82,16.9-27.8,25.47Z"/>
            <rect class="st11" x="564.21" y="291.66" width=".98" height=".98" transform="translate(-41.18 484.87) rotate(-45)"/>
          </g>
          <g>
            <path class="st6" d="M210.48,313.33c-.8,3.33-2.63,2.99-5.11,1.47,2.42,5.26,3.14,9.52,2.11,15.19-.74,4.06-2.18,11-7.02,9.99-3.81,1.4-4.56-.57-5.75-3.83-5.78-38.18-13.11-77.06-33.46-110.62-40.4-54.04-70.73-114.55-88.4-179.33,5.03,40.29,10.22,81.36,20.04,120.63,4.47,17.87,13.7,34.72,23.35,50.27l78.5,120.15c-.47,3.57-1.27,5.52-5.05,4.15-41.14-24.66-92.71-60.37-113.94-104.64-17.48-36.45-19.98-78.53-19.62-118.37l3.14-76.19c-16.24,45.73-30.65,94.09-42.01,142.98-12.04,51.76-12.18,116.98-3.32,169.36,7.22,42.69,42.2,91.72,82.61,106.94l1.33,2.34c5.17.64,1.88,7.53-2.66,5.92l-2.76,2.62c-21.03-8.15-39.93-18.11-55.45-34.73-17.69-22.98-30.04-48.97-33.76-78.9-.38-3.05-1.17-6.37-3.23-7.98v-119.97c1.89-1.02,2.31-3.07,2.61-5.6,2.86-23.52,6.91-45.46,13.35-68.36L56.72,11.85c1-3.55,2.45-4.45,4.07-6.38l3.19.04c21.24,40.09,48.35,80.2,75.02,118.69,35.83,55.77,69.95,120.31,73.94,186.82l-2.45,2.31Z"/>
            <path class="st5" d="M95.21,469.73c3.92,2.24-1.68,13.24-5.99,13.19-1.91-.63-4.28,1.1-5.03,2.43-1.14,2.01-1.39,4.1-1.33,6.15l-9.27-18.46c-15.5-8.79-26.31-22.06-36.58-35.41,2.02-.05,3.24,1.01,4.78,2.36,13.66,12.01,28.92,20.74,45.94,27.1,2.55.95,4.55,3.25,7.48,2.64Z"/>
            <path class="st14" d="M204.65,103.7l.22,1.86c29.1,28.76,44.14,71.04,49.12,111.2,3.32,26.77,3.23,55.8-3.05,81.56l2.15,2.1c-6.19,15.2-11.95,30.72-17.28,46.56l-3.77,3.75c-4.52,6.57-13.21-11.43-9.59-14.75l-2.43-10.9c.65-76.69-30.61-148.44-76.79-208.84-26.94-33.42-50.63-68.92-71.09-106.5L70.33,0c4.09.03,6.63,1.35,10.16,4.17l40.5,32.47c12.51,10.03,24.54,19.15,36.98,29.23l46.68,37.82Z"/>
            <path class="st13" d="M299.84,216.82c-1.95-.42-3.53-1.24-6.7-.99.84,11.49-.27,22.17-3.1,33.41l-8.61,34.32c-2.73-2.61-6.02-4.45-9-5.04-5.18-1.04-7,1.59-9.88,3.77.27,2.92-1.19,5.68-4.38,8.29-1.75,4.28-4.16,6.86-7.24,7.74-.54.26-1.14-.21-1-1.26,9.45-70.69-.2-135.42-46.03-191.64-1.86-.28-.79-2.4.74-1.72,14.98,12.14,28.98,25.25,42.78,39.61l22.31,23.23c12.88,15.35,21.87,32.82,30.1,50.28Z"/>
            <path class="st11" d="M70.33,0c14.6,29.89,32.27,57.55,52.52,84.37,16.41,21.74,31.99,42.24,46.63,65.18,35.24,55.21,56.27,121.23,52.96,186.43l-3.25-.34c-2.86-2.77-8.67-15.59-10.53-19.95-.35-.83.71-1.78,1.82-2.35l-3.35-23.31c-4.65-32.35-17.76-70.98-32.74-99.78-7.13-13.72-14.72-26.22-22.58-39.5-11.38-19.22-22.28-37.39-35.67-55.44-15.04-20.28-27.89-41.08-40.29-63.03l-15.06-26.81C63.57,2.15,65.73-.03,70.33,0Z"/>
            <path class="st5" d="M200.46,339.98c2.41,1.77,2.69,4.38.87,7.82l-7.27,20.35-3.34,2.18c-1.25,1.6-2.7,2.13-3.83.51-9.05-20.09-26.04-35.05-45.21-45.65-.53-.29-1.33-.08-2.21.28,1.74,3.32,3.79,7.62-1.39,8.33l-2.34,2.58c-16.58-12.89-31.7-27.54-45.36-43.95-2.03-1.95-6.58-5.54-9.11-6.14-6.9-1.64-7.34,42.98-6.7,48.58-.34,7.77-.72,15.91-3.11,23.38-5.47,17.13-20.47,1.65-26.44-7.62-16.85-26.15-15.32-86.94-14.48-117.84,5.16-46.5,11.11-92.93,17.84-139.29C26.14,178.9,4.23,268.99,21.89,357.46c8.79,44.04,38.41,80.45,78.03,100.61,1.79,1.11,1.65,2.69-.4,4.74,1.32,2.31.41,2.82-1.64,1-7.97.66-21.13-7.69-28.46-14.46-19.45-17.94-37.2-38.22-49.08-62.26-14.16-28.66-14.97-95.77-14.99-132.84-.01-25.16,4-48.74,10.05-73.03,8.14-32.71,15.7-64.42,26.5-96.3l21.49-63.43-3.54,69.64c-2.52,49.6-2.03,108.08,22.08,151.53,11.22,20.22,27.51,35.31,44.46,50.69,20.94,16.78,40.66,34.03,66.97,46.8l-75.46-115.39c-15.54-23.77-25.49-43.12-31-71.42-8.02-41.17-14.99-81.57-18.38-125.02,8.15,15.05,9.96,31.1,15.8,46.46,19.52,51.3,34.47,87.24,67.78,132.06,28.54,38.4,37.9,78.54,44.48,124.89.47,3.31,1.33,6.4,3.89,8.26Z"/>
            <path class="st6" d="M138.08,333.81c-2.22,13.25.02,26.63,4.1,40.34-10.25.63-19.86.65-30.52,2.07,2.1,9.61,8.22,16.73,13.14,24.84,4.29,7.07,1.15,26.27,5.88,41.34-13.02,3.77-22.5,11.62-31.17,20.41-.21-2.39-2.12-3.32-4.42-4.52-40.34-21-67.64-58.19-76.43-102.82-5.85-29.69-7.56-58.51-5.33-88.93,3.48-47.62,11.46-93.35,23.5-139.39,6.56-20.19,8.36-40.42,18.15-60.68l-19.82,145.25c-2.79,20.48-2.32,39.81-1.62,60.46,1.06,31.19.58,70.45,24.79,89.16,2,1.55,4.51,2.25,6.79,1.49,1.56-.52,3-2.96,3.7-5.38,6.17-21.45.06-45.34,5.7-66.01.77-2.84,4.18-8.97,7.59-7.66,8.84,3.41,14.52,11.35,20.58,18.09,9.04,10.06,18.26,19.2,28.43,28.14,2.3,2.03,4.22,4.22,6.95,3.81Z"/>
          </g>
          <path class="st10" d="M190.72,370.34c-2.36,11.2-2.71,22.5,1.66,34.3-4.79,3.54-8.81,6.32-12,10.34.68.63,1.21.77,1.5,1.05-2.78,1.16-5.8,3.97-9.06,4.49-12.52-24.39,6.47-45.41-17.33-78.07l-16.02-16.98c.17-.71-.46-2.37,1.01-3.06,19.35,9.09,35.53,22.47,45.53,40.74,1.54,2.82,1.89,6,4.71,7.18Z"/>
        </g>
        <path class="st13" d="M500.01,490.04c-13.62-5.5-28.44-7.3-43.03-10.38-13.62-2.88-26.98-1.02-37.44,6.59,1.04-15.29,20.42-11.41,36.69-9.4s30.92,4.59,43.78,13.19Z"/>
        <g>
          <path class="st10" d="M740.83,291.49l2.66,3.7c-1.23,12.17-3.5,24.18-6.81,36.01l12.37-5.66c16.21-5.89,11.07,4.62,6.03,13.84l-26.88,35.49.96.96c13.28-8.78,26.46-17.92,39.55-27.42l3.19,1.5c4.04.24,3.16,4.69-.78,4.94-11.14,19.56-29.64,38.36-50.85,47.12-10.36,4.28-17.57,6.06-10.76-5.74-6.77,2.74-12.08,1.33-15.95-4.75-5.73,7.83-44.98,20.29-48.34,7.75-1.76-6.57,9.79-14.44,15.39-11.27-.14-2.79,2.61-2.95,2.8-.05.23-1.54,1.53-1.93,2.74-1.08.33-.76.72-1.47,1.27-2,2.14-2.05,23.01-4.68,24.56.73.7.64,1.24.52,1.69-.3-2.81-.72-3.12-3.3-.95-7.74l-11.48,3.35-2.64-2.1c-9.45.07-18.91-.33-28.4-1.22-10.46,1-20.84,1.53-31.15,1.59l-25.02,11.27c-7.59.52-5.36-5.23-1.44-9.61,5.66-4.42,11.66-8.36,18-11.81,4.37-3.24,8.35-9.73,4.49-15.13-2.74-3.83-27.16,15.16-29.4,19.57-1.41.9-3.4,2.05-4.71,1.31-4.7-2.67,5.56-24.66,8.13-29.22,6.53-11.58,13.65-18.98,26.07-23.52l1.4-2.97,44.33-13.47,6.31.56c14.7-1.64,30.51-4.86,44.21-8.97l12.86-24.53c3.43-6.55,3.57-12.88,5.11-20.84,7.44,13.01,11.39,26.33,11.37,39.72Z"/>
          <g>
            <path class="st11" d="M674.18,349.29c-19.51-3.53-38.79-4.13-60.33-3,14.06-7.01,29.64-10.89,45.86-7.1,23.35,5.45,43.08,3.18,59.86-14.14-.97,8.18-7.49,11.35-12.46,15.71-9.28,8.14-20.34,10.81-32.92,8.53Z"/>
            <path class="st11" d="M771.91,349.92c-1.68.86-4.3,1.93-6.4,3.76-9.61,8.41-20.44,14.28-31.16,21.18-1.81,1.16-3.41,2.12-5.18.97l24.05-24.79c6.14-6.33,14.15-11.23,23.44-8.79-1.16,3.45-3.53,5.67-4.75,7.66Z"/>
            <path class="st7" d="M693.71,385.27c-.33.86-1.02.89-1.69.3-8.55-1.05-17.43.29-25.83,1.27l-2.74,1.08c-.69-.11-2.2-.35-2.8.05-.59-.75-1.28-1.2-3.58-2.27l21.59-6.93,20.98-6.11c-2.17,5.29-6.19,7.8-5.91,12.61Z"/>
            <path class="st13" d="M666.18,386.84c-.35.97-1.74,1.24-2.74,1.08l-.11-1.96c-.04-.68,1.09-1,1.66-.56.36.28.89.87,1.19,1.43Z"/>
            <path class="st13" d="M692.01,385.57l1.69-.3c.29,1.34-1.3,1.98-1.69.3Z"/>
            <rect class="st10" x="706.25" y="403.36" width=".98" height=".98" transform="translate(-78.56 618.02) rotate(-45)"/>
          </g>
        </g>
        <g>
          <path class="st14" d="M172.16,745.78c1.09-.96,1.61-2.76.83-3.83-8.19-11.18-13.65-23.17-20.17-35.32s-12.89-23.93-16.49-37.6c-.59-2.24.33-3.83,2.44-4.91,4.52-1.17,12.48,6.24,12.47,10.76.43,4.09,3.38,6.12,6.69,8.96,37.77,32.46,88.19,43.26,136.43,28.43,31.87-9.8,59.06-30.18,80.34-55.6l23.61-31.75c7-9.41,18.41-13.07,29.26-16.25,14.05-4.13,27.92-3.18,40.29,5.32,6.17,4.24,12.58,9.51,16.9,15.94,8.34,12.4,14.28,25.28,20.28,39.05,19.58,44.93,50.35,79.38,97.2,100.09-37.41,37.78-91.92,54.85-144.51,58.87-72.17,5.51-150.87-4.06-215.86-36.49-25.42-12.68-48.08-28.61-69.71-45.65Z"/>
          <g>
            <path class="st15" d="M470.5,718.54l-4.01.18c-13.68-11.42-38.97-11.94-50.04,2.78l-3.16.36c-14.25-10.91-25.77-23.93-35.96-40.63,17.06,5.57,32.47,7.66,49.52,8.5,22.1,1.09,43.4,1.47,65.67-2.85-5.22,13.14-12.91,22.55-22.03,31.66Z"/>
            <path class="st6" d="M443.77,628.86c.83.56,1.44.47,1.8-.26,1.82-2.97,4.64-1.67,3.92,1.52,10.52,4.45,12.42,8.91,5.7,13.39-5.86,1.29-10.71,3.59-14.55,6.91-2.1,6.27-5.88,10.04-11.35,11.29.5-.39-.3,0-.67-.24-.32-.99-1.21-1.58-2.67-1.75-10.25-4.82-18.3-14.17-19.39-26.14-.7-7.71,3.54-12.31,10.07-14.62,1.6,2.56.57,5.47-3.1,8.71,9.84-.85,19.65-1.5,29.43-1.95l.81,3.12Z"/>
            <path class="st8" d="M470.5,718.54c-15.18,15.17-39.78,16.67-57.2,3.32,1.66-4.46,4.95-7.33,9.08-9.4,16.15-8.08,34.71-6.31,48.12,6.08Z"/>
            <path class="st13" d="M455.9,742.47c3.96-1.62,7.62-4.21,12.02-2.62-5.55,11.53-17.53,17.13-28.8,17.46-19.2.57-31.77-14.73-30.61-18.31,1.32-4.07,18.55,15.23,47.39,3.46Z"/>
            <path class="st13" d="M429.29,661.72l5.35-3.05c12.94.32,25.55-5.61,25.43-20.07l2.61-2.02c5.3,4.71,8.62,11.2,7.11,19.24-1.16,6.15-7.2,13.32-15.06,14.36-9.23,1.23-19.09-2.22-25.44-8.47Z"/>
            <path class="st5" d="M455.52,630.83c3.7.43,5.15,3.98,7.16,5.76,1.37,11.65-6.23,21.23-17.9,23.92l-15.48,1.21c5.52-3.68,6.47-9.44,9.83-13.94,3.63-4.85,12.28-4.32,17-8.05,3.75-2.97-6.62-4.91-6.62-9.61-.06-2.44,1.94-2.21,6.03.7Z"/>
            <path class="st10" d="M455.52,630.83l-6.03-.7c-1.15-.13-2.24-1.76-3.92-1.52-.08,1.28-1.02,1.23-1.8.26-8.17-3.12-20.54,4.09-33.98.99,1.09-5.37,5.07-7.03,6.84-10.87,13.31-4.71,29.55,1.23,38.89,11.85Z"/>
            <path class="st13" d="M428.62,661.49l-2.67-1.75,2.09.11c.72.07,1.18.84.58,1.64Z"/>
            <path class="st5" d="M443.77,628.86l1.8-.26c.87,1.67-1.65,2.94-1.8.26Z"/>
          </g>
        </g>
        <g>
          <path class="st1" d="M748.75,496.86c.31-.63.67-1.21,1.17-1.6,2.75-2.12,14.31,11.07,16.89,14.02,12.57,14.38,27.54,32.74,31.76,51.13l6.87,9.48c3.03,4.18,3.76,8.74,5.66,13.89,3.98-.53,12.2-2.26,14.07,1.79,2.13,4.62-.79,11.24.6,16.14l14.66,51.6,8.67,31.64c1.29,4.71-.91,13.14-5.07,16.16-2.87,2.09-11.06-2.65-11.47-6.05l-4.1-33.94c-1.83-15.11-1.91-29.9-8.8-43.95-4.35,2.13-7.71,2.74-11.21.93-.08,12.54-2.54,23.5-6.04,34.44l-4.3,13.44c-6.7,14.35-14.43,28.06-24.38,40.34l-17.35,17.41c-42.41,37.52-95.05,39.86-148.09,24.03-25.34-7.56-46.19-21.33-65.2-38.28-2.66-5.33-5.11-10.76-7.37-16.28-41.5-52.11-39.01-131.81,3.27-183.14,55.06-66.83,145.62-59.74,209.75-13.22Z"/>
          <path class="st3" d="M542.98,680.26c2.98,1.4,5.11,3.9,7.78,6.47,30.7,29.53,69.92,47.49,112.54,49.63,36.82,1.84,69.77-13.57,92.27-42.58,24.22-31.22,32.94-71.72,23.23-109.9,4.46-.88,7.93,1.72,9.18,6.4,6.04,22.53,3.74,45.37-3.79,67.54-6.42,18.88-14.33,36.95-28.96,51.15-56.95,55.29-143.3,47.63-198.28-6.2-6.08-7.37-12.47-13.56-13.98-22.52Z"/>
          <g>
            <path class="st13" d="M778.8,583.88c.86.6,1.69,1.23,2.38,1.99,7.69,8.49,3.33,48.95.32,60.93-11.18,44.34-44.67,81.5-90.32,90.37-51.28,9.96-116.96-15.92-148.19-56.9-26.76-34.8-34.26-69.74-20.85-113.63,12.51-40.93,42.49-74.41,83.09-88.94,53.47-19.13,119.75,13.51,152.02,60.17,9.95,14.39,17.49,30.03,21.55,46.02Z"/>
            <path class="st8" d="M571.31,654.08c.21,1.89-.85,3.35-3.16,4.38-8.1,34.58,28.29,53.79,57.88,59.74,38.79,7.81,97.88-11.28,101.42-55.95-.7-6.58-.91-13.14-.64-19.68,9.42-20.64,9.96-42.58,5.06-66.86,11.71,14.38,16.29,31.58,18.76,48.9.08.54.75.78,1.32.6-1.75,19.8-6.88,39.26-18.25,56.85-19.95,30.86-55.88,49.21-93.05,45.68-30.91-2.93-59.93-17.26-80.77-40.65-18.43-20.69-26.33-49.65-26.08-76.85.12-13.47,4.69-24.87,8.68-36.98,5.92-17.93,15.88-34,28.79-46.43,8.6-1.27,16.74-9.85,26.38-9.87-20.17,13.07-32.35,31.1-39.72,52.61-6.89,20.13-8.3,41.32.65,61.12,3.71,8.21,7.47,16.57,12.72,23.39Z"/>
            <path class="st5" d="M571.31,654.08c14.63,18.99,35.59,33.05,59.36,39.4,41.63,11.12,80.1-13.06,96.13-50.92,3.36,4.85,4.13,21.03,2.75,28.21-1.9,9.9-7.95,19.45-15.77,25.42-6.95,5.31-12.63,11.76-20.7,15.4-13.48,6.07-28.27,10.92-43.6,11.37-25.81.77-51-8.2-70.95-23.93-10.71-8.45-14.51-22.24-14.28-35.14-1.09-5.49,2.46-9.25,7.05-9.82Z"/>
            <g>
              <path class="st15" d="M751.95,625.2c-1.07,1.17-2.22,1.47-3.47.68-1.96-13.36-5.86-26.02-11.72-37.98,1.15,13.88,1.87,39.95-5.72,51.8-.95,1.49-2.63,2.26-4.22,2.86.9,10.25-8.27,21.2-15.05,28.65-40.84,44.81-103.01,30.86-139.83-11.97l-.61-5.17c-2.67.36-3.68-.77-5.12-2.49-12.07-14.4-18.11-42.29-16.03-60.74,2.72-24.05,14.44-48.39,31.92-65.19-4.98,3.52-8.58,3.91-10.81,1.17,13.09-12.46,28.38-23.73,46.84-28.19,49.93-12.07,95.75,16.79,120.16,61.19,11.24,20.45,15.66,42.83,13.67,65.38Z"/>
              <path class="st11" d="M629.08,570.89c-13.63,8.19-29.29.68-34.94-12.88-4.22-10.1-2.92-20.24,4.17-27.51,7.45-7.63,18.13-10.22,28.21-5.06,8.51,4.36,13.34,12.26,14.48,20.85,1.24,9.37-2.96,19.21-11.91,24.59Z"/>
              <circle class="st14" cx="650.04" cy="568.55" r="4.78"/>
              <rect class="st8" x="731.07" y="574.35" width=".98" height=".98" transform="translate(-192.2 685.65) rotate(-45)"/>
            </g>
          </g>
        </g>
        <g>
          <path class="st3" d="M352.84,431.31c5.45-3.57,15.4,7.86,18.55,12.72,3.21,3.44,3.71,6.26,1.49,8.45,11.18,18.96,16.9,42.36,19.74,64.34,16.26,125.97-92.53,212.18-211.46,172.23-5.38-2.97-10.69-4.89-15.92-5.77l-13.98-8.39c-4.62-2.77-8.56-6.94-12.47-10.76-6.02-5.88-12.42-12.28-16.36-19.51-39.87-68.71-27.48-157.71,37.53-207.53,59.26-45.41,132.15-46.93,192.9-5.78Z"/>
          <path class="st1" d="M377.92,455.6c-.27,2.08.52,4.17,1.68,6.43,7.51,14.73,11.17,30.09,14.32,46.3,3.91,20.1,4.92,39.58,2.53,59.94-.88,7.44-.77,15,2.68,21.58,4.15,2.74,0,9.95-4.02,11.63-23.06,49.86-60.4,85.12-115.78,97.69-38.91,8.83-80.4,4.31-114.09-15.91-.03-.89-.31-2.31.65-3.03,48.96,23.73,106.67,21.99,153.13-6.09,38.88-23.5,64.73-60.8,71.04-105.8,3.08-21.98,1.4-42.91-2.08-64.74-2.92-18.29-8.61-34.34-15.09-51.12,2.66-3.09,6.26-.68,5.04,3.13Z"/>
          <path class="st7" d="M350.23,426.98c4.2-1.93,5.65,1.13,2.61,4.33-32.69-15.8-74.73-32.44-111.23-26.21-22.92,3.91-44.36,12-64.25,23.6-22.26,12.99-39.24,30.45-52.84,52.2-28.89,46.21-28.01,100.81-6.51,150.32l4.4,13.39c-1.16-.9-2.96-1.93-4.2-3.97-9.64-15.81-17.26-32.54-21.5-50.07-7.39-30.5-3.2-54.65,3.33-84.4,5.44-9.29,7.82-22.72,13.51-34.14,3.29-.26,7.85-4.3,10.14-7.24,15.64-20.03,29.2-30.76,49.14-44.28.72-4.02,5.55-7.24,9.06-4.49l24.74-10.37c30.91-11.35,64.39-12.39,96.08-3.25,17.97,5.18,32.87,14.41,47.52,24.56Z"/>
          <path class="st7" d="M337.96,446.59c-26.5-15.79-57.38-24.53-88.88-20.27-40.52,5.48-74.81,28.77-97.9,61.68-26.21,37.36-32.56,82.6-18.95,126.08-.25,1.21-1.22,2.76-2,2.44-6.81-2.86-11.38-26.5-12.7-34.43-11.88-71.27,35.91-147.94,107.15-162.64,36.34-9.65,74.64-3.64,105.94,18.56,3.33,2.36,7.22,3.83,7.34,8.59Z"/>
          <path class="st1" d="M224.68,419.44c-9.38,2.49-18.09,6.55-27.17,11.44-64.88,34.91-96.37,110.47-69.44,179.1,1.01,2.57,2.01,4.22,4.16,4.09,3.19,10.18,7.94,19.24,15.74,27.12-2.07.71-3.65.15-5.26-1.67-10.5-11.83-20.83-24.43-25.85-39.95-4.24-13.11-7.09-27.01-6.98-41.04.28-34.81,12.19-68.62,33.95-95.48,19.97-24.65,47.3-39.21,78.13-44.89,1.52-.28,2.91.8,2.72,1.28Z"/>
          <g>
            <path class="st10" d="M337.96,446.59c13.07,7.79,20.49,18.92,27.4,32.59,33.72,66.72,16.49,146.88-48.48,184.08-18.59,10.64-37.88,15.97-58.76,18.73-34.26,4.52-72.85-6.46-97.94-29.81-2.8-.38-4.55-1.68-5.6-4.31l-6.6-6.67c-5.81-2.84-16.57-16.82-17.28-23.02-.16-1.45.72-2.86,1.54-4.1-21.57-47.31-5.63-103.52,27.68-141.66,42.43-48.59,119.4-68.59,174.73-29.63,1.43,1,2.59,2.19,3.31,3.8Z"/>
            <path class="st1" d="M160.17,652.18c-1.77.37-4.66.02-4.87-.99l-.72-3.32,5.6,4.31Z"/>
            <path class="st8" d="M166.61,565.9c-12.82,17.92-4.66,48.49,7.51,66.12,45.63,66.11,166.23,35.49,172.85-43.96,7.36-10.83,12.16-23.62,15.06-36.21.64,18.45-.61,38.04-8.96,55.67-11.53,24.35-31.72,42.41-55.71,54.44-26.78,13.44-57.6,15.44-85.85,5.37-27.89-9.93-50.21-37.38-57.07-65.12l-2.09-17.7c-4.63-39.31,16.62-88.94,51.86-109.27-2.7,5.99-6.89,9.54-10.91,13.76-18.04,21.84-28.46,49.17-26.69,76.9Z"/>
            <path class="st5" d="M166.61,565.9l.19,2.91c-.64.49-.79.89-.03,1.31,3.23,16.24,9.21,32.65,20.26,45.7,14.33,16.93,33.62,27.04,55.6,27.95,16.8.7,32.01-1.69,47.33-8.73,22.87-10.5,43.1-26.53,57.01-47,1.17.18,2.15,1.03,2.05,2.63-1.26,20.03-10.24,37.62-25.28,50.77-32.31,28.27-76.62,38.17-115.78,21.44-34.86-14.89-54.9-50.18-49.47-87.12.74-5.04,4.16-9.32,8.13-9.88Z"/>
            <g>
              <path class="st15" d="M362.03,551.84c-.45,7.08-1.68,14.01-3.71,20.79-2.11,7.7-5.89,12.84-11.35,15.42.14,1.03.23,2.05.12,3.05-1.2,11.53-36.07,36.04-47.11,42.05-57.94,31.54-121.4,7.45-135.11-58.66l1.9-4.36c-.66-.37-.62-.81.03-1.31-3.32.58-2.77-1.42-.19-2.91-1.46-1.09-2.36-2.51-2.93-4.21-1-2.94.57-13.42,1.17-17.38,2.88-18.96,11.04-36.63,22.24-52.04-5.72,5.94-10.68,12.56-14.92,19.63-18.88,31.41-18.1,54.11-15.8,88.21.08,1.14-.72,1.8-1.93,2.09-18.53-56.38,15.86-120.8,67.44-149.51,15.36-8.55,32.95-12.02,50.29-11.38,29.26,1.08,54.02,18.85,69.98,42.99,13.5,20.41,19.05,43.86,19.88,67.54Z"/>
              <path class="st11" d="M260.79,519.23c-8.25,3.35-16.2,1.34-22-3.63-4.95-4.25-7.97-11.86-6.27-19.56,2.73-12.39,12.11-22.64,24.46-25.84s23.63,5.63,24.01,18.81c.36,12.43-8.29,25.39-20.2,30.22Z"/>
              <circle class="st14" cx="289.2" cy="511.95" r="5.28"/>
              <path class="st8" d="M166.77,570.13c-1.13.31-1.74-1.28.03-1.31l-.03,1.31Z"/>
            </g>
          </g>
        </g>
      </g>
    </g>
  </g>
</svg>