<?xml version="1.0" encoding="UTF-8"?>
<svg id="Layer_1" data-name="Layer 1" xmlns="http://www.w3.org/2000/svg" viewBox="0 0 1024 1024">
  <defs>
    <style>
      .cls-1 {
        fill: #100e0b;
      }

      .cls-2 {
        fill: #724859;
      }

      .cls-3 {
        fill: #743514;
      }

      .cls-4 {
        fill: #8a61a8;
      }

      .cls-5 {
        fill: #e1a996;
      }

      .cls-6 {
        fill: #462941;
      }
    </style>
  </defs>
  <path class="cls-4" d="M166.67,727.25c-3.5,1.78-7.44,6.62-12.36,3.9-5.62-3.1-2.08-9.84-3.32-11.78-.76-1.18-8.8-.92-10.07-6.34-1.98-8.44,7.41-8.43,5.5-12.84-1.24-2.85-1.17-7.51,1.94-8.95s6.9-.54,10.29-.62c.53-3.37,2.01-5.77,3.6-7.36,2.13-2.13,5.65-2.62,8.35-1.15s3.13,4.96,4.21,7.78c3.69-.89,7.81-1.99,10.81.13,4.13,2.92,1.04,8.9.12,12.49,4.4,3.2,9.04,7.78,5.17,13.45-1.66,2.44-5.81,2.89-9,3.85-.31,3.47.29,8.07-2.4,10.46-3.76,3.35-8.75.19-12.85-3.02ZM174.1,707.04c0-4.14-3.35-7.49-7.49-7.49s-7.49,3.35-7.49,7.49,3.35,7.49,7.49,7.49,7.49-3.35,7.49-7.49Z"/>
  <circle class="cls-5" cx="166.61" cy="707.04" r="7.49"/>
  <g>
    <g>
      <path class="cls-5" d="M798.86,798.33l-27.86,34.65c-4.68,5.82-10.07,11.45-17.55,13.42-6.56,1.72-13.19-1.19-17.93-5.8l-24.77-24.06-28.63-19.4c-22.6-15.31-44.59-30.56-63.61-50.22l-17.24-17.83c-3.49-2.16-7.79-2.66-11.82-1.61l-31.62,8.28c-5.97-28.97-7.36-58.69,4.17-85.82l36.58-.12c14.82,1.16,27.56,6.54,38.78,16.32,23.41,20.4,44.26,42.5,65.62,65.11l38.39,40.62c1.81,1.92,4.44,4.49,7.18,4.12,9.08-1.23,16.87-5.48,25.05-9.38,10.53-5.02,20.3-10.3,29.55-17.41,5.88-4.51,12.77-8.67,17.03-5.72,4.69,3.24,3.33,11.63.51,19.16-4.98,13.24-12.74,24.39-21.84,35.71Z"/>
      <path class="cls-5" d="M820.63,739.06c-4.52-1.89-10.24.02-13.97,2.74-13.04,9.48-26.06,17.66-40.94,23.95-6.21,2.63-11.84,6.02-18.83,5.99l-22.81-24.53-25.55-26.53-49.87-49.94c-22.65-22.68-41.99-26.71-74.33-25.41.03-3.09,2.57-8.53,5.73-10.32l36.64-1.1c20.63-.62,39.4,7.11,55.37,20.53,27.18,22.83,52.13,47.31,78.52,71.08l18.47,16.64c2.92,2.63,6.28,3.33,9.74,1.57l21.13-10.77c11.47-5.85,21.88-12.13,32.18-19.65,2.45-1.79,6.26-1.57,8.01-.57,8.49,4.84-4.29,28.33-12.21,40.1-.86-4.98-1.17-11.22-7.27-13.78Z"/>
    </g>
    <path class="cls-1" d="M583.63,630.61c35.01-1.08,65.23-2.93,93.54,22.7l75.92,68.75,21.57,18.72c9.11-2.85,16.5-7.87,24.74-12.28s16.16-7.96,23.35-13.65c3.62-2.87,7.11-5.39,11.79-6.41s10.34.47,11.78,5.35c4.47,15.17-13.89,38.61-21.78,52.59-6.72,11.92-12.75,23.03-21.47,33.75l-31.77,39.07c-10.65,13.1-27.46,15.51-37.75,5.37l-17.08-16.82c-6.2-6.1-12.47-11.45-19.82-16.22l-35.27-22.9-25.21,25.43c-35.49,30.06-80.41,41.98-126,48.08-25.89,3.46-51.16,4.18-77.37,3.22l-35.21-2.52c-46.3-3.31-119.95-15.92-159.71-38.37-20.6-11.63-39.08-26.38-54.82-43.69-4.72-5.2-6.7-13.72-3.23-19.1,4.07-6.31,10.58-9.69,16.67-13.37,8.24-4.98,15.21-10.49,22.8-16.28l23.8-18.17c23.58-16.03,50.09-25.68,77.77-31.86l-.74-21.55c-.36-46.51,4.48-92.23,14.86-137.57,7.15-31.21,18.22-66,39.33-89.93-23.53-6-45.76-14.05-63.2-29.4-33.5-29.27-21.2-73.69-4.23-110.82,9.87-21.6,20.59-41.93,31.89-62.85,8.34-15.44,17.61-29.62,30.49-41.42,15.76-14.43,34.01-23.92,55.16-27.87,48.9-9.15,109.03,6.46,137.96,48.62,34.33,20.48,32.78,68.69,8.41,97.69l-4.97,19.12c-3.6,13.87,4.94,20.17,7.21,28.36,1.61,5.82-1.25,11.04-6.72,13.06l-9.52,3.5c-17.44,39.92-46.84,66.65-91.84,54.7-1.72,2.18-2.24,4.41-1.98,7.06,12.41,5.7,22.46,14.06,32.21,23.7,14.39,14.24,27.41,29.16,39.21,45.63.55,2.49-1.81,5.34-4.17,7.41l19.72,25.44,11.97-4.82c15.73-6.33,32.67-5.06,47.69,2.89,3.65-1.93,6.69-4.06,9.79-6.92-1.52-16.58-4.23-28.49,11.97-34.49l35.2-13.04c7.17-2.66,16.69-5.11,21.99-10.83,10.95-21.78,37.74-19.47,57.81-7.58,19.37,11.48,32.99,31.01,35.48,53.41,1.8,16.22-8.96,29-25.45,29.01-.62,8.44-5.77,14.28-12.64,18.38-2.1,5.96-6.34,10.43-13.11,10.96-3.09,5.47-8.37,8.5-15.05,7.66-2.6,4.5-6.39,6.27-11.39,7.02l-12.29-2.42-11.14,6.5c-9.59,5-20.01,1.69-25.99-7.09-.46-.81-2.66-3.62-3.99-2.91-28.29,14.91-57.69,30.67-89.08,36.1-16.08,2.78-31-2.03-41.82-14.46-3.31,1.1-5.79,2.48-8.39,4.66l4.15,26.51,53.02-4.17,14.96,1.36ZM393.77,322.44c-.96-19.64,12.77-35.01,29.73-32.98,9.48,1.14,16.37,8.3,20.06,16.61l13.37.1c36.56-3.22,66.4-19.21,90.43-46.78l11.46-16.46c.93-1.34,1.74-2.03,3.22-1.7,1,.23,1.31,1.27,1.91,2.42,8.2,15.95,9.32,33.08,8.8,51.96,9.27-11.01,11.48-25.1,11.54-38.74s-4.78-27.02-14.74-36.81l-10.61-8.16c-9.99-14.7-23.32-25.83-39.44-33.9-32.08-16.06-69.29-20.52-104.38-10.9-15.03,4.12-28.44,11.79-40.14,21.92-5.36,4.64-10.12,9-14.44,14.68-10.4,13.69-18.41,28.38-26.3,43.7l-12.92,25.07c-11.15,21.64-26.86,56.55-26.88,79.39-.01,13.88,1.91,27.78,10.54,38.9,10.91,14.06,26.21,23.11,42.71,29.25,10.51,4.87,21.08,7.48,32.38,9.85,15.17,3.19,30.05,5.12,46.05,4.12-9.09-26.95-14.99-52.22-9.97-80.15.13-1.92-1.04-3.96-2.9-4.61-11.39-3.96-18.84-14.03-19.46-26.75ZM437.55,408.64c35.97,23.02,74.29,22.53,99.63-12.66-18.5-1.56-30.43-17.8-24.01-17.83,2.23-.01,10.48,14.94,26.97,13.47,6.3-6.81,9.14-16.7,14.02-24.33l12.9-5.25c3.24-2.35,2.44-7.47.17-10.66-6.26-8.78-7.86-18.5-4.81-28.99,7.34-25.28,9.68-50.56-1.33-74.82-26.8,42.35-71.57,64.69-120.8,62.96-2.33-7.25-6.48-13.38-12.59-15.6-7.56-2.75-14.85-1.22-20.76,4.26-9.21,8.53-11.87,23.04-5.86,34.32,4.15,7.79,11.88,11.6,20.51,13.66-6.43,29.4-1.64,58.28,9.12,85.79.61,1.56.5,3.5-.63,4.56-.76.71-2.55.39-4.94,1.62,8.82,6.33,26.38,15.42,31.31,10.89,2.32-2.14.81-15.63,3.57-25.87-10.14-3.43-28.53-12.03-25.81-15.44.53-.66,1.84-1.03,3.33-.08ZM387.67,454.34c-.96-.54-1.21-2.38-.79-2.95,2.39-3.26,27.94-5.84,41.83,15.51,7.83,12.03,14.12,24.5,18.64,38.22l10.08,30.64c-.54,2.59-4.2,4.68-6.82,6.33l10.6,21.8,36.33-11.66-15.07-66.31c-.4-1.75.38-3.03,1.74-3.08.88-.04,2.13.57,2.17,2.17l11.36,48.34c12.77-8.53,23.53-18.25,32.46-30.46-12.88-16.53-25.53-32.07-40.27-46.16-8.59-7.53-16.48-14.88-26.99-19.44-2.28,5.95.17,14.2-4.69,16.87-9.63,5.29-30-7.09-40.6-15.58-13.15-.46-25.68-2.13-38.81-4.35-20.69,21.59-31.6,55.27-38.63,84.16-9.91,40.71-14.7,81.55-16.13,123.46-.55,16.2.41,31.54,1.95,47.56.27,2.79,3.17,3.62,5.65,3.8,46.53,3.31,102.56-13.15,144.49-33.85,12.65-6.61,24.29-13.16,35.28-22.54l-3.86-28.1-26.77,12.96c-9.74,4.72-20.2,6.91-30.96,7.87-15.21,1.35-27.55-5.56-36.47-17.59-10.1-13.62-17.67-28.39-24.79-44.24l-12.3,1.48c-5.08-11.73-17.04-47.12-12.81-48.1.92-.21,2.16.02,2.51,1.39,3.63,14.36,7.24,28.25,12.97,42.6,18.09-3.14,34.89-9.22,51.57-16.38,8.1-3.48,15.12-7.77,22.52-13.22-5.38-17.81-11.14-34.86-19.45-51.42-10.66-21.22-21.03-33.89-45.96-29.71ZM725.68,519.12c-22.23,1.23-17.87,20.45-35.58,27.74-9.13,3.76-15.14-.29-21.38-6.29-2.71-2.61-9.15-3.5-10.29-8.67-6.67,2.47-12.69,3.15-20.81,3.42,6.25,11.87,13.78,22.67,22.85,32.52,4.12,4.48,10.78,4.5,15.21.93l15-12.09c12.33-11.31,24.92-21.87,39.2-30.55,6.38-3.87,12.4-4.81,19.89-4.53,13.1.48,22.32-12.29,20.16-24.97-2.18-12.76-9.9-22.71-20.45-29.71-10.06-6.68-20.58-11.65-32.9-11.67-7.05-.01-16.29,1.78-20.1,8.11s-6.73,10.43-13.51,12.96l-31.15,11.6-24.1,9.87c-8.24,3.37-4.35,13.5,1.46,22.08l70.37-49.03c4.31-3,8.91-2.1,11.84,2.25,4.09-2.09,7.92-3.33,12.22-3.26,6.46.11,11.03,4.87,11.7,11.21,1.03,9.72,11.92,5.46,15.15,14.55,1.37,3.87.86,7.89-1.49,11.72-4.69,7.63-13.78,11.3-23.3,11.83ZM681.97,496.99c1.13-3.01,2.43-6.68,5-8.91,5.13-4.45,12.26-5.39,18.89-3.14,3.18-4.83,3.26-10.9-.14-11.69-.75-.18-2-.23-3.17.58l-88.13,61.06c2.47,2.18,5.22,3.92,8.26,5.52l11.69-7.91c3.89-2.63,18.43.98,34.01-10.88-.31-18.23,11.29-18.49,13.59-24.63ZM723.12,515.41c11.02-.74,22.46-4.23,23.94-14.64s-14.23-5.45-15.75-19.66c-.46-4.28-4.33-7.68-8.6-7.41-3.74.23-6.95,1.36-9.99,3.2-1.37,9.9-6.54,17.74-13.31,24.65-10.97,11.2-22.61,20.96-37.04,28.29,1.45,5.91,8.59,5.04,11.63,9.56s8.2,5.84,13.38,4.01c16.17-5.71,14.48-26.57,35.74-28ZM672.84,518.78c12.23-8.77,22.87-17.9,31.26-30.02-7.21-3.31-15.42.46-17.73,7.67-1.53,4.77-4.02,8.41-9.04,9.97-2.67,3.6-4.95,7.66-4.49,12.38ZM698.32,572.72l1.56-8.71c.95-5.27,5.15-8.24,10.65-8.17l1.81-5.25c2.09-6.06,6.82-6.77,11.7-7.16,1.52-2.93,3.46-7.75,6.47-8.48,4.06-.98,7.17-.22,9.82,2.88,2.26-5.86,9.04-8.15,13.59-4.43l2.72,4.78c11.13.42,20.41-7.15,21.08-18.43.36-6.04-.18-12.05-3.19-17.68-1.76,13.89-11.35,24.03-24.82,23.27-7.37-.41-13.18,1.32-19.29,5.15-12.19,7.64-22.99,16.57-33.78,26.2-6.09,5.43-11.79,10.99-18.56,15.3-7.89,5.02-16.29,3.56-22.37-3.44-8.29-9.55-15.58-19.93-21.67-30.92-1.88.31-3.93,2.47-3.22,3.75,8.24,14.73,17.7,27.96,28,41.09,5.12,6.51,14.22,9.16,20.86,4.19l18.62-13.94ZM501.75,551.31l44.98-14.44-19.06-23.87c-8.73,9.98-18.32,17.47-28.89,24.62l2.97,13.68ZM622.53,517.5c.1,2.43-.08,4.21.48,5.86.64.59,2.63-.22,2.36-1.29-.41-1.57-1.55-3.65-2.84-4.57ZM586.56,585.08c2.85-5.67-4.7-12.66-1.89-14.84,2.52-1.96,5.25,4.09,6.73,11.35,3.24-.44,6.71-3.44,6.89-7.13.41-8.53-8.56-13.47-5.05-15.75,2.62-1.7,6.41,5.38,9.34,12.04,4.84-2.6,5.65-8.04,3.69-12.71-2.7-6.43-10.21-9.59-8.31-12.68,2.05-3.32,25.67,13.78,27.24,6.94,1.63-7.11-22.6-21.89-42.47-22.24-17.24-.3-32.44,10.9-51.96,16.77l-71.81,21.61-11.57-23.94c-16.94,9.91-34.83,16.45-54.65,21.93,7.11,16.74,15.5,32.84,27.33,46.84,7.95,9.42,19.06,13.43,31.2,11.97,31.41-3.72,67.37-26.7,93.82-45.05,3.69-2.56,6.16-2.73,10.32-1.09,7.47,2.95,18.91.29,21.71,2.59.42.35.54,2.14-.09,2.37l-5.66,2.05c3.75,3.54,12.34,4.64,15.18-1.03ZM745.14,554.66c5.84-3.48,9.6-13.42,5.2-18.38-2.14-2.41-5.76,1.55-6.45,3.36-.79,2.06-.94,4.4-.36,7.22l1.61,7.8ZM737.43,541.09c-.9-1.82-2.67-2.7-4.25-2.58-3.84.28-6.23,7.19-5.13,9.77,2.53,5.96,3.92,11.74,3.59,18.84,10.33-1.29,10.96-15.61,5.8-26.03ZM627.64,545.2c.58-.49.2-2.76-1.02-2.51-1.76.36-.71,2.79.58,2.94l.44-.43ZM628.19,545.73l-.49.49c.03.21.24.42.48.51l.5-.5-.5-.5ZM629.41,549.78c.66,2.24-.71,4.74-2.12,6.13-1.76,1.73-4.06,2.39-6.53,1.71l-11.34-3.13c2.81,6.42,2.91,14.32-2.6,18.18-2.84,1.99-4.72,3-5.76,6.54-1.27,4.35-7.27,5.22-9.85,7.71-7.57,7.28-12.3,8.04-23.4,2.61-7.32,5.28-14.84,10.31-21.13,4.77-2.08-1.84-3.24-4.03-3.16-7.78l-20.42,13.12c9.8,11.22,23.23,15.46,37.72,13.11,17.42-2.83,33.64-8.62,49.49-16.47l39-19.31-18.49-27.28c-.52-.76-.43-2.37-1.65-2.93l-.48.49.74,2.53ZM727.32,566.86c.98-7.79-2.28-18.98-6.21-19.21-1.4-.08-2.68.47-3.75,1.88-5.87,9.04,1.52,15.72-.83,26.08,5.64.52,10.05-2.75,10.8-8.75ZM709.67,580.07c4.52-4.82,4.07-14.03.7-18.96-1.84-2.7-5.65.12-6.05,2.15l-2.02,10.17c-.63,3.16-4.22,4.43-6.67,6.8,3.61,1.89,10.15,3.99,14.04-.15ZM565.63,585.07l-14.75-2.25c-3.07-.47-3.78,4.88-2.71,6.88,3.24,6.02,11.39,2.03,17.46-4.63ZM559.14,645.54c3.82-.29,7,1.01,10.15-.37l5.9-11.79c-20.51-.24-39.48,1.72-59.07,4.11-4.16,5.54-9.55,8.17-14.84,12.39l57.86-4.34ZM820.63,739.06c6.1,2.56,6.41,8.8,7.27,13.78,7.92-11.77,20.7-35.27,12.21-40.1-1.75-1-5.56-1.21-8.01.57-10.3,7.52-20.7,13.8-32.18,19.65l-21.13,10.77c-3.46,1.76-6.81,1.06-9.74-1.57l-18.47-16.64c-26.39-23.77-51.34-48.25-78.52-71.08-15.97-13.42-34.74-21.15-55.37-20.53l-36.64,1.1c-3.17,1.78-5.71,7.23-5.73,10.32,32.34-1.29,51.69,2.74,74.33,25.41l49.87,49.94,25.55,26.53,22.81,24.53c6.99.03,12.62-3.37,18.83-5.99,14.88-6.29,27.89-14.47,40.94-23.95,3.74-2.72,9.45-4.63,13.97-2.74ZM410.95,765.93c19.04-7.78,37.77-10.72,57.46-11.65,14.7-.27,28.7,1.1,43.26,3.61l43.7-14.11c-7.6-32.03-9.73-64.57,2.24-94.55l-64.22,6.04c-3.85.36-7,3.95-10.44,5.66-44.26,21.99-97.09,38.16-147.38,36.6.72,9.37,3.55,17.61,7.38,25.93,12.72,27.57,37.77,39.96,68,42.46ZM798.86,798.33c9.1-11.32,16.86-22.47,21.84-35.71,2.83-7.52,4.18-15.92-.51-19.16-4.26-2.94-11.16,1.21-17.03,5.72-9.25,7.11-19.02,12.39-29.55,17.41-8.18,3.9-15.97,8.15-25.05,9.38-2.74.37-5.36-2.2-7.18-4.12l-38.39-40.62c-21.37-22.61-42.21-44.7-65.62-65.11-11.22-9.78-23.96-15.15-38.78-16.32l-36.58.12c-11.54,27.13-10.14,56.85-4.17,85.82l31.62-8.28c4.03-1.06,8.34-.55,11.82,1.61l17.24,17.83c19.01,19.67,41,34.91,63.61,50.22l28.63,19.4,24.77,24.06c4.74,4.61,11.37,7.52,17.93,5.8,7.48-1.97,12.87-7.59,17.55-13.42l27.86-34.65ZM338.08,723.86c-2.99-8.16-6.21-16.42-6.52-25.81-2.75-1.39-5.65-1.47-7.65-3.42s-1.96-5.05-2.26-8.42c-36.9,7.33-70.46,23.62-98.72,48.33-10.49,9.17-21.29,15.75-33.21,22.97-2.82,1.7-8.86,6.06-6.55,9.67,3.46,4.43,10.88,6.66,16.51,7.8,26.08,5.28,50.66,12.03,76.12,19.76,19.14,5.81,37.45,10.91,57.28,13.77,27.39,3.96,53.97,4.87,81.71,5.39,29.08.55,56.76,4,84.46,12.31l25.52,7.66c8.48,2.54,16.31-.39,22.58-6.73,8.71-8.82,18.52-15.04,30.14-19.77l26.95-10.97c11.57-4.71,24.44-15.17,33.86-25.27-12.8-10.07-23.64-21.53-34.11-33.8-4.16-4.88-9.13-7.24-15.19-5.61l-29.57,7.95.22,6.72-38.05,13.24c11.71,3.65,36.57,11.23,33.9,16.37-.29.55-1.52,1.05-2.64.46-8.32-4.34-16.31-8.08-25.5-10.59-50.78-13.87-103.3-9.34-147.4,21.36-1.35-2.71.15-5.11,2.15-6.29l19.51-11.47c-12.57-2.38-22.4-6.48-32.96-11.72-23.08-11.47-50.02-12.1-74.55-5.43-1.18.32-1.79-2.54-1.22-3.14.46-.48.96-1.03,2.14-1.36,19.13-5.32,38.09-4.61,58.39-.62-3.4-4.45-5.79-9.54-9.7-12.48-11.03-8.28-25.09-11.61-38.67-13.52-2.03-.29-2.77-.17-2.94-2.1-.5-5.6,24.14,2.13,34.89,6.11.26-.72.67-1.05,1.1-1.36ZM338.64,724.39l-.52,1.76.52-1.76ZM185.68,774.41c-1.15-.21-1.59,1.18-.52,1.64l.52-1.64ZM185.75,776.65c3.43,6,8.65,9.89,13.72,14.43,12.36,11.05,25.18,21.05,39.7,29.22,35.08,19.74,103.2,33.89,143.54,36.8l59.33,4.28c34.43.99,68.17-2.17,101.92-9.34,45.91-9.75,83.95-29.43,113.62-66.2l-16-11.61c-12.65,13.47-27.34,23.01-44.32,29.89l-24.21,9.8c-9.32,3.78-16.57,10.37-23.68,17.18s-16.57,9.61-26.09,6.74l-29.95-9.02c-29.57-8.91-59.62-10.99-90.52-10.84l-42.21-2.29c-28.62-1.55-55.31-8.45-82.89-16.01l-61.19-16.76-29.95-7.67-.84,1.39Z"/>
    <g>
      <path class="cls-4" d="M387.67,454.34c24.93-4.19,35.3,8.48,45.96,29.71,8.31,16.56,14.07,33.61,19.45,51.42-7.4,5.45-14.41,9.74-22.52,13.22-16.69,7.16-33.48,13.25-51.57,16.38-5.74-14.35-9.35-28.24-12.97-42.6-.35-1.38-1.59-1.6-2.51-1.39-4.23.98,7.73,36.36,12.81,48.1l12.3-1.48c7.12,15.85,14.7,30.62,24.79,44.24,8.92,12.03,21.26,18.94,36.47,17.59,10.76-.96,21.22-3.15,30.96-7.87l26.77-12.96,3.86,28.1c-10.99,9.38-22.63,15.94-35.28,22.54-41.93,20.69-97.97,37.15-144.49,33.85-2.48-.18-5.38-1.01-5.65-3.8-1.54-16.01-2.5-31.36-1.95-47.56,1.43-41.9,6.22-82.74,16.13-123.46,7.03-28.88,17.94-62.57,38.63-84.16,13.13,2.23,25.66,3.89,38.81,4.35,10.59,8.49,30.96,20.87,40.6,15.58,4.86-2.67,2.41-10.92,4.69-16.87,10.51,4.56,18.4,11.92,26.99,19.44,14.74,14.09,27.39,29.63,40.27,46.16-8.94,12.21-19.69,21.93-32.46,30.46l-11.36-48.34c-.04-1.6-1.3-2.21-2.17-2.17-1.36.06-2.14,1.34-1.74,3.08l15.07,66.31-36.33,11.66-10.6-21.8c2.62-1.65,6.27-3.74,6.82-6.33l-10.08-30.64c-4.51-13.71-10.81-26.19-18.64-38.22-13.9-21.35-39.44-18.77-41.83-15.51-.42.57-.16,2.4.79,2.95Z"/>
      <path class="cls-6" d="M410.95,765.93c-30.22-2.5-55.28-14.89-68-42.46-3.84-8.32-6.67-16.56-7.38-25.93,50.3,1.56,103.12-14.61,147.38-36.6,3.44-1.71,6.59-5.3,10.44-5.66l64.22-6.04c-11.97,29.98-9.84,62.51-2.24,94.55l-43.7,14.11c-14.56-2.5-28.56-3.88-43.26-3.61-19.69.92-38.42,3.87-57.46,11.65Z"/>
      <path class="cls-6" d="M559.14,645.54l-57.86,4.34c5.29-4.23,10.68-6.86,14.84-12.39,19.58-2.39,38.55-4.35,59.07-4.11l-5.9,11.79c-3.14,1.38-6.32.08-10.15.37Z"/>
    </g>
    <path class="cls-3" d="M393.77,322.44c.62,12.72,8.08,22.79,19.46,26.75,1.86.65,3.03,2.69,2.9,4.61-5.03,27.92.87,53.2,9.97,80.15-16,1-30.88-.93-46.05-4.12-11.29-2.37-21.87-4.98-32.38-9.85-16.49-6.14-31.79-15.19-42.71-29.25-8.63-11.12-10.55-25.02-10.54-38.9.02-22.84,15.73-57.75,26.88-79.39l12.92-25.07c7.89-15.31,15.9-30.01,26.3-43.7,4.32-5.68,9.07-10.03,14.44-14.68,11.7-10.12,25.11-17.79,40.14-21.92,35.09-9.63,72.31-5.16,104.38,10.9,16.12,8.07,29.45,19.2,39.44,33.9l10.61,8.16c9.96,9.79,14.8,22.84,14.74,36.81s-2.27,27.72-11.54,38.74c.52-18.88-.6-36.01-8.8-51.96-.59-1.15-.91-2.2-1.91-2.42-1.48-.33-2.28.36-3.22,1.7l-11.46,16.46c-24.02,27.57-53.87,43.56-90.43,46.78l-13.37-.1c-3.68-8.32-10.57-15.48-20.06-16.61-16.96-2.03-30.68,13.35-29.73,32.98Z"/>
    <g>
      <path class="cls-2" d="M336.98,725.22c-10.75-3.97-35.39-11.71-34.89-6.11.17,1.93.91,1.81,2.94,2.1,13.58,1.91,27.64,5.23,38.67,13.52,3.91,2.94,6.3,8.03,9.7,12.48-20.29-3.99-39.25-4.7-58.39.62-1.18.33-1.69.88-2.14,1.36-.57.6.04,3.46,1.22,3.14,24.53-6.68,51.47-6.04,74.55,5.43,10.56,5.25,20.39,9.34,32.96,11.72l-19.51,11.47c-2,1.18-3.51,3.58-2.15,6.29,44.1-30.7,96.62-35.24,147.4-21.36,9.19,2.51,17.19,6.24,25.5,10.59,1.12.59,2.36.09,2.64-.46,2.67-5.13-22.19-12.71-33.9-16.37l38.05-13.24-.22-6.72,29.57-7.95c6.05-1.63,11.02.73,15.19,5.61,10.47,12.27,21.31,23.73,34.11,33.8-9.42,10.1-22.29,20.56-33.86,25.27l-26.95,10.97c-11.62,4.73-21.42,10.95-30.14,19.77-6.27,6.35-14.1,9.28-22.58,6.73l-25.52-7.66c-27.7-8.31-55.38-11.75-84.46-12.31-27.74-.53-54.32-1.43-81.71-5.39-19.83-2.87-38.14-7.96-57.28-13.77-25.46-7.73-50.04-14.49-76.12-19.76-5.63-1.14-13.05-3.37-16.51-7.8-2.31-3.61,3.73-7.96,6.55-9.67,11.92-7.21,22.72-13.8,33.21-22.97,28.26-24.71,61.82-41,98.72-48.33.29,3.37.28,6.5,2.26,8.42s4.9,2.03,7.65,3.42c.31,9.38,3.54,17.65,6.52,25.81.01.16.25.44.56.53l-.52,1.76-1.14-.94Z"/>
      <path class="cls-6" d="M185.16,776.04c-1.07-.46-.63-1.85.52-1.64l.92.86,29.95,7.67,61.19,16.76c27.58,7.55,54.27,14.46,82.89,16.01l42.21,2.29c30.9-.15,60.95,1.93,90.52,10.84l29.95,9.02c9.52,2.87,18.82.22,26.09-6.74s14.36-13.41,23.68-17.18l24.21-9.8c16.98-6.87,31.67-16.42,44.32-29.89l16,11.61c-29.67,36.77-67.72,56.45-113.62,66.2-33.75,7.17-67.49,10.33-101.92,9.34l-59.33-4.28c-40.35-2.91-108.46-17.06-143.54-36.8-14.52-8.17-27.34-18.17-39.7-29.22-5.07-4.54-10.3-8.43-13.72-14.43-.2-.35-.37-.51-.59-.61Z"/>
    </g>
    <g>
      <g>
        <path class="cls-5" d="M725.68,519.12c9.52-.53,18.61-4.19,23.3-11.83,2.35-3.83,2.87-7.85,1.49-11.72-3.23-9.09-14.12-4.84-15.15-14.55-.67-6.34-5.24-11.1-11.7-11.21-4.3-.07-8.14,1.17-12.22,3.26-2.93-4.35-7.53-5.25-11.84-2.25l-70.37,49.03c-5.81-8.58-9.7-18.71-1.46-22.08l24.1-9.87,31.15-11.6c6.77-2.52,9.89-6.95,13.51-12.96,3.81-6.33,13.05-8.12,20.1-8.11,12.33.03,22.85,5,32.9,11.67,10.55,7,18.27,16.96,20.45,29.71,2.17,12.68-7.06,25.45-20.16,24.97-7.49-.27-13.52.66-19.89,4.53-14.29,8.68-26.87,19.24-39.2,30.55l-15,12.09c-4.43,3.57-11.09,3.55-15.21-.93-9.07-9.85-16.6-20.65-22.85-32.52,8.12-.27,14.14-.95,20.81-3.42,1.14,5.17,7.57,6.06,10.29,8.67,6.24,6,12.25,10.06,21.38,6.29,17.7-7.29,13.35-26.51,35.58-27.74Z"/>
        <path class="cls-5" d="M629.41,549.78l1.39-.09,18.49,27.28-39,19.31c-15.85,7.84-32.07,13.64-49.49,16.47-14.5,2.35-27.93-1.89-37.72-13.11l20.42-13.12c-.08,3.75,1.08,5.95,3.16,7.78,6.29,5.55,13.81.51,21.13-4.77,11.11,5.43,15.83,4.68,23.4-2.61,2.58-2.49,8.58-3.36,9.85-7.71,1.03-3.53,2.92-4.55,5.76-6.54,5.52-3.87,5.41-11.76,2.6-18.18l11.34,3.13c2.47.68,4.78.02,6.53-1.71,1.41-1.39,2.78-3.89,2.12-6.13Z"/>
        <path class="cls-3" d="M723.12,515.41c-21.26,1.43-19.57,22.29-35.74,28-5.18,1.83-10.39.45-13.38-4.01s-10.18-3.65-11.63-9.56c14.43-7.33,26.07-17.1,37.04-28.29,6.77-6.91,11.94-14.75,13.31-24.65,3.04-1.84,6.25-2.97,9.99-3.2,4.27-.27,8.14,3.13,8.6,7.41,1.52,14.21,17.26,9.03,15.75,19.66s-12.92,13.9-23.94,14.64Z"/>
        <path class="cls-3" d="M698.32,572.72l-18.62,13.94c-6.63,4.96-15.74,2.32-20.86-4.19-10.31-13.12-19.76-26.36-28-41.09-.72-1.28,1.34-3.44,3.22-3.75,6.08,10.99,13.37,21.38,21.67,30.92,6.08,7,14.48,8.47,22.37,3.44,6.76-4.31,12.47-9.87,18.56-15.3,10.79-9.63,21.59-18.56,33.78-26.2,6.11-3.83,11.93-5.57,19.29-5.15,13.46.75,23.06-9.38,24.82-23.27,3.01,5.64,3.55,11.64,3.19,17.68-.67,11.28-9.96,18.84-21.08,18.43l-2.72-4.78c-4.55-3.72-11.33-1.43-13.59,4.43-2.65-3.1-5.76-3.86-9.82-2.88-3.01.73-4.95,5.55-6.47,8.48-4.87.39-9.61,1.1-11.7,7.16l-1.81,5.25c-5.5-.07-9.71,2.9-10.65,8.17l-1.56,8.71Z"/>
        <path class="cls-4" d="M681.97,496.99c-2.31,6.14-13.9,6.39-13.59,24.63-15.58,11.86-30.11,8.25-34.01,10.88l-11.69,7.91c-3.05-1.6-5.8-3.34-8.26-5.52l88.13-61.06c1.17-.81,2.42-.75,3.17-.58,3.4.8,3.32,6.86.14,11.69-6.63-2.25-13.77-1.31-18.89,3.14-2.57,2.23-3.87,5.9-5,8.91Z"/>
        <path class="cls-3" d="M672.84,518.78c-.46-4.73,1.83-8.79,4.49-12.38,5.02-1.56,7.51-5.2,9.04-9.97,2.31-7.21,10.52-10.98,17.73-7.67-8.39,12.13-19.04,21.25-31.26,30.02Z"/>
        <path class="cls-5" d="M727.32,566.86c-.75,5.99-5.16,9.27-10.8,8.75,2.36-10.36-5.03-17.05.83-26.08,1.07-1.41,2.36-1.96,3.75-1.88,3.94.23,7.19,11.42,6.21,19.21Z"/>
        <path class="cls-5" d="M737.43,541.09c5.17,10.42,4.53,24.75-5.8,26.03.34-7.11-1.05-12.88-3.59-18.84-1.1-2.58,1.29-9.5,5.13-9.77,1.58-.11,3.35.76,4.25,2.58Z"/>
        <path class="cls-5" d="M709.67,580.07c-3.89,4.14-10.43,2.04-14.04.15,2.45-2.37,6.05-3.64,6.67-6.8l2.02-10.17c.4-2.02,4.2-4.84,6.05-2.15,3.37,4.93,3.82,14.15-.7,18.96Z"/>
        <path class="cls-5" d="M745.14,554.66l-1.61-7.8c-.58-2.82-.43-5.16.36-7.22.69-1.81,4.31-5.77,6.45-3.36,4.4,4.97.64,14.9-5.2,18.38Z"/>
        <path class="cls-4" d="M565.63,585.07c-6.06,6.66-14.22,10.65-17.46,4.63-1.07-1.99-.36-7.34,2.71-6.88l14.75,2.25Z"/>
        <path class="cls-3" d="M622.53,517.5c1.29.92,2.43,3,2.84,4.57.28,1.07-1.71,1.88-2.36,1.29-.57-1.65-.38-3.43-.48-5.86Z"/>
        <path class="cls-2" d="M630.8,549.69l-1.39.09-.74-2.53c-.08-.23-.26-.42-.48-.5-.25-.1-.45-.3-.48-.51-.05-.34-.28-.57-.5-.59-1.29-.15-2.34-2.58-.58-2.94,1.22-.25,1.6,2.02,1.02,2.51l.55.53.5.5.46.52c1.22.56,1.13,2.17,1.65,2.93Z"/>
      </g>
      <g>
        <path class="cls-5" d="M437.55,408.64c-1.49-.95-2.8-.58-3.33.08-2.72,3.41,15.67,12.01,25.81,15.44-2.76,10.24-1.25,23.73-3.57,25.87-4.93,4.53-22.5-4.56-31.31-10.89,2.38-1.23,4.18-.91,4.94-1.62,1.13-1.06,1.24-3,.63-4.56-10.77-27.51-15.55-56.39-9.12-85.79-8.63-2.06-16.36-5.88-20.51-13.66-6.01-11.28-3.35-25.79,5.86-34.32,5.91-5.47,13.2-7,20.76-4.26,6.11,2.22,10.26,8.35,12.59,15.6,49.23,1.73,94-20.6,120.8-62.96,11.01,24.26,8.67,49.55,1.33,74.82-3.04,10.48-1.44,20.21,4.81,28.99,2.27,3.18,3.07,8.3-.17,10.66l-12.9,5.25c-4.89,7.64-7.72,17.52-14.02,24.33-16.49,1.47-24.74-13.48-26.97-13.47-6.43.03,5.51,16.27,24.01,17.83-25.34,35.19-63.66,35.69-99.63,12.66ZM539.84,331.41c3.21-4.25,4.22-9.83,1.46-14.19-1.28-2.02-4.73-1.74-6.47-.19-4.08,3.65-5.82,9.98-3.14,14.96,1.62,3.01,6.04,2.21,8.15-.58Z"/>
        <path class="cls-5" d="M586.56,585.08c-2.84,5.67-11.44,4.57-15.18,1.03l5.66-2.05c.63-.23.51-2.02.09-2.37-2.8-2.3-14.24.36-21.71-2.59-4.16-1.64-6.64-1.47-10.32,1.09-26.45,18.34-62.41,41.33-93.82,45.05-12.14,1.47-23.25-2.55-31.2-11.97-11.82-14.01-20.22-30.1-27.33-46.84,19.82-5.47,37.7-12.01,54.65-21.93l11.57,23.94,71.81-21.61c19.51-5.87,34.72-17.07,51.96-16.77,19.87.35,44.11,15.13,42.47,22.24-1.57,6.83-25.2-10.26-27.24-6.94-1.91,3.09,5.6,6.25,8.31,12.68,1.96,4.66,1.15,10.11-3.69,12.71-2.94-6.66-6.72-13.74-9.34-12.04-3.51,2.28,5.47,7.22,5.05,15.75-.18,3.68-3.64,6.69-6.89,7.13-1.47-7.26-4.21-13.31-6.73-11.35-2.81,2.18,4.74,9.17,1.89,14.84Z"/>
        <path class="cls-5" d="M501.75,551.31l-2.97-13.68c10.57-7.15,20.16-14.64,28.89-24.62l19.06,23.87-44.98,14.44Z"/>
        <path class="cls-1" d="M539.84,331.41c-2.11,2.8-6.53,3.59-8.15.58-2.69-4.98-.95-11.31,3.14-14.96,1.74-1.55,5.19-1.83,6.47.19,2.77,4.36,1.75,9.93-1.46,14.19Z"/>
      </g>
    </g>
  </g>
</svg>