<?xml version="1.0" encoding="UTF-8"?>
<svg id="Layer_1" data-name="Layer 1" xmlns="http://www.w3.org/2000/svg" viewBox="0 0 1024 1024">
  <defs>
    <style>
      .cls-1 {
        fill: #724859;
      }

      .cls-2 {
        fill: #743514;
      }

      .cls-3 {
        fill: #8a61a8;
      }

      .cls-4 {
        fill: #e1a996;
      }

      .cls-5 {
        fill: #462941;
      }

      .cls-6 {
        fill: #fefefe;
      }

      .cls-7 {
        fill: #190c15;
      }
    </style>
  </defs>
  <g id="Generative_Object" data-name="Generative Object">
    <g>
      <path class="cls-7" d="M410.4,502.4c5.37-2.53,8.43-11.72,16.1-18.4,2.52-2.2,5.46-3.66,8.56-4.88,3.95-1.55.99-6.06,2.7-7.34l14.91-11.11,37.83-.78c1.34-.03,1.91.83,2.04,2.14l4.01,41.37-12.05,11.09c-1.01.93-2.2,1.66-3.6,1.77l-17.65.35c-4.38,2.43-8.94,3.76-13.81,4.72-2.17.69-3.95,2.02-5.78,3.3-4.69,3.28-9.89,5.07-15.68,4.77-1.23-.06-2.23.74-3.1,1.53-11.95,10.89-24.47,20.59-38.11,29.28l-15.19,8.1,7.73,27.29,5.44,17.08c30.82-4.05,61.55-5.95,92.68-5.5.5,0,.57-1.8.11-1.83l-27.4-1.93c-1.44-.1-2.12-1.05-2.13-2.43l-.03-30.99c0-1.38.81-2.51,2.03-3.03l19.64-8.4.13-32.81c0-1.2,1.52-2.86,2.81-3.31,6.89-2.4,13.6-6.96,20.89-8.11l35.39,2.03c.97.06,1.74,1.44,1.74,2.16l.04,43.09,19.92,1.79c1.93.17,2.65,1.34,2.67,3.15l.35,28.92c.02,1.79-.74,3.14-2.21,3.93l-11.32,6.09c-.99.53-1.64,1.18-1.31,2.93l20.65,1.46c5.09-17.35,17.09-27,35.01-28.96,10.78-1.18,21.3-.46,32,1.23l13.55,2.14,5.64-.79c19.08,3.13,37.43,7.83,55.88,13.63,2.16,0,4.12-1.35,5.87-2.23,1.98-13.21,3.27-26.1,2.33-39.35-.57-7.98-3.35-14.57-7.62-21.12l-7.01-10.73-12.65,13.68c-5.61,6.07-12.24,10.7-19.71,14.23-8.99,4.26-18.64,3.77-27.36-1.01-8.03-4.39-14.82-10.07-21.24-16.76-15.22-15.86-28.55-32.98-40.57-51.6-6.12-.29-11.27-2.73-16.7-6.3l-1.38,11c-.19,1.51-1.05,2.57-2.56,2.86l-26.19,4.95-26.96-10.96c-1.48-.6-1.94-1.63-1.74-3.34l4.01-33.98c.24-2.06.45-3.92,1.21-5.87l9.77-1.82c-.6-4.56,1.35-7.74,5.15-9.7,6.7-3.45,13.78-4.62,21.41-4.65s15.47.53,22.59,4.01c6.1,2.97,11.3,7.1,16.08,11.85l14.03,13.96,13.58,10.99,40.37,29.43,13.22-17.71-3.41-4.95c-.64-.93-1.09-2.25-.31-3.4l32.92-48.95,13.96-17.91c-18.65,5.44-39.79,6.22-57.77,2.41-1-.21-1.86-1-2.06-1.62-.31-.96.14-1.86.51-2.83,4.98-9.04,7.3-19.1,5.48-29.28-5.88-6.57-10.99-13.27-15.29-20.81-1.04-2.7-3.15-3.79-5.99-4.21-3.7-.54-8.01-1.87-10.21-5.13s-1.42-7.97-.06-11.61c4.86-13.02,3.86-15.79-.08-27.74l-4.45-13.5c-9.99-6.29-17-15.5-20.4-26.62-3.74-12.24-3.27-24.46,1.26-36.36,2.45-6.43,5.66-12.01,10.68-16.8,3.04-2.9,6.02-5.69,9.84-7.62,1.87-.94,3.15-2.45,4.39-4.13,4.33-5.91,8.8-11.28,14.45-16.06,10.73-9.09,22.53-16.04,35.73-21.26,19.97-7.9,41.77-8.8,62.73-4.41s40.76,16.69,53.49,32.5c6.48,8.05,11.53,16.67,16.07,25.89l7.61,15.47c10.79,21.91,25.06,33.42,34.9,50.03,10.33,17.43,13.77,42.65,5.56,60.9-4.34,9.65-10.39,17.75-18.13,24.87-6.7,6.17-13.61,11.5-21.59,15.89-.26.15-.56.38-.56.53s.25.33.58.59c16.32,13.2,29.25,30,38.4,49,21.38,44.37,31.87,94.91,38.29,143.64,3.09,23.47,4.74,46.57,5.79,70.11.18,3.93-.81,7.11-5.25,8.08-1.03.22-1.02,1.57-.92,2.7l.61,6.97c13.19,5.09,25.35,11.72,35.8,21.13,14.46,13.02,22.29,31.13,15.38,49.94-2.15,5.86-5.17,10.9-9.41,15.62-17.03,18.96-34.89,29.52-58.49,38.84l-19.92,6.59c-19.63,5.6-39.15,9.32-59.4,12.15l-52.64,5.4-39.96,3.03c-14.41,1.09-28.24,3.38-42.13,7.32-10.09,2.86-19.24,6.95-28.74,11.35l-40.62,18.82c-15.46,6.32-30.77,11.81-47.19,15.15-29.78,6.06-56.04,7.16-86.24,4.07l-27.89-3.59-40.77-6.64-41.73-7.23-38.21-8.31c-22.6-4.91-56-16.47-76.83-26.63l-20.87-11.63c-6.37-3.55-11.7-8.01-17.15-12.86-9.94-8.84-18.85-19.64-23.17-32.31-2.59-7.59-1.03-12.4-2.76-12.89-10.51-2.97-20.47-6.62-30.12-11.77l-19.22-12.29c-8.58-5.49-16.05-12-23.24-19.22-2.48-2.49-4.17-5.39-5.3-8.69-2.41-7.03,3.69-12.55,10.11-16.24,7.72-4.43,14.77-9.19,21.89-14.6,19.08-14.51,41.2-29.31,64.76-34.69l18.77-4.28c1.23-.28.94-1.65.97-2.54l.53-14.57c3.86-47.13,14.52-92.9,39.27-133.55,4.22-6.93,8.5-13.29,14.27-18.78l.52-.49,4.32-4.18.55-.5c.61-.57.43-1.11-.26-1.24-17.1-5.59-36.09-13.68-46.83-28.23-8.5-11.52-10.97-25.79-8.18-39.85,1.57-7.92,4.17-15.23,7.32-22.67l12.08-23.31,10.29-19.75,10.75-20.22c4.06-7.64,9.88-13.46,16.39-19.14,10.6-9.25,22.83-15.63,36.67-18.78,11.67-2.65,23.45-3.35,35.36-1.79l18.56,3.87c6.7,1.4,12.71,4.56,18.76,7.66,11.44,5.85,20.49,14.26,28.04,24.35l11.22,8.38c16.21,17.07,13.8,48.25-4.01,63.92l-2.36,9.74c-1.18,4.89-1.5,10,.47,14.7l3.72,6.78c1.45,2.65,1.71,5.56.23,8.48-2.73,5.36-9.8,4.72-10.59,6.23l-5.53,10.6c-6.95,13.31-18.62,23.35-33.13,27.7-7.71,2.31-15.53,1.99-23.28.29-1.72-.38-3.21-.8-5.05-.7-1.18,1.79-1.9,3.89-1.77,6.02l7.8,5.75c6.2,5.99,11.14,12.74,14.9,20.57l15.37,32.05c1.03,2.15.06,4.07-1.54,5.54l-4.52,4.16c.24.79.74.89,1.27.65l30.57-13.92,16.37-7.7Z"/>
      <g>
        <g>
          <path class="cls-1" d="M436.9,726.77l16.16,1.5,21.87,1.73,18.68-11.36c1.45-.88,1.69-2.53,1.69-4.17l.02-28.66,15.97,1.14.02,42.82c0,.77.41,1.55,1.3,1.64l37.93,3.8,20.82-13.32c.52-2.39.33-4.45.25-7.14l27.19,5.36c3.4.67,6.74.88,10.24.65,8.52-.56,16.8-.92,25.14.29-3.36,2.66-5.24,5.86-4.9,9.51s2.86,6.73,6.62,8.31c-1.13,2.77-1.11,5.1.33,7.51,1.1,1.84,3.59,3.28,6.07,4,.55,4.12,2.7,7.78,7.38,8.47l3.51.52c1.4,5.99,9.1,6.2,14.98,3.28,3.21-1.59,12.19-.26,28.99-11.97,3.46-2.41,6.99-4.03,10.81-5.79l12.61-5.81c4.62-2.13,7.22-6.39,7.95-11.78,2.75,1.82,5.4,2.9,8.51,3.63l27.96,6.53c17.23,4.02,34.54,4.94,52.17,3.68,11.14-.79,21.39-3.99,31.16-9.38,24.23-13.38,36.25-39.31,37.22-67.01,14.16,5.61,27.29,12.99,37.69,24.03,13.66,14.51,17.9,32.57,6.92,49.9-5.47,8.63-12.71,15.47-20.67,21.78-5.79,4.59-11.36,8.62-17.88,12.18-17.38,9.48-35.68,15.9-54.99,20.58-26.01,6.3-52.01,10.74-78.69,12.7l-48,3.52-30.43,3.16c-18.7,2.64-36.07,8.35-53.25,16.24l-47.59,21.84c-23.22,9.13-47.13,15.39-72.13,17.35-18.86,1.48-37.26,1.07-56-.94l-44.12-6.4-52.34-8.72-48.68-10.32c-17.19-3.64-33.29-9.1-49.75-15.18-30.03-11.08-67.79-29.64-82.9-58.72-2.83-5.44-4.76-11.06-5.01-17.55,40.78,9.66,81.34,13.79,122.71,13.39,34.86-.34,63.09-1.86,94.98-17.25,15.04-7.26,27.97-17.38,39.44-29.42l3.11-2.95,7.38-8.14.36,19.98c0,.37.69.92,1.2.97Z"/>
          <path class="cls-1" d="M411.39,634.99c-4.08-2.97-8.11-5.11-12.55-6.77-1.83-.68-2.18-2.48-3.34-3.81l-6.28-2.53c-1.62-1.51-2.33-3.69-2.99-6.12l27.43-3.11c21.31-1.79,42.32-2.38,64.06-2.35v26.84c-3.39-.11-6.26-.81-9.29-.21l-20.51,9.63-13.21-5.3c-7.47-2.99-15.02-5.09-23.32-6.27Z"/>
          <path class="cls-1" d="M575.92,670.84l-21.81-7.12-.48-19.23c.1-1.39-.8-2.36-2.11-2.51l-12.75-1.45-.09-28.53,19.82,1.16c-1.34,8.88.06,17.62,4.2,25.66,3.71,7.16,8.28,13.32,13.82,19.18l18.71,17.48c-6.95-.15-12.99-1.98-19.31-4.63Z"/>
        </g>
        <g>
          <g>
            <polygon class="cls-4" points="548.13 731.31 514.81 728.17 514.88 687.28 548.16 690.29 548.13 731.31"/>
            <path class="cls-4" d="M550.13,687.01l-12.23-1.22,14.7-7.43c3.56-.76,7.54.84,11.2.9l-13.68,7.75Z"/>
            <polygon class="cls-4" points="568.31 719.95 551.51 730.32 551.63 690.3 567.67 681.05 568.31 719.95"/>
          </g>
          <g>
            <polygon class="cls-5" points="507.24 570.7 473.05 568.3 472.89 526.74 507.69 529.59 507.24 570.7"/>
            <path class="cls-1" d="M522.63,519.07c-4.14,3.09-9.02,4.55-13.81,6.93l-30.19-2.46,15.33-6.72,28.68,2.25Z"/>
            <polygon class="cls-5" points="527.25 561.37 510.87 569.28 511.11 529.24 527.13 520.71 527.25 561.37"/>
          </g>
          <g>
            <path class="cls-5" d="M507.37,649.77l-25.99-1.72c-.74-4.26-.31-8.31-.19-12.58l-.14-29.48,34.11,2.35-.09,41.75c-2.73.42-5.14-.01-7.71-.33Z"/>
            <path class="cls-5" d="M535.42,608.37l.03,32.42-17.08,8.86v-40.96s12.58.54,12.58.54c1.43.06,2.1-.15,4.46-.86Z"/>
          </g>
          <g>
            <polygon class="cls-5" points="473 726.62 439.06 723.59 439.14 682.48 472.97 684.11 473 726.62"/>
            <polygon class="cls-5" points="492.03 715.83 476.38 725.17 476.59 684.64 491.67 685.57 492.03 715.83"/>
          </g>
          <g>
            <polygon class="cls-5" points="530.73 685.1 466.59 680.19 451.35 679.13 451.34 649.75 484 651.84 530.61 655.06 530.73 685.1"/>
            <path class="cls-1" d="M477.91,647.91l-21.18-1.43,13.04-6.15c2.18-1.03,5.24.32,7.72.2l.42,7.38Z"/>
            <path class="cls-5" d="M532.45,651.82l-9.64-.58,13.31-7.22c3.16-.11,6.13.11,9.09.75l-12.76,7.05Z"/>
            <polygon class="cls-5" points="534.22 683.74 534.2 664.01 534.01 654.97 550.18 646.33 550.96 675.39 534.22 683.74"/>
          </g>
          <g>
            <polygon class="cls-3" points="530.73 605.71 497.51 603.47 451.28 599.91 451.28 570.85 505.44 574.41 530.13 576.54 530.73 605.71"/>
            <polygon class="cls-4" points="544.39 565.89 531.58 573.26 514.49 571.57 528.4 564.68 544.39 565.89"/>
            <polygon class="cls-4" points="469.65 568.28 456.77 567.29 469.51 561.85 469.65 568.28"/>
            <polygon class="cls-4" points="533.99 604.88 533.61 575.82 550.01 567.44 550.24 596.61 533.99 604.88"/>
          </g>
        </g>
        <g>
          <path class="cls-2" d="M764.14,286.93c-.59-8.06-3.24-16.77-9.83-21.26-9.32-6.35-22.31-4.5-27.93,6.64-.41.8-1.39,1.36-2.34,1.39l-7.02.19-11.52-.42-6.06-.38c-15.68-2.14-30.62-6.92-44.52-14.49-7.41-4.04-13.81-8.97-20.28-14.21l-3.89-3.63-3.59-3.9-5.63-7.38c-.78-1.03-1.36-1.72-2.74-1.52-1.08.15-1.58,1.02-2.03,2.26-3.1,8.61-5.59,17.22-6.47,26.4-.82,8.6.03,16.72.85,25.57-24.14-18.69-23.25-57.94-.09-75.7l8.69-6.66c4.39-5.26,8.2-10.34,13.21-14.95,9.04-8.31,18.86-14.96,30.17-19.84l18.14-6.91c14.43-3.97,29.71-4.29,44.51-1.49l11.93,3.11c5.94,1.55,11.28,3.91,16.56,6.96,4.39,2.53,8.74,4.67,12.7,7.86,3.36,2.71,6.94,4.92,9.56,8.45l4.61,4.88c5.7,6.89,10.28,14.17,14.34,22.17l14.51,28.52,10.59,14.83,9.68,12.32c5.26,5.63,8.91,11.93,12.39,18.65s5.13,12.98,6.39,20.31c2.46,14.38.11,28.93-8.16,41.17l-6.05,8.96-7.61,6.86c-5.57,5.02-10.65,9.59-17.17,13.43-19.07,11.22-40.95,16.27-63.51,13.02,4.2-11.17,6.26-22.05,7.09-33.46l.07-11.54c-.97-9.32-2.61-18.25-5.13-27.28-.23-.82-.27-1.78.19-2.35.16-.19,5.3-1.92,8.05-4.78,5.54-5.76,7.92-13.89,7.34-21.81Z"/>
          <path class="cls-2" d="M718.19,387.86c-4.44,5.71-18.86,11.21-26,12.79-9.7,2.15-19.57,2.79-29.42,2.24-5.55-.31-10.82-.27-16.29-2.14,3.86-6.27,5.5-12.48,5.84-19.3.12-2.35.1-4.65.77-7,4.38,3,8.18,6.26,13.11,8.34,7.83,3.3,16.19,4.69,24.87,3.98,7.54-.62,14.44-3.85,21.24-6.95,1.13-.51,2.03-.32,2.57.85l3.3,7.19Z"/>
          <path class="cls-5" d="M735.97,723.01c-.38.92-1.09,1.42-1.57,1.78-1.53,1.15-6.31-1.25-6.61-4.17l8.18,2.39Z"/>
          <g>
            <path class="cls-1" d="M796.51,409.21c.4-3.01-9.66-.77-16,4.87-14.9,13.24-18.24,32.38-20.04,51.91l-4.57,49.45c-.21,2.29.61,4.26,2.67,4.99l6.03,2.12-2.76,20.75-3.92,24.69c-9.38,5.97-19.02,10.94-29.06,15.82l-17.6,8.56c1.99-13.13,2.97-25.43,1.92-38.13-.67-8.05-3.29-15.31-8.23-21.78-6.79-8.88-11.66-18.99-12.08-30.46-.19-5.15,1.01-10,2.11-15l7.17-32.7.83-8.78c.09-.96-.61-1.42-1.24-1.53-.95-.16-1.6.34-1.86,1.44-1.17,9.97-3.49,19.42-5.63,29.27l-4.58,21.08c-9.67-6.26-18.47-12.65-26.34-20.55-1.64-1.64-3.22-2.99-4.25-5.35l21.53-32.24,17.24-24.8c6.55-8.34,13.89-15.67,23.15-21.28l-.2,16.21c.73,6.66,6.59,10.54,13.18,9.02,12.44-2.86,21.92-14.14,29.93-24,8.03-.56,15.46-1.9,23.08-3.84l17.05-6.6c1.06-.36,2.99,1.1,3.86,1.81,13.19,10.73,23.83,23.89,32.11,38.82,14.38,25.94,25.66,61.05,31.83,90.22l10.12,56.38c3.65,25.48,5.27,50.72,6.15,76.36.04,1.23-.97,2.16-2.05,2.26l-22.06,1.98c-11.34,0-22.31-.84-33.48-2.61l-25.16-5.3c-10.62-4.72-21.29-8.25-32.73-10.28l-20.42-3.62,18.76-6.46c17.17-5.91,31.96-12.54,39.01-29.93l5.45-16.55c3.92-14.65,6.66-29.23,8.65-44.41l5.61-.86c1.84-.28,2.93-1.47,3.17-3.3l2.6-20.38c1.66-13.03,2.26-25.78,1.85-38.85-.03-.87-.68-1.39-1.16-1.54-.83-.25-1.74.29-1.76,1.49-.37,19.72-2.13,39.12-4.99,58.69-1.88.68-3.47.71-5.46.66-20.02-.49-39.72-3.19-59.09-8.1-1.84-.47-4.17-1.28-5.26-2.73l5-54.95c.71-7.84,2.19-15.09,4.55-22.47,2.26-7.08,5.74-13.4,10.68-18.81,8.85-9.71,16.27-7.34,16.7-10.65Z"/>
            <path class="cls-5" d="M870.01,706.23c-11.72,19.59-32.71,30.15-55,31.85-26.89,2.05-50.96-3.74-77.11-10.95,15.33-17.62,22.96-37.53,21.78-60.6-.25-9.43-2.09-18.28-5.96-26.8l-4.36-7.82c19.05,2.32,46.76,8.11,62.21,17.98l21.62,13.81c.92.59,2.44.12,2.66-.53.33-.98-.02-1.95-.96-2.61l-16.24-11.21c16.79,2.86,32.78,4.49,49.32,4.52l14.51-1.03c1.1,18.81-2.79,37.22-12.46,53.38Z"/>
            <path class="cls-5" d="M696.07,599.54c-5.43,3.11-10.5,6.16-16.26,7.82l-27.82,8.02c-.56-10.18-2.74-18.94-7.04-28.22l17.19,3.17,22.17,5.28c3.86,1.18,7.54,1.38,11.76,3.94Z"/>
          </g>
          <g>
            <path class="cls-4" d="M550.54,446.79c-6.15.15-12.53,2.89-18.94,2.22s-12.06-4.76-18.84-6.29l22.58-2.66,15.2,6.73Z"/>
            <polygon class="cls-1" points="525.07 490.55 501.26 480.82 505.58 443.69 529.41 452.84 525.07 490.55"/>
            <path class="cls-5" d="M542.03,474.16l11.07,1.27-1.31,11.35-22.98,4.06,1.74-17.25,2.49-20.82,22.96-2.96-.91,8.11-11.85,1.88c-2.53.4-4.54,1.73-5.74,3.56-1.43,2.17-1.77,4.88-.62,7.29.92,1.92,2.88,3.26,5.14,3.52Z"/>
          </g>
          <g>
            <path class="cls-4" d="M554.64,674.54c-.52-2.3-.35-4.29-.18-6.56,5.8.97,11.05,2.51,16.4,4.68,8.96,3.64,17.77,6.57,27.33,6.9l-2.11,1.29c-.62.38-.56,1.29-.38,1.78.97,2.51,8.79-.83,13.28-3.15l12.89-6.67c.89-.46,2.33-.52,2.91.25,1.76,2.34,4.43,1.15,6.32,1.85,1.75.65,2.79,2.94,5.28,2.33,2.32-.57,4.43-1.78,5.98-3.97,1.9,3.03,5.09,3.63,7.82,1.88,1.48-.95,2.84-2.2,3.69-3.8l5.2-9.74c6.18-11.58,14.6-10.68,24.03-21.51,2.89-3.32,6.52-5.23,10.83-6.28l19.59-1.81c11.37.22,22.26,1.71,33.53,3.88,4.09,6.07,6.41,12.57,7.85,19.81,4,23.98-1.48,45.69-16.45,65.15l-38.36-15.26,5.99-4.99c.41-.69.43-1.62.11-2.11-.43-.65-1.74-.89-2.51-.3-11.75,9-20.97,14.75-36.7,14.81-8.66.03-16.84,1.2-24.9,4.22l-25.11-.65c-5.47-.14-10.97,1.32-16.39.19l-25.05-5.19c-1.33-.28-2.72-.64-3.83-1.34l-.44-32.6c-.01-.99-2.12-1.37-2.89-1.46l-13.74-1.63Z"/>
            <path class="cls-4" d="M651.01,645.55c-4.76,6-7.45,12.96-8.78,20.63-.58,3.38-2.35,7.21-6.22,7.37-1.41.06-1.77-2.42-1.67-3.57.84-9.61,4.48-18.18,9.12-26.48.6-1.07.36-2.37-.44-2.79-1.16-.61-2.02.09-2.71,1.15-5.61,8.59-8.39,18.35-9.82,28.55-.12.85-1.61.96-2.11.64-2.54-1.64-2.5-4.31-2.08-8.14.94-8.47,4.34-16.08,8.91-23.19.67-1.04.81-2.16.05-2.75-.91-.72-2.18-.52-2.73.56-5.04,7.49-8.39,15.42-10.1,24.8-1.53-2.66-1.26-5.94-.7-9.04,3.03-16.88,15.23-29.84,31.59-34.52l27.26-7.8,20.97-9.96,30.26-14.7c9.75-4.74,19.09-9.41,28.15-15.34,1.07-.7,1.34-2.26,1.53-3.51l6.78-44.09,21.69,4.14c10.16,1.94,20.13,2.78,30.61,2.84-2.17,17.07-5.44,33.27-10.23,49.43-1.56,5.25-3.35,10.02-5.72,14.83-4.4,8.95-14.71,16.55-23.78,19.76l-24.39,8.65-2.35.78-24.09,5.21-14.49-.68c-7.47-.35-14.63.17-21.88,1.8-4.78,1.08-9.06,2.95-12.34,6.69-8.74,9.99-17.05,11.33-21.94,17.5-6.17,7.8-7.97,18.23-12.4,17.86-1.19-.1-1.8-2.01-1.68-3.21.81-7.74,3.9-14.63,8.22-20.95.53-.78.43-1.78.05-2.34-.41-.61-1.88-.98-2.54-.14Z"/>
            <path class="cls-4" d="M577.5,482.24c.04-1.46,3-1.54,2.33-3.43-.86-2.41-9.5,1.62-16.67-3.43-7.75-5.45-12.66-2.83-20.16-4.78-1.55-.41-2.7-1.55-2.82-2.92-.13-1.44.74-3.34,2.38-3.68l9.49-1.99c4.57-.96,12.39-1.93,12.75-4.34.1-.67-.5-1.53-1.38-1.67-1.54-.25-2.86.34-4.51.7l.78-8.24c.11-1.14-1.03-2.15-2.09-2.58l-21.29-8.63c-1.62-.66-3.52-.07-5.19.04l-14.49.91c-1.53-2.23.57-5.39,3.2-6.5,12.45-5.24,26.57-5.72,39.28-.84,8.06,3.09,17.89,12.67,24.14,19.38s13.19,12.34,20.7,17.81l26.01,18.96,19.51,14.98c.74.57,1.75.48,2.28.04.68-.57.86-1.59.16-2.46l-2.63-2.81,12.7-17.59c8.52,8.01,17.43,14.6,27.36,20.64,0,6.43,1.1,12.53,3.26,18.65.42,1.18.38,2.23-.39,3.27-5.8,6.91-11.89,13.35-18.96,18.99-10.79,8.62-22.17,13.95-35.21,7.23-6.46-3.33-12.12-7.46-17.42-12.69-16.26-16.04-30.22-33.78-43.14-53.03Z"/>
            <path class="cls-4" d="M636.91,622.76c-11.69,9.25-19.27,21.66-19.2,36.11.4,3.55,2.17,6.24,4.59,9.35l-18.74,9.52c-13.92-11.19-26.31-22.03-35.78-37.02-9.49-15.01-7.69-34.46,4.94-47,4.57-4.54,10.23-7.13,16.49-8.56,8.94-1.85,17.77-2.18,26.83-.8l26.19,4.01c3.52,9.02,5.61,18.25,6.31,28.1l-8.44,4.19-8.75-7c-5.14-4.12-18.73-10.62-20.2-7.77-.39.76-.09,2.13,1.05,2.5,9.07,2.96,17.33,7.45,24.72,14.37Z"/>
            <path class="cls-4" d="M652.21,755.36c-3.29.37-6.07-1.75-5.8-4.91,5-.52,11.8-3.9,10.8-6.51-1.42-3.73-5.78,2.9-12.72,2.75-2.36-.05-4.61-1-5.52-3.25-.32-.79-.2-1.74.2-2.44,1.26-2.19,8.78-.61,15.12-5.71.76-.61.17-2.16-.39-2.47-3.02-1.7-6.93,4.4-15.38,2.77-2.29-.44-4.18-1.9-4.8-3.65-2.13-6.09,4.26-9.25,10.33-11.4,7.51-2.66,14.94-3.99,22.94-3.82,10.34.22,19.84-2.91,28.62-8.21,1.07-.49,3.05.35,4.1.76l24.51,9.48c1.83,6.85.4,14.62-5.68,17.34l-11.35,5.08c-4.57,2.04-8.63,3.95-12.75,6.8-5.57,3.84-11.7,7.58-18.4,8.96-4.77.98-8.94,1.67-13.37,3.7-2.09.96-5.11-.02-5.9-2.13l6.87-4.88c.92-.65.49-2.07-.4-2.58-2.8-1.58-5.13,3.66-11.02,4.31Z"/>
            <g>
              <path class="cls-4" d="M725.1,409.59c-1.5-3.01-1.51-7.13-.52-9.93.44-.36,2.28-.58,2.26-1.34-2.24-7.58-5.62-14.63-10.08-21.05,7.1-4.96,13.32-10.13,17.95-16.98.52-.77-.69-1.82-1.28-2-.87-.25-1.89.14-2.58,1.05-7.93,10.42-18.39,17.69-30.93,21.6s-25.06,2.68-36.26-3.6c-8.06-4.52-14.66-10.63-19.72-18.28l-8.35-12.63c-1.63-2.46-3.81-3.87-6.74-4.26-3.09-.41-6.72-1.27-8.66-3.84-3.42-4.54,4.37-14.18,3.9-24.05-.25-5.23-1.98-10.22-3.8-15.2-8.11-22.22-9.81-43.15-.51-65.25,15.2,20.32,41.4,34.76,65.44,40.39,14.17,3.32,28.42,3.88,42.78,3.01l2.89-5.41c3.43-4.69,9.16-6.78,15.03-5.74,13.53,2.4,17.42,20.89,12.62,33.41-3.85,10.02-13.09,10.23-14.41,11.39-.42.37-.58,1.16-.34,1.9,8.08,24.35,8.62,50.99-1.06,74.85-.37.91-.74,1.56-.41,2.33.26.6,1.02,1.24,1.87,1.34l14.19,1.65c-6.1,10.29-27.55,28.2-33.3,16.63Z"/>
              <path class="cls-7" d="M650.15,297.37c4.89,4.49,5.74,12.21,1.8,13.92-1.77.77-3.53.37-4.99-.83-3.26-2.67-4.84-7.42-3.52-11.43.45-1.37,1.69-2.42,2.6-2.7,1.49-.47,2.94-.03,4.11,1.04Z"/>
              <path class="cls-7" d="M670.13,355.13c-7.72,6.72-18.62,8.07-17.74,4.63.13-.51.62-1.32,1.53-1.4,8.69-.78,15.77-5.79,20.13-13.27.43-.74,1.41-1.14,2.07-1.01,3.21.62-1.48,7.12-6,11.05Z"/>
            </g>
          </g>
        </g>
        <g>
          <polygon class="cls-5" points="492.92 502.22 483.21 510.71 479.61 473.03 489.34 465.1 492.92 502.22"/>
          <path class="cls-5" d="M470.55,497.88c.88-2.23,2.33-4.71.93-7.56-.89-1.82-2.81-3.54-5.55-4.25,1.57-3.77.25-6.48-3.49-8.1-10.03-4.35-20.2-.94-21.17-1.38-.33-.15-.49-.95-.28-1.32s.85-.47,1.54-.48l33.32-.62,3.99,38.49-11.65.16.42-5.97c3.39-2.1,3.82-5.54,1.94-8.97Z"/>
          <polygon class="cls-1" points="477.61 470.72 444.18 471.27 453.57 463.87 486.21 462.98 477.61 470.72"/>
        </g>
        <g>
          <path class="cls-2" d="M277.64,372.28c.62,10.19,4.4,19.86,14.23,22.35.71.18,2.27.63,2.62,1.48-3.18,16.26-2.52,32.95,2.66,48.75l3.46,8.15c-7.25.5-13.98-.46-20.94-1.57-10.6-1.69-20.73-4.15-30.54-8.51-5.13-2.28-10.18-4.08-14.78-7.28s-9.54-6.28-13.39-10.6l-4.72-5.3c-8.55-12.21-9.15-29.5-4.79-43.79,3.45-11.32,8.15-21.64,14.15-31.81,3.27-5.55,5.91-10.97,8.85-16.68l10.71-20.8c8.11-15.75,18.63-26.76,33.81-35.74,4.22-2.5,8.25-4.62,12.97-6.14,6.91-2.22,13.77-4.12,21.07-4.51,12.82-.68,24.33-.18,36.54,3.49,12.6,3.79,22.94,7.79,33.3,16.36l5.79,4.79c3.75,3.1,5.76,8.2,9.87,11.05,6.48,4.49,12.74,9.01,16.24,16.36,2.91,6.11,4,12.82,4.22,19.62-.55,10-3.68,19.59-10.69,27.45.16-7.28.5-13.9-.42-20.9-.96-7.37-3.35-14.24-6.28-21-1-.56-2.19-.11-2.74.84-13.33,23.36-40.12,39.35-66.72,42.76-6.76.87-12.85,1.33-19.51.92-5.37-9.63-15.29-14.82-24.59-9.06-6.71,4.15-10.86,10.94-10.35,19.32Z"/>
          <path class="cls-3" d="M321.15,493.09l16.79,16.38c-5.67,11.77-12.9,22.02-21.55,31.39l-11.47,12.43c-5.27-2.76-10.12-5.77-14.47-9.76l-21.34-19.61c-.84-.77-2.05-.52-2.64.25s-.34,1.86.59,2.8c7.27,7.32,14.68,14.19,22.75,20.66l13.04,8.97c1.69,1.16,3.64.66,5.04-.71l4.15-4.08,13.88,8.77,18.38,8.93c.17,13.46,1.18,26.51,2.98,39.82.18,1.32.45,3.09-.17,4.35-11.03,6.26-22.72,10.7-35.32,13.13-12.95,2.49-25.6,3.98-38.8,4.85h-31.97c-9.2-.01-28.12-2.62-36.31-7.04,1.55-22.55,4.1-44.31,8.68-66.23,3.92-18.74,9.85-36.47,17.5-53.95s19.5-38.92,34.59-51.82c9.9,2.04,19.32,3.61,29.28,4.43,6.91,6.86,17.88,15.03,27.21,14.35,3.74-.27,6.23-3.18,6.28-6.78.03-1.92.13-3.7.74-5.76,9.01,5.02,16.48,15.51,20.92,24.72l5.71,11.85,9.47,20.84-9.12,7.85-9.19-6.08-3.1-24.69c-.1-.79-.93-1.57-1.46-1.52-.89.1-1.38,1.15-1.28,2.18l2.07,20.96c-4.89-2.02,1.71-4.51-3.01-9.04l-15.8-15.17c-8.01-7.69-16.3-14.68-26.18-19.77-6.53-3.36-13.38-5.2-20.61-4.07-.86.14-1.55.81-1.7,1.39s.56,2.02,1.51,1.94c8.48-.71,16.38,1.77,23.65,6.37,7.27,4.85,13.8,10.18,20.25,16.47Z"/>
          <path class="cls-4" d="M207.36,712.62c6.02-5.84,10.36-12.14,13.58-19.65,3.71-8.66,9.26-16.07,18.92-12.81l7.8,3.69c4.79,2.27,9.51,3.74,14.89,3.15l14.65-2.85,25.58-5.96c13.86-2.49,27.59-2.15,41.15,1.48,1.07.29,2.24-.69,2.34-1.45s-.57-1.71-1.6-1.92l-16.1-3.26c5.48-11.81,14.92-22.5,27.5-26.39,9.83,3.78,18.86,8.6,26.51,15.75,9.65,9.02,12.78,22.93,7.3,34.97-6.75,14.84-25.14,18.34-40.61,19.99-16.78,1.79-33.3,2.01-50.22,1.41l-26.55-.93c-10.91-.38-20.96,1.73-30.79,6.45l-27.97,13.44c-5.62,2.7-14.59,3.72-17.85-.97-3.82-5.51,5.31-18.14,11.47-24.13Z"/>
          <path class="cls-4" d="M464.77,509.48c1.93,2.33-6.94,6.59-13.55,7.77-3.41.61-6.31,1.84-9.02,3.94-8.39,6.52-15.97,3.76-17.44,5.11-14.67,13.5-30.31,25.32-47.54,35.35-8.19,4.77-19.64,8.21-28.55,5.18-6.7-1.84-12.83-4.61-18.7-8.31l-15.64-9.85,12.76-15.1c4.43-5.24,7.84-10.85,11.32-17.12,6.45,5.23,12.93,9.46,20.05,12.98l8.51-3.04,43.51-20.33c8.42-3.93,11.12-13.85,18.47-19.64,9.12-7.18,21.31-8.9,32.14-5.16.93.32,1.3,1.07,1.55,1.52.29.52-.04,2.01-.82,2.04-6.33.26-12.52.57-18.61,2.33-1.04.3-1.57,1.22-1.41,2.07s1,1.41,2.14,1.16c6.91-1.47,13.83-1.94,20.77-.7,2.78.49,4.29,2.62,3.54,4.3-.24.53-.93,1.01-1.8,1.1l-20.66,2.18c-1.37.14-1.95,1.21-1.62,2.27.39,1.26,1.28,1.27,2.59,1.17l18.21-1.34c1.26-.09,3.08.77,3.05,2.1-.04,1.86-2.02,3.06-3.73,3.36l-16.99,3.01c-1,.18-1.67.63-1.71,1.42-.05.97.68,2.05,1.89,1.88l15.5-2.2c.77-.11,1.4.07,1.78.53Z"/>
          <path class="cls-4" d="M396.14,687c.81-18.95-10.82-29.39-26.1-38.28,4.9-9.37,12.73-15.73,21.8-19.93,8.51,2.87,15.81,6.76,22.06,12.75,11.28,10.8,11.27,28.57-.44,38.99-4.66,4.15-10.58,6.02-17.33,6.48Z"/>
          <path class="cls-4" d="M383.67,620.27l-32.3-7.33c-2.07-13.91-3.09-27.71-3.48-42.22,6.96,1.58,13.54,1.5,20.38-1.31,4.42,17.4,9.21,33.78,15.4,50.86Z"/>
          <rect class="cls-6" x="361.57" y="524.07" width=".35" height=".35" transform="translate(-264.75 409.35) rotate(-45)"/>
          <g>
            <path class="cls-5" d="M165.39,717.35l27.92,7.91c-1.18,2.41-2.01,4.4-2.33,6.68-.74,5.28,2.38,9.31,7.4,10.74,6.3,1.8,12.64.57,18.48-2.35l20.79-10.39,10.36.79,14.93.4c23.95.64,46.97,5.57,68.97,14.79,10.06,4.22,18.88.77,25.83-7.21,5.22-6,10.94-10.88,18.11-14.43l19.07-9.43c8.25-4.08,15.45-9.06,22.36-15.13l18.19-17.9.05,18.74-22.5,22.95c-20.26,18.52-49.88,30.78-77.07,34.01l-34.99,2.51c-26.49.63-52.51-.54-78.81-3.61-15.02-1.75-29.17-4.37-43.89-7.58-13.39-2.92-26.21-6.41-38.57-12.63-17-8.56-32.23-19.84-46.15-32.65-1.96-1.8-3.56-3.52-4.15-6.37,5.67,2.55,10.82,4.3,16.77,5.1,10.18,1.37,19.94,3.23,29.79,6.2l29.43,8.85Z"/>
            <path class="cls-1" d="M217.65,690.89c-2.58,5.96-5.53,11.32-9.9,15.84-4.87,4.7-9.3,9.39-12.87,15.38l-21.93-6.04-40.79-12.15c-9.31-2.77-18.44-4.16-28.04-5.48-5.01-.69-9.76-2.4-13.77-5.2-3.42-2.39,1.88-7.39,6.27-9.67,6.96-3.63,13.08-7.82,19.4-12.57,21.56-16.19,40.59-29.81,67.26-36.74l22.51-5.01v15.18c.01,5.58,1.56,10.67,3.38,16.26-6.59-3.01-23.09-9.21-23.67-5.45-.16,1.06.43,1.76,1.75,2.05,8.46,1.85,16.82,4.45,24,9.47,2.08,2.15,3.15,5.17,4.91,7.96-13.4-3.3-26.49-3.35-39.57-.11-1.14.28-1.47.8-1.61,1.68-.11.64.42,2.21,1.59,1.9,15.76-4.1,32.01-3.24,47.19,2.65-2.67,3.2-4.19,6.46-6.09,10.06Z"/>
            <path class="cls-5" d="M274.84,681.08c-11.95,2.87-18.28,4.52-29.03-2.33-6.03-3.84-13.26-4.39-19.16-.23-3.5-2.09-5.91-4.6-8.06-7.62-8.14-11.41-10.29-25.71-9.24-40.3,6.03,1.65,11.5,2.79,17.57,3.42,15.41,1.62,30.5,1.77,46.07,1.25,12.97-.84,25.37-2.35,38.09-4.7l15.3-3.72c8.4-2.04,15.91-5.58,23.09-10.4,13.59,2.17,26.47,5.1,39.98,9.66-10.16,4.46-17.64,11.55-23.03,21.01-1.87-.21-3.23-1.38-4.81-2.19-3.57-2.27-6.96-4.42-10.91-6.05-8.46-3.48-16.93-6.37-25.8-8.69-1.32-.35-2.09.18-2.27,1.2-.17.94,0,2,1.21,2.3,9.67,2.44,18.92,5.54,28.32,10.33-13.2,6.22-22.19,15.93-27.77,29.07-8.62-.32-16.86.15-25.24,2.16l-24.3,5.84Z"/>
            <path class="cls-1" d="M335.07,743.21l-15.17-5.6c-12.04-4.44-24.09-7.03-36.91-8.57l-37.19-2.38c7.97-4.21,16.23-5.22,24.74-5.07l46.43,1.03,27.57-1.08c9.31-.36,18.14-2.33,26.99-4.99,12.25-3.52,22.2-13.05,24.12-26.07,8.13-.3,15.47-2.94,21.39-8.51,6.2-6.02,9.06-14.27,8.82-23.04-.19-7.01-3.2-13.13-7.92-18.56,8.81,1.53,17.07,3.76,24.96,7.69,1.45.72,4.2,1.82,4.57,3.44l.4,13.85-8.62,7.91-12.66,12.31-9.81,9.71c-6.88,6.81-14.52,11.93-23.21,16.31l-19.59,9.87c-4.91,2.47-9.4,5.35-13.29,9.19l-9.29,9.17c-4.32,4.26-10.37,5.57-16.31,3.38Z"/>
            <path class="cls-5" d="M447.49,675.69c-3.03,1.36-5.4,2.87-8.92,3.36l9.07-8.32c.35,1.68.32,3.16-.15,4.96Z"/>
            <rect class="cls-5" x="438.07" y="679.07" width=".35" height=".35" transform="translate(-351.94 508.84) rotate(-45)"/>
          </g>
          <g>
            <path class="cls-4" d="M324.35,464.83c.05,3.19-4.67,3.76-8.72,2.05-5.67-2.41-10.86-5.32-15.5-9.85,1.89-.52,3.65.15,4.91-1.03.98-.91.41-2.72-.2-3.82-4.34-7.85-6.62-15.93-7.79-24.79-1.33-10.1-1.29-19.82,1.05-29.78.37-1.59.71-3.38.26-4.99-3.99-1.16-8.02-1.96-11.03-5.05-6.73-6.89-7.99-18.01-3.13-26.24,2.33-3.95,6.33-6.37,10.18-6.87,4.56-.59,9.18,1.16,11.96,4.6l4.05,6.81c15.41.59,30.82-1.6,45.32-7.15,16.94-6.48,34.61-19.61,44.55-35.42,6.25,17.22,5.88,34.35,1.17,52.05-2.06,7.75-.43,15.15,4.14,21.54,1.33,1.85,1.8,4.3.97,6.3-2.21,5.29-8.58,1.34-12.03,8.36l-5.27,10.72c-6.59,11.17-16.7,20.01-29.33,23.63-9.78,2.8-19.84,1.7-29.39-1.41-6.39-2.08-11.87-5.45-17.36-9.18-.78-.53-1.62-.82-2.14-.45-3.93,2.74,11.38,10.46,17.9,13.08-2.87,5.51-4.68,10.85-4.59,16.88Z"/>
            <path class="cls-7" d="M382.25,384.4c-1.18,1.12-2.61,1.47-3.76,1.27-1.24-.22-2.55-1.12-3.2-2.53-1.87-4.1-.48-9.03,3.16-11.66,2.13-1.53,4.88-.97,6.13,1.54,1.8,3.61.72,8.45-2.34,11.37Z"/>
            <path class="cls-7" d="M362.15,414.38c7.24,11.4,18.29,9.14,18.39,11.89.13,3.56-13.83,1.52-21.04-9.8-.49-.77-.07-1.97.38-2.3s1.84-.48,2.28.21Z"/>
          </g>
        </g>
      </g>
    </g>
  </g>
</svg>